<?xml version="1.0" encoding="utf-8"?>
<!-- Generator: Adobe Illustrator 16.0.0, SVG Export Plug-In . SVG Version: 6.00 Build 0)  -->
<!DOCTYPE svg PUBLIC "-//W3C//DTD SVG 1.1//EN" "http://www.w3.org/Graphics/SVG/1.1/DTD/svg11.dtd">
<svg version="1.1" id="Layer_1" xmlns="http://www.w3.org/2000/svg" xmlns:xlink="http://www.w3.org/1999/xlink" x="0px" y="0px"
	 width="32px" height="32px" viewBox="0 0 32 32" enable-background="new 0 0 32 32" xml:space="preserve">
<g id="affiliate_marketing">
	<g>
		<g>
			<g>
				<path fill="#263238" d="M9.5,25c1.104,0,2,0.896,2,2s-0.896,2-2,2s-2-0.896-2-2S8.396,25,9.5,25L9.5,25z M9.5,24
					c-1.654,0-3,1.346-3,3s1.346,3,3,3s3-1.346,3-3S11.154,24,9.5,24L9.5,24z"/>
			</g>
		</g>
		<g>
			<g>
				<path fill="#263238" d="M22.5,25c1.104,0,2,0.896,2,2s-0.896,2-2,2s-2-0.896-2-2S21.396,25,22.5,25L22.5,25z M22.5,24
					c-1.654,0-3,1.346-3,3s1.346,3,3,3s3-1.346,3-3S24.154,24,22.5,24L22.5,24z"/>
			</g>
		</g>
		<g>
			<g>
				<path fill="#263238" d="M9.5,3c1.104,0,2,0.896,2,2s-0.896,2-2,2s-2-0.896-2-2S8.396,3,9.5,3L9.5,3z M9.5,2
					c-1.654,0-3,1.346-3,3s1.346,3,3,3s3-1.346,3-3S11.154,2,9.5,2L9.5,2z"/>
			</g>
		</g>
		<g>
			<g>
				<path fill="#263238" d="M4,14c1.104,0,2,0.896,2,2s-0.896,2-2,2s-2-0.896-2-2S2.896,14,4,14L4,14z M4,13c-1.654,0-3,1.346-3,3
					s1.346,3,3,3s3-1.346,3-3S5.654,13,4,13L4,13z"/>
			</g>
		</g>
		<g>
			<g>
				<path fill="#263238" d="M28,14c1.104,0,2,0.896,2,2s-0.896,2-2,2s-2-0.896-2-2S26.896,14,28,14L28,14z M28,13
					c-1.654,0-3,1.346-3,3s1.346,3,3,3s3-1.346,3-3S29.654,13,28,13L28,13z"/>
			</g>
		</g>
		<g>
			<g>
				<path fill="#263238" d="M22.5,3c1.104,0,2,0.896,2,2s-0.896,2-2,2s-2-0.896-2-2S21.396,3,22.5,3L22.5,3z M22.5,2
					c-1.654,0-3,1.346-3,3s1.346,3,3,3s3-1.346,3-3S24.154,2,22.5,2L22.5,2z"/>
			</g>
		</g>
		<g>
			<g>
				<g>
					<rect x="10.125" y="8.355" transform="matrix(0.5 0.866 -0.866 0.5 13.6069 -5.8563)" fill="#263238" width="3.5" height="1"/>
				</g>
				<g>
					
						<rect x="18.375" y="22.644" transform="matrix(0.5 0.866 -0.866 0.5 30.1069 -5.8563)" fill="#263238" width="3.5" height="1"/>
				</g>
			</g>
			<g>
				<g>
					
						<rect x="19.625" y="7.105" transform="matrix(0.8661 0.4999 -0.4999 0.8661 7.1223 -8.8749)" fill="#263238" width="1" height="3.5"/>
				</g>
				<g>
					
						<rect x="11.375" y="21.394" transform="matrix(0.8661 0.4999 -0.4999 0.8661 13.1608 -2.8368)" fill="#263238" width="1" height="3.5"/>
				</g>
			</g>
			<g>
				<g>
					<rect x="22.5" y="15.5" fill="#263238" width="3.5" height="1"/>
				</g>
				<g>
					<rect x="6" y="15.5" fill="#263238" width="3.5" height="1"/>
				</g>
			</g>
		</g>
		<g>
			<path fill="#263238" d="M22.001,19c-0.064,0-0.129-0.012-0.192-0.039c-0.254-0.106-0.375-0.399-0.269-0.654
				C21.845,17.576,22,16.8,22,16c0-3.309-2.691-6-6-6s-6,2.692-6,6c0,0.799,0.154,1.575,0.459,2.306
				c0.106,0.255-0.015,0.547-0.27,0.654c-0.254,0.106-0.547-0.015-0.654-0.27C9.18,17.837,9,16.932,9,16c0-3.86,3.14-7,7-7
				s7,3.14,7,7c0,0.933-0.181,1.839-0.537,2.692C22.383,18.885,22.197,19,22.001,19z"/>
		</g>
		<g>
			<g>
				<path fill="#263238" d="M16,23c-1.963,0-3.85-0.838-5.178-2.3c-0.145-0.159-0.171-0.393-0.066-0.58
					c0.247-0.442,0.633-0.77,1.059-0.897L14,18.438v-0.213c-0.639-0.57-1-1.368-1-2.225v-1c0-1.309,0-3.5,3-3.5s3,2.191,3,3.5v1
					c0,0.856-0.361,1.654-1,2.225v0.213l2.211,0.794c0.4,0.119,0.786,0.446,1.033,0.889c0.104,0.188,0.078,0.421-0.066,0.58
					C19.85,22.162,17.963,23,16,23z M11.854,20.327C12.969,21.396,14.457,22,16,22s3.032-0.606,4.147-1.674
					c-0.079-0.069-0.164-0.12-0.249-0.145l-2.567-0.921C17.132,19.188,17,19,17,18.789v-0.8c0-0.157,0.073-0.304,0.199-0.399
					C17.708,17.205,18,16.625,18,16v-1c0-1.55-0.097-2.5-2-2.5s-2,0.95-2,2.5v1c0,0.625,0.292,1.205,0.801,1.59
					C14.927,17.685,15,17.832,15,17.989v0.8c0,0.211-0.132,0.399-0.331,0.471l-2.542,0.913
					C12.029,20.202,11.937,20.256,11.854,20.327z"/>
			</g>
		</g>
	</g>
</g>
</svg>
