<?xml version="1.0" encoding="utf-8"?>
<!-- Generator: Adobe Illustrator 16.0.0, SVG Export Plug-In . SVG Version: 6.00 Build 0)  -->
<!DOCTYPE svg PUBLIC "-//W3C//DTD SVG 1.1//EN" "http://www.w3.org/Graphics/SVG/1.1/DTD/svg11.dtd">
<svg version="1.1" xmlns="http://www.w3.org/2000/svg" xmlns:xlink="http://www.w3.org/1999/xlink" x="0px" y="0px" width="32px"
	 height="32px" viewBox="0 0 32 32" enable-background="new 0 0 32 32" xml:space="preserve">
<g id="algorithm_scheme">
	<g id="tax_x2C__duty_x2C__charge_x2C__percent">
		<g id="white_paper">
			<g id="digital_key_2_">
				<g>
					<g>
						<g>
							<path fill="#263238" d="M1.5,6C1.224,6,1,5.776,1,5.5v-1C1,3.121,2.121,2,3.5,2h1C4.776,2,5,2.224,5,2.5S4.776,3,4.5,3h-1
								C2.673,3,2,3.673,2,4.5v1C2,5.776,1.776,6,1.5,6z"/>
						</g>
					</g>
					<g>
						<g>
							<path fill="#263238" d="M9.25,29H7.5C6.673,29,6,28.327,6,27.5v-23C6,3.938,5.813,3.418,5.499,3H23.5
								C24.327,3,25,3.673,25,4.5v20c0,0.276,0.224,0.5,0.5,0.5s0.5-0.224,0.5-0.5v-20C26,3.121,24.879,2,23.5,2h-20
								C3.224,2,3,2.224,3,2.5S3.224,3,3.5,3C4.327,3,5,3.673,5,4.5v23C5,28.879,6.121,30,7.5,30h1.75V29z"/>
						</g>
					</g>
					<g>
						<g>
							<path fill="#263238" d="M28.5,30h-21C7.224,30,7,29.776,7,29.5S7.224,29,7.5,29C8.327,29,9,28.327,9,27.5v-1
								C9,26.224,9.224,26,9.5,26h21c0.276,0,0.5,0.224,0.5,0.5v1C31,28.879,29.879,30,28.5,30z M9.499,29H28.5
								c0.827,0,1.5-0.673,1.5-1.5V27H10v0.5C10,28.063,9.813,28.582,9.499,29z"/>
						</g>
					</g>
				</g>
			</g>
		</g>
	</g>
	<path fill="#263238" d="M15,21.333h1V17.5c0-0.276-0.224-0.5-0.5-0.5h-3.083v1H15V21.333z"/>
	<path fill="#263238" d="M11,16.417V13h1.833v-1H10.5c-0.276,0-0.5,0.224-0.5,0.5v3.917H11z"/>
	<path fill="#263238" d="M20,16.5h1v-4c0-0.276-0.224-0.5-0.5-0.5h-2.375v1H20V16.5z"/>
	<g>
		<path fill="#263238" d="M22.5,19h-4c-0.276,0-0.5-0.224-0.5-0.5v-2c0-0.276,0.224-0.5,0.5-0.5h4c0.276,0,0.5,0.224,0.5,0.5v2
			C23,18.776,22.776,19,22.5,19z M19,18h3v-1h-3V18z"/>
	</g>
	<g>
		<path fill="#263238" d="M12.5,19h-4C8.224,19,8,18.776,8,18.5v-2C8,16.224,8.224,16,8.5,16h4c0.276,0,0.5,0.224,0.5,0.5v2
			C13,18.776,12.776,19,12.5,19z M9,18h3v-1H9V18z"/>
	</g>
	<g>
		<path fill="#263238" d="M17.5,24h-4c-0.827,0-1.5-0.673-1.5-1.5s0.673-1.5,1.5-1.5h4c0.827,0,1.5,0.673,1.5,1.5S18.327,24,17.5,24
			z M13.5,22c-0.276,0-0.5,0.225-0.5,0.5s0.224,0.5,0.5,0.5h4c0.276,0,0.5-0.225,0.5-0.5S17.776,22,17.5,22H13.5z"/>
	</g>
	<g>
		<path fill="#263238" d="M18.5,8h-6C12.224,8,12,7.776,12,7.5v-2C12,5.224,12.224,5,12.5,5h6C18.776,5,19,5.224,19,5.5v2
			C19,7.776,18.776,8,18.5,8z M13,7h5V6h-5V7z"/>
	</g>
	<g>
		<path fill="#263238" d="M15.5,10C15.224,10,15,9.776,15,9.5V8c0-0.276,0.224-0.5,0.5-0.5S16,7.724,16,8v1.5
			C16,9.776,15.776,10,15.5,10z"/>
	</g>
	<g>
		<path fill="#263238" d="M15.5,16c-0.128,0-0.256-0.049-0.354-0.146l-3-3c-0.195-0.195-0.195-0.512,0-0.707l3-3
			c0.195-0.195,0.512-0.195,0.707,0l3,3c0.195,0.195,0.195,0.512,0,0.707l-3,3C15.756,15.951,15.628,16,15.5,16z M13.207,12.5
			l2.293,2.293l2.293-2.293L15.5,10.207L13.207,12.5z"/>
	</g>
</g>
</svg>
