<?xml version="1.0" encoding="utf-8"?>
<!-- Generator: Adobe Illustrator 16.0.0, SVG Export Plug-In . SVG Version: 6.00 Build 0)  -->
<!DOCTYPE svg PUBLIC "-//W3C//DTD SVG 1.1//EN" "http://www.w3.org/Graphics/SVG/1.1/DTD/svg11.dtd">
<svg version="1.1" id="Layer_1" xmlns="http://www.w3.org/2000/svg" xmlns:xlink="http://www.w3.org/1999/xlink" x="0px" y="0px"
	 width="32px" height="32px" viewBox="0 0 32 32" enable-background="new 0 0 32 32" xml:space="preserve">
<g id="analysis">
	<g>
		<g>
			<g>
				<path fill="#263238" d="M28.5,29c-0.667,0-1.295-0.26-1.768-0.732l-4-4C22.26,23.795,22,23.168,22,22.5s0.26-1.295,0.732-1.768
					c0.906-0.906,2.629-0.906,3.535,0l4,4C30.74,25.205,31,25.832,31,26.5s-0.26,1.295-0.732,1.768S29.167,29,28.5,29z M24.5,21.02
					c-0.407,0-0.793,0.152-1.061,0.42C23.156,21.723,23,22.1,23,22.5s0.156,0.777,0.439,1.061l4,4c0.567,0.566,1.554,0.566,2.121,0
					C29.844,27.277,30,26.9,30,26.5s-0.156-0.777-0.439-1.061l-4-4C25.293,21.172,24.907,21.02,24.5,21.02z"/>
			</g>
			<path fill="#263238" d="M21.055,18.347c-0.223,0.249-0.459,0.484-0.707,0.708l2.077,2.077c0.195,0.195,0.512,0.195,0.707,0
				s0.195-0.512,0-0.707L21.055,18.347z"/>
			<path fill="#263238" d="M14,22C8.486,22,4,17.514,4,12C4,6.486,8.486,2,14,2s10,4.486,10,10C24,17.514,19.514,22,14,22z M14,3
				c-4.962,0-9,4.038-9,9s4.038,9,9,9s9-4.038,9-9S18.962,3,14,3z"/>
		</g>
		<path fill="#263238" d="M24.5,8c-0.128,0-0.256-0.049-0.354-0.146c-0.195-0.195-0.195-0.512,0-0.707l5.5-5.5
			c0.195-0.195,0.512-0.195,0.707,0s0.195,0.512,0,0.707l-5.5,5.5C24.756,7.951,24.628,8,24.5,8z"/>
		<path fill="#263238" d="M1.5,23c-0.117,0-0.234-0.041-0.329-0.124c-0.208-0.182-0.229-0.497-0.047-0.705l3.458-3.951
			c0.182-0.209,0.498-0.229,0.706-0.047c0.208,0.182,0.229,0.497,0.047,0.705l-3.458,3.951C1.777,22.942,1.639,23,1.5,23z"/>
		<path fill="#263238" d="M10.5,17c-0.132,0-0.26-0.052-0.354-0.146l-1.622-1.622l-0.719,0.822
			c-0.183,0.208-0.499,0.228-0.706,0.047c-0.208-0.182-0.229-0.498-0.047-0.706l1.071-1.225c0.091-0.104,0.222-0.166,0.36-0.17
			c0.126-0.023,0.272,0.048,0.37,0.146l1.613,1.613l4.649-5.58c0.09-0.108,0.221-0.173,0.362-0.179
			c0.138-0.01,0.277,0.046,0.376,0.146l2.646,2.646l2.646-2.646c0.195-0.195,0.512-0.195,0.707,0s0.195,0.512,0,0.707l-3,3
			c-0.195,0.195-0.512,0.195-0.707,0l-2.613-2.613l-4.649,5.58c-0.09,0.108-0.221,0.173-0.362,0.179C10.515,17,10.507,17,10.5,17z"
			/>
		<path fill="#263238" d="M30,6.5c-0.019,0-0.037-0.001-0.056-0.003c-0.274-0.031-0.472-0.278-0.442-0.552l0.431-3.879l-3.879,0.431
			c-0.272,0.03-0.522-0.167-0.552-0.442s0.167-0.521,0.442-0.552l4.5-0.5c0.155-0.017,0.301,0.036,0.409,0.144
			s0.16,0.258,0.144,0.409l-0.5,4.5C30.469,6.311,30.252,6.5,30,6.5z"/>
	</g>
	<g>
		<path fill="#263238" d="M30.5,31h-29C1.224,31,1,30.776,1,30.5S1.224,30,1.5,30h29c0.276,0,0.5,0.224,0.5,0.5S30.776,31,30.5,31z"
			/>
		<path fill="#263238" d="M24.5,29c-0.13,0-0.25-0.05-0.35-0.141C24.05,28.75,24,28.63,24,28.5s0.05-0.26,0.14-0.351
			c0.2-0.199,0.54-0.189,0.72,0C24.95,28.24,25,28.37,25,28.5s-0.05,0.26-0.15,0.35C24.76,28.95,24.63,29,24.5,29z"/>
		<path fill="#263238" d="M22.5,29c-0.276,0-0.5-0.224-0.5-0.5v-2c0-0.276,0.224-0.5,0.5-0.5s0.5,0.224,0.5,0.5v2
			C23,28.776,22.776,29,22.5,29z"/>
		<path fill="#263238" d="M20.5,29c-0.276,0-0.5-0.224-0.5-0.5v-7c0-0.276,0.224-0.5,0.5-0.5s0.5,0.224,0.5,0.5v7
			C21,28.776,20.776,29,20.5,29z"/>
		<path fill="#263238" d="M18.5,29c-0.276,0-0.5-0.224-0.5-0.5v-6c0-0.276,0.224-0.5,0.5-0.5s0.5,0.224,0.5,0.5v6
			C19,28.776,18.776,29,18.5,29z"/>
		<path fill="#263238" d="M16.5,29c-0.276,0-0.5-0.224-0.5-0.5v-5c0-0.276,0.224-0.5,0.5-0.5s0.5,0.224,0.5,0.5v5
			C17,28.776,16.776,29,16.5,29z"/>
		<path fill="#263238" d="M14.5,29c-0.276,0-0.5-0.224-0.5-0.5v-5c0-0.276,0.224-0.5,0.5-0.5s0.5,0.224,0.5,0.5v5
			C15,28.776,14.776,29,14.5,29z"/>
		<path fill="#263238" d="M12.5,29c-0.276,0-0.5-0.224-0.5-0.5v-5c0-0.276,0.224-0.5,0.5-0.5s0.5,0.224,0.5,0.5v5
			C13,28.776,12.776,29,12.5,29z"/>
		<path fill="#263238" d="M10.5,29c-0.276,0-0.5-0.224-0.5-0.5v-5c0-0.276,0.224-0.5,0.5-0.5s0.5,0.224,0.5,0.5v5
			C11,28.776,10.776,29,10.5,29z"/>
		<path fill="#263238" d="M8.5,29C8.224,29,8,28.776,8,28.5v-6C8,22.224,8.224,22,8.5,22S9,22.224,9,22.5v6
			C9,28.776,8.776,29,8.5,29z"/>
		<path fill="#263238" d="M6.5,29C6.224,29,6,28.776,6,28.5v-8C6,20.224,6.224,20,6.5,20S7,20.224,7,20.5v8
			C7,28.776,6.776,29,6.5,29z"/>
		<path fill="#263238" d="M4.5,29C4.224,29,4,28.776,4,28.5v-6C4,22.224,4.224,22,4.5,22S5,22.224,5,22.5v6
			C5,28.776,4.776,29,4.5,29z"/>
		<path fill="#263238" d="M2.5,29C2.224,29,2,28.776,2,28.5v-4C2,24.224,2.224,24,2.5,24S3,24.224,3,24.5v4
			C3,28.776,2.776,29,2.5,29z"/>
	</g>
</g>
</svg>
