<?xml version="1.0" encoding="utf-8"?>
<!-- Generator: Adobe Illustrator 16.0.0, SVG Export Plug-In . SVG Version: 6.00 Build 0)  -->
<!DOCTYPE svg PUBLIC "-//W3C//DTD SVG 1.1//EN" "http://www.w3.org/Graphics/SVG/1.1/DTD/svg11.dtd">
<svg version="1.1" xmlns="http://www.w3.org/2000/svg" xmlns:xlink="http://www.w3.org/1999/xlink" x="0px" y="0px" width="32px"
	 height="32px" viewBox="0 0 32 32" enable-background="new 0 0 32 32" xml:space="preserve">
<g id="Artificial_x2C__artificial_intelligence_x2C__intelligence">
	<path fill="#263238" d="M9.899,31c-0.036,0-0.072-0.004-0.109-0.012c-0.27-0.06-0.439-0.327-0.38-0.597
		c0.65-2.929,1.414-7.98,0.697-9.065c-0.152-0.23-0.088-0.541,0.142-0.693c0.231-0.151,0.541-0.088,0.693,0.142
		c1.159,1.755-0.259,8.499-0.555,9.833C10.335,30.841,10.128,31,9.899,31z"/>
	<path fill="#263238" d="M26.498,26h-8.967c-1.378,0-2.5-1.122-2.5-2.5c0-0.276,0.224-0.5,0.5-0.5s0.5,0.224,0.5,0.5
		c0,0.827,0.673,1.5,1.5,1.5h8.967c0.276,0,0.5,0.224,0.5,0.5S26.774,26,26.498,26z"/>
	<path fill="#263238" d="M21.399,31c-0.017,0-0.033-0.001-0.05-0.002c-0.275-0.027-0.475-0.272-0.448-0.547l0.5-5
		c0.025-0.255,0.241-0.45,0.498-0.45h4.6c0.276,0,0.5-0.224,0.5-0.5v-5c0-0.276,0.224-0.5,0.5-0.5h2.4
		c0.078,0,0.121-0.014,0.138-0.021c-0.007-0.01-0.015-0.054-0.052-0.123l-2.642-5.85c-0.033-0.073-0.048-0.153-0.043-0.233
		l0.101-1.8C27.398,6.038,22.913,2,17.398,2H3.5C3.224,2,3,1.776,3,1.5S3.224,1,3.5,1h13.898c6.065,0,11,4.486,11,10l-0.095,1.706
		l2.577,5.708c0.195,0.36,0.206,0.767,0.015,1.085C30.705,19.817,30.341,20,29.898,20h-1.9v4.5c0,0.827-0.673,1.5-1.5,1.5h-4.147
		l-0.455,4.55C21.87,30.808,21.653,31,21.399,31z"/>
	<path fill="#263238" d="M19.5,15.5c-0.276,0-0.5-0.224-0.5-0.5V7h-8c-0.276,0-0.5-0.224-0.5-0.5S10.724,6,11,6h8.5
		C19.776,6,20,6.224,20,6.5V15C20,15.276,19.776,15.5,19.5,15.5z"/>
	<path fill="#263238" d="M18,17H9.5C9.224,17,9,16.776,9,16.5V8c0-0.276,0.224-0.5,0.5-0.5S10,7.724,10,8v8h8
		c0.276,0,0.5,0.224,0.5,0.5S18.276,17,18,17z"/>
	<g id="XMLID_641_">
		<path fill="#263238" d="M21.5,15h-2c-0.276,0-0.5-0.224-0.5-0.5s0.224-0.5,0.5-0.5h2c0.276,0,0.5,0.224,0.5,0.5S21.776,15,21.5,15
			z"/>
		<path fill="#263238" d="M23.5,13h-4c-0.276,0-0.5-0.224-0.5-0.5s0.224-0.5,0.5-0.5h4c0.276,0,0.5,0.224,0.5,0.5S23.776,13,23.5,13
			z"/>
		<path fill="#263238" d="M22.5,11h-3c-0.276,0-0.5-0.224-0.5-0.5s0.224-0.5,0.5-0.5h3c0.276,0,0.5,0.224,0.5,0.5S22.776,11,22.5,11
			z"/>
		<path fill="#263238" d="M21.5,9h-2C19.224,9,19,8.776,19,8.5S19.224,8,19.5,8h2C21.776,8,22,8.224,22,8.5S21.776,9,21.5,9z"/>
	</g>
	<g id="XMLID_684_">
		<g id="XMLID_690_">
			<path fill="#263238" d="M12.5,7C12.224,7,12,6.776,12,6.5V4H8.5C8.224,4,8,3.776,8,3.5S8.224,3,8.5,3h4C12.776,3,13,3.224,13,3.5
				v3C13,6.776,12.776,7,12.5,7z"/>
		</g>
		<g>
			<path id="XMLID_47_" fill="#263238" d="M18.5,4.5v2V4.5z"/>
			<path fill="#263238" d="M18.5,7C18.224,7,18,6.776,18,6.5v-2C18,4.224,18.224,4,18.5,4S19,4.224,19,4.5v2
				C19,6.776,18.776,7,18.5,7z"/>
		</g>
		<g>
			<path id="XMLID_45_" fill="#263238" d="M16.5,3.5v3V3.5z"/>
			<path fill="#263238" d="M16.5,7C16.224,7,16,6.776,16,6.5v-3C16,3.224,16.224,3,16.5,3S17,3.224,17,3.5v3
				C17,6.776,16.776,7,16.5,7z"/>
		</g>
		<g>
			<path id="XMLID_44_" fill="#263238" d="M14.5,3.5v3V3.5z"/>
			<path fill="#263238" d="M14.5,7C14.224,7,14,6.776,14,6.5v-3C14,3.224,14.224,3,14.5,3S15,3.224,15,3.5v3
				C15,6.776,14.776,7,14.5,7z"/>
		</g>
	</g>
	<g>
		<g>
			<path id="XMLID_35_" fill="#263238" d="M12.5,19.5v-3V19.5z"/>
			<path fill="#263238" d="M12.5,20c-0.276,0-0.5-0.224-0.5-0.5v-3c0-0.276,0.224-0.5,0.5-0.5s0.5,0.224,0.5,0.5v3
				C13,19.776,12.776,20,12.5,20z"/>
		</g>
		<g>
			<path id="XMLID_34_" fill="#263238" d="M14.5,20.5v-4V20.5z"/>
			<path fill="#263238" d="M14.5,21c-0.276,0-0.5-0.224-0.5-0.5v-4c0-0.276,0.224-0.5,0.5-0.5s0.5,0.224,0.5,0.5v4
				C15,20.776,14.776,21,14.5,21z"/>
		</g>
		<g>
			<path id="XMLID_33_" fill="#263238" d="M10.5,16.5v2V16.5z"/>
			<path fill="#263238" d="M10.5,19c-0.276,0-0.5-0.224-0.5-0.5v-2c0-0.276,0.224-0.5,0.5-0.5s0.5,0.224,0.5,0.5v2
				C11,18.776,10.776,19,10.5,19z"/>
		</g>
		<path fill="#263238" d="M20.5,20h-4c-0.276,0-0.5-0.224-0.5-0.5v-3c0-0.276,0.224-0.5,0.5-0.5s0.5,0.224,0.5,0.5V19h3.5
			c0.276,0,0.5,0.224,0.5,0.5S20.776,20,20.5,20z"/>
	</g>
	<g>
		<path fill="#263238" d="M5,17H3.5C3.224,17,3,16.776,3,16.5S3.224,16,3.5,16h1.325l2.363-1.891C7.276,14.039,7.386,14,7.5,14h2
			c0.276,0,0.5,0.224,0.5,0.5S9.776,15,9.5,15H7.675l-2.363,1.891C5.224,16.961,5.114,17,5,17z"/>
		<path fill="#263238" d="M5,14H2.5C2.224,14,2,13.776,2,13.5S2.224,13,2.5,13h2.349l1.374-0.916C6.305,12.029,6.401,12,6.5,12h3
			c0.276,0,0.5,0.224,0.5,0.5S9.776,13,9.5,13H6.651l-1.374,0.916C5.195,13.971,5.099,14,5,14z"/>
		<path fill="#263238" d="M9.5,11h-6C3.224,11,3,10.776,3,10.5S3.224,10,3.5,10h6c0.276,0,0.5,0.224,0.5,0.5S9.776,11,9.5,11z"/>
		<path fill="#263238" d="M9.5,9h-3C6.311,9,6.138,8.893,6.053,8.724L5.191,7H1.5C1.224,7,1,6.776,1,6.5S1.224,6,1.5,6h4
			c0.189,0,0.362,0.107,0.447,0.276L6.809,8H9.5C9.776,8,10,8.224,10,8.5S9.776,9,9.5,9z"/>
	</g>
	<circle id="XMLID_700_" fill="#263238" cx="24.5" cy="10.5" r="0.5"/>
	<circle id="XMLID_703_" fill="#263238" cx="6.5" cy="3.5" r="0.5"/>
	<circle id="XMLID_699_" fill="#263238" cx="1.5" cy="1.5" r="0.5"/>
	<circle id="XMLID_701_" fill="#263238" cx="22.5" cy="19.5" r="0.5"/>
	<circle id="XMLID_704_" fill="#263238" cx="1.5" cy="10.5" r="0.5"/>
	<circle id="XMLID_702_" fill="#263238" cx="1.5" cy="16.5" r="0.5"/>
	<g>
		<path fill="#263238" d="M16.5,14h-4c-0.276,0-0.5-0.224-0.5-0.5v-4C12,9.224,12.224,9,12.5,9h4C16.776,9,17,9.224,17,9.5v4
			C17,13.776,16.776,14,16.5,14z M13,13h3v-3h-3V13z"/>
	</g>
</g>
</svg>
