<?xml version="1.0" encoding="utf-8"?>
<!-- Generator: Adobe Illustrator 16.0.0, SVG Export Plug-In . SVG Version: 6.00 Build 0)  -->
<!DOCTYPE svg PUBLIC "-//W3C//DTD SVG 1.1//EN" "http://www.w3.org/Graphics/SVG/1.1/DTD/svg11.dtd">
<svg version="1.1" xmlns="http://www.w3.org/2000/svg" xmlns:xlink="http://www.w3.org/1999/xlink" x="0px" y="0px" width="32px"
	 height="32px" viewBox="0 0 32 32" enable-background="new 0 0 32 32" xml:space="preserve">
<g id="availability_x2C__affordable_education">
	<path fill="#263238" d="M6.693,20.2c-0.115,0-0.229-0.039-0.324-0.119c-0.21-0.179-0.236-0.495-0.058-0.705l0.247-0.291
		c2.067-2.069,5.141-2.525,7.677-1.164c0.243,0.13,0.335,0.433,0.204,0.677c-0.13,0.243-0.433,0.335-0.677,0.204
		c-2.145-1.149-4.746-0.765-6.47,0.96l-0.219,0.261C6.976,20.14,6.835,20.2,6.693,20.2z"/>
	<path fill="#263238" d="M21.422,22h-7.395c-0.276,0-0.5-0.224-0.5-0.5s0.224-0.5,0.5-0.5h6.862c-0.041-0.273-0.13-0.607-0.33-0.918
		C20.099,19.364,19.202,19,17.895,19c-0.001,0-0.003,0-0.004,0h-3.733c-0.276,0-0.5-0.224-0.5-0.5s0.224-0.5,0.5-0.5h3.732
		c0.001,0,0.003,0,0.004,0c1.67,0,2.85,0.519,3.506,1.542c0.521,0.812,0.521,1.675,0.521,1.958C21.922,21.776,21.698,22,21.422,22z"
		/>
	<path fill="#263238" d="M28.524,17.572c-0.286-0.368-1.378-1.472-3.399-0.261c-0.844,0.508-1.453,1.047-1.99,1.523
		c-0.309,0.273-0.578,0.512-0.85,0.708l-1.396,0.424c0.188,0.28,0.317,0.595,0.384,0.929l1.38-0.419
		c0.05-0.015,0.098-0.038,0.141-0.068c0.341-0.238,0.664-0.523,1.004-0.825c0.505-0.447,1.078-0.954,1.842-1.414
		c0.809-0.484,1.478-0.538,1.932-0.153c0.367,0.311,0.441,0.775,0.429,0.841l-3.915,3.914l-5.285,1.9C18.311,24.846,17.47,25,17,25
		h-5c-0.662,0-1.488,0.296-1.999,0.711l-0.714,0.337c-0.02,0.009-0.033,0.026-0.051,0.038l0.741,0.742l0.509-0.24
		c0.042-0.02,0.081-0.045,0.116-0.075C10.921,26.235,11.561,26,12,26h5c0.583,0,1.542-0.174,2.138-0.388l5.391-1.938
		c0.069-0.025,0.132-0.065,0.185-0.117l3.994-3.993C29.132,19.139,29.05,18.246,28.524,17.572z"/>
	<path fill="#263238" d="M8.236,30.854c-0.195,0.194-0.512,0.195-0.707,0c-0.195-0.196-0.195-0.513,0-0.707l2.881-2.887
		l-5.656-5.657l-2.881,2.886c-0.195,0.195-0.512,0.195-0.707,0c-0.196-0.195-0.195-0.512,0-0.707l3.186-3.192
		c0.195-0.195,0.576-0.228,0.771-0.033l6.364,6.364c0.195,0.196,0.133,0.544-0.063,0.74L8.236,30.854z"/>
	<path fill="#263238" d="M29.5,16h-10c-0.276,0-0.5-0.224-0.5-0.5s0.224-0.5,0.5-0.5H29V2.5C29,2.224,29.224,2,29.5,2
		S30,2.224,30,2.5v13C30,15.776,29.776,16,29.5,16z"/>
	<path fill="#263238" d="M15.5,16h-10C5.224,16,5,15.776,5,15.5v-13C5,2.224,5.224,2,5.5,2S6,2.224,6,2.5V15h9.5
		c0.276,0,0.5,0.224,0.5,0.5S15.776,16,15.5,16z"/>
	<path fill="#263238" d="M17.5,16c-0.276,0-0.5-0.224-0.5-0.5v-12C17,2.122,18.122,1,19.5,1h8C27.776,1,28,1.224,28,1.5v12
		c0,0.276-0.224,0.5-0.5,0.5h-8c-0.827,0-1.5,0.673-1.5,1.5C18,15.776,17.776,16,17.5,16z M19.5,2C18.673,2,18,2.673,18,3.5v10.001
		C18.418,13.187,18.938,13,19.5,13H27V2H19.5z"/>
	<path fill="#263238" d="M17.5,16c-0.276,0-0.5-0.224-0.5-0.5c0-0.827-0.673-1.5-1.5-1.5h-8C7.224,14,7,13.776,7,13.5v-12
		C7,1.224,7.224,1,7.5,1h8C16.878,1,18,2.122,18,3.5v12C18,15.776,17.776,16,17.5,16z M8,13h7.5c0.563,0,1.082,0.187,1.5,0.501V3.5
		C17,2.673,16.327,2,15.5,2H8V13z"/>
	<path fill="#263238" d="M23.5,8h2C25.776,8,26,8.224,26,8.5S25.776,9,25.5,9h-2C23.224,9,23,8.776,23,8.5S23.224,8,23.5,8L23.5,8z"
		/>
	<path fill="#263238" d="M19.5,4h6C25.776,4,26,4.224,26,4.5S25.776,5,25.5,5h-6C19.224,5,19,4.776,19,4.5S19.224,4,19.5,4L19.5,4z"
		/>
	<path fill="#263238" d="M19.5,6h6C25.776,6,26,6.224,26,6.5S25.776,7,25.5,7h-6C19.224,7,19,6.776,19,6.5S19.224,6,19.5,6L19.5,6z"
		/>
	<path fill="#263238" d="M19.5,10h6c0.276,0,0.5,0.224,0.5,0.5S25.776,11,25.5,11h-6c-0.276,0-0.5-0.224-0.5-0.5S19.224,10,19.5,10
		L19.5,10z"/>
	<path fill="#263238" d="M19.5,8h2C21.776,8,22,8.224,22,8.5S21.776,9,21.5,9h-2C19.224,9,19,8.776,19,8.5S19.224,8,19.5,8L19.5,8z"
		/>
	<path fill="#263238" d="M11.5,11h-2C9.224,11,9,10.776,9,10.5S9.224,10,9.5,10h2c0.276,0,0.5,0.224,0.5,0.5S11.776,11,11.5,11
		L11.5,11z"/>
	<path fill="#263238" d="M15.5,9h-6C9.224,9,9,8.776,9,8.5S9.224,8,9.5,8h6C15.776,8,16,8.224,16,8.5S15.776,9,15.5,9L15.5,9z"/>
	<path fill="#263238" d="M15.5,5h-1C14.224,5,14,4.776,14,4.5S14.224,4,14.5,4h1C15.776,4,16,4.224,16,4.5S15.776,5,15.5,5L15.5,5z"
		/>
	<path fill="#263238" d="M15.5,7h-6C9.224,7,9,6.776,9,6.5S9.224,6,9.5,6h6C15.776,6,16,6.224,16,6.5S15.776,7,15.5,7L15.5,7z"/>
	<path fill="#263238" d="M12.5,5h-2C10.224,5,10,4.776,10,4.5S10.224,4,10.5,4h2C12.776,4,13,4.224,13,4.5S12.776,5,12.5,5L12.5,5z"
		/>
	<path fill="#263238" d="M15.5,11h-2c-0.276,0-0.5-0.224-0.5-0.5s0.224-0.5,0.5-0.5h2c0.276,0,0.5,0.224,0.5,0.5S15.776,11,15.5,11
		L15.5,11z"/>
</g>
</svg>
