<?xml version="1.0" encoding="utf-8"?>
<!-- Generator: Adobe Illustrator 16.0.0, SVG Export Plug-In . SVG Version: 6.00 Build 0)  -->
<!DOCTYPE svg PUBLIC "-//W3C//DTD SVG 1.1//EN" "http://www.w3.org/Graphics/SVG/1.1/DTD/svg11.dtd">
<svg version="1.1" xmlns="http://www.w3.org/2000/svg" xmlns:xlink="http://www.w3.org/1999/xlink" x="0px" y="0px" width="32px"
	 height="32px" viewBox="0 0 32 32" enable-background="new 0 0 32 32" xml:space="preserve">
<g id="book_x2C__read_x2C__story">
	<path fill="#263238" d="M15.5,28c-0.276,0-0.5-0.224-0.5-0.5v-20C15,6.121,16.122,5,17.5,5h10C27.776,5,28,5.224,28,5.5v20
		c0,0.276-0.224,0.5-0.5,0.5h-10c-0.827,0-1.5,0.673-1.5,1.5C16,27.776,15.776,28,15.5,28z M17.5,6C16.673,6,16,6.673,16,7.5v18.001
		C16.418,25.187,16.938,25,17.5,25H27V6H17.5z"/>
	<g>
		<path fill="#263238" d="M28.5,6h-1v1h1C28.776,7,29,7.225,29,7.5v19c0,0.275-0.224,0.5-0.5,0.5h-11c-0.276,0-0.5,0.224-0.5,0.5
			s0.224,0.5,0.5,0.5h11c0.827,0,1.5-0.673,1.5-1.5v-19C30,6.673,29.327,6,28.5,6z"/>
		<path fill="#263238" d="M13.5,27h-11C2.224,27,2,26.775,2,26.5v-19C2,7.225,2.224,7,2.5,7h1V6h-1C1.673,6,1,6.673,1,7.5v19
			C1,27.327,1.673,28,2.5,28h11c0.276,0,0.5-0.224,0.5-0.5S13.776,27,13.5,27z"/>
	</g>
	<path fill="#263238" d="M15.5,28c-0.276,0-0.5-0.224-0.5-0.5c0-0.827-0.673-1.5-1.5-1.5h-10C3.224,26,3,25.776,3,25.5v-20
		C3,5.224,3.224,5,3.5,5h10C14.878,5,16,6.121,16,7.5v20C16,27.776,15.776,28,15.5,28z M4,25h9.5c0.563,0,1.082,0.187,1.5,0.501V7.5
		C15,6.673,14.327,6,13.5,6H4V25z"/>
	<path fill="#263238" d="M22.5,13h3c0.276,0,0.5,0.224,0.5,0.5c0,0.275-0.224,0.5-0.5,0.5h-3c-0.276,0-0.5-0.225-0.5-0.5
		C22,13.224,22.224,13,22.5,13L22.5,13z"/>
	<path fill="#263238" d="M17.5,17h8c0.276,0,0.5,0.224,0.5,0.5c0,0.275-0.224,0.5-0.5,0.5h-8c-0.276,0-0.5-0.225-0.5-0.5
		C17,17.224,17.224,17,17.5,17L17.5,17z"/>
	<path fill="#263238" d="M17.5,9h8C25.776,9,26,9.224,26,9.5c0,0.275-0.224,0.5-0.5,0.5h-8C17.224,10,17,9.775,17,9.5
		C17,9.224,17.224,9,17.5,9L17.5,9z"/>
	<path fill="#263238" d="M17.5,11h8c0.276,0,0.5,0.224,0.5,0.5c0,0.275-0.224,0.5-0.5,0.5h-8c-0.276,0-0.5-0.225-0.5-0.5
		C17,11.224,17.224,11,17.5,11L17.5,11z"/>
	<path fill="#263238" d="M17.5,15h8c0.276,0,0.5,0.224,0.5,0.5c0,0.275-0.224,0.5-0.5,0.5h-8c-0.276,0-0.5-0.225-0.5-0.5
		C17,15.224,17.224,15,17.5,15L17.5,15z"/>
	<path fill="#263238" d="M17.5,21h2c0.276,0,0.5,0.224,0.5,0.5c0,0.275-0.224,0.5-0.5,0.5h-2c-0.276,0-0.5-0.225-0.5-0.5
		C17,21.224,17.224,21,17.5,21L17.5,21z"/>
	<path fill="#263238" d="M17.5,19h8c0.276,0,0.5,0.224,0.5,0.5c0,0.275-0.224,0.5-0.5,0.5h-8c-0.276,0-0.5-0.225-0.5-0.5
		C17,19.224,17.224,19,17.5,19L17.5,19z"/>
	<path fill="#263238" d="M21.5,21h4c0.276,0,0.5,0.224,0.5,0.5c0,0.275-0.224,0.5-0.5,0.5h-4c-0.276,0-0.5-0.225-0.5-0.5
		C21,21.224,21.224,21,21.5,21L21.5,21z"/>
	<path fill="#263238" d="M17.5,13h3c0.276,0,0.5,0.224,0.5,0.5c0,0.275-0.224,0.5-0.5,0.5h-3c-0.276,0-0.5-0.225-0.5-0.5
		C17,13.224,17.224,13,17.5,13L17.5,13z"/>
	<path fill="#263238" d="M10.5,20h-5C5.224,20,5,19.775,5,19.5C5,19.224,5.224,19,5.5,19h5c0.276,0,0.5,0.224,0.5,0.5
		C11,19.775,10.776,20,10.5,20L10.5,20z"/>
	<path fill="#263238" d="M13.5,20h-1c-0.276,0-0.5-0.225-0.5-0.5c0-0.276,0.224-0.5,0.5-0.5h1c0.276,0,0.5,0.224,0.5,0.5
		C14,19.775,13.776,20,13.5,20L13.5,20z"/>
	<path fill="#263238" d="M8.5,16h-3C5.224,16,5,15.775,5,15.5C5,15.224,5.224,15,5.5,15h3C8.776,15,9,15.224,9,15.5
		C9,15.775,8.776,16,8.5,16L8.5,16z"/>
	<path fill="#263238" d="M13.5,14h-8C5.224,14,5,13.775,5,13.5C5,13.224,5.224,13,5.5,13h8c0.276,0,0.5,0.224,0.5,0.5
		C14,13.775,13.776,14,13.5,14L13.5,14z"/>
	<path fill="#263238" d="M13.5,22h-8C5.224,22,5,21.775,5,21.5C5,21.224,5.224,21,5.5,21h8c0.276,0,0.5,0.224,0.5,0.5
		C14,21.775,13.776,22,13.5,22L13.5,22z"/>
	<path fill="#263238" d="M13.5,18h-8C5.224,18,5,17.775,5,17.5C5,17.224,5.224,17,5.5,17h8c0.276,0,0.5,0.224,0.5,0.5
		C14,17.775,13.776,18,13.5,18L13.5,18z"/>
	<path fill="#263238" d="M13.5,10h-2C11.224,10,11,9.775,11,9.5C11,9.224,11.224,9,11.5,9h2C13.776,9,14,9.224,14,9.5
		C14,9.775,13.776,10,13.5,10L13.5,10z"/>
	<path fill="#263238" d="M13.5,12h-8C5.224,12,5,11.775,5,11.5C5,11.224,5.224,11,5.5,11h8c0.276,0,0.5,0.224,0.5,0.5
		C14,11.775,13.776,12,13.5,12L13.5,12z"/>
	<path fill="#263238" d="M9.5,10h-3C6.224,10,6,9.775,6,9.5C6,9.224,6.224,9,6.5,9h3C9.776,9,10,9.224,10,9.5
		C10,9.775,9.776,10,9.5,10L9.5,10z"/>
	<path fill="#263238" d="M13.5,16h-3c-0.276,0-0.5-0.225-0.5-0.5c0-0.276,0.224-0.5,0.5-0.5h3c0.276,0,0.5,0.224,0.5,0.5
		C14,15.775,13.776,16,13.5,16L13.5,16z"/>
</g>
</svg>
