<?xml version="1.0" encoding="utf-8"?>
<!-- Generator: Adobe Illustrator 16.0.0, SVG Export Plug-In . SVG Version: 6.00 Build 0)  -->
<!DOCTYPE svg PUBLIC "-//W3C//DTD SVG 1.1//EN" "http://www.w3.org/Graphics/SVG/1.1/DTD/svg11.dtd">
<svg version="1.1" id="Layer_1" xmlns="http://www.w3.org/2000/svg" xmlns:xlink="http://www.w3.org/1999/xlink" x="0px" y="0px"
	 width="32px" height="32px" viewBox="0 0 32 32" enable-background="new 0 0 32 32" xml:space="preserve">
<g id="brainstorm">
	<g id="brainstorm_1_">
		<g>
			<path fill="#263238" d="M16.444,26.182c0-0.843,0.283-1.662,0.793-2.325c-0.793-0.709-0.793-1.982-0.793-2.799
				c0-0.76,0-1.837,0.571-2.563c-0.571-0.725-0.571-1.803-0.571-2.563s0-1.837,0.571-2.562c-0.571-0.725-0.571-1.803-0.571-2.563
				c0-0.794,0-1.927,0.644-2.649c-0.418-0.563-0.644-1.243-0.644-1.962c0-1.823,1.483-3.306,3.308-3.306
				c1.358,0,2.581,0.854,3.074,2.089c0.169-0.026,0.341-0.04,0.513-0.04c1.734,0,3.16,1.342,3.295,3.043
				c1.373,0.515,2.317,1.862,2.317,3.338c0,0.455-0.088,0.904-0.258,1.325c1.082,0.48,1.795,1.547,1.795,2.775
				c0,0.718-0.249,1.398-0.696,1.938C30.558,18.028,31,18.99,31,20.032c0,1.007-0.428,1.971-1.174,2.646
				c-0.108,0.098-0.245,0.14-0.382,0.126c0.164,0.385,0.276,0.906,0.276,1.328c0,1.716-1.351,3.16-3.044,3.296
				c-0.515,1.381-1.838,2.316-3.338,2.316c-0.429,0-0.844-0.074-1.237-0.219l-0.09,0.046C21.468,29.852,20.863,30,20.264,30
				C18.157,30,16.444,28.287,16.444,26.182z M22.283,28.519c0.33,0.149,0.686,0.225,1.056,0.225c1.172,0,2.192-0.792,2.483-1.927
				c0.057-0.221,0.256-0.376,0.484-0.376h0.001l0.125,0c0.016-0.002,0.031-0.003,0.048-0.004c1.235-0.035,2.24-1.069,2.24-2.305
				c0-0.378-0.137-0.864-0.26-1.063c-0.104-0.169-0.323-0.375-0.398-0.44c-0.209-0.18-0.232-0.496-0.053-0.705
				c0.178-0.208,0.494-0.235,0.704-0.054c0.023,0.02,0.153,0.133,0.299,0.29c0.025-0.084,0.073-0.162,0.144-0.226
				C29.692,21.45,30,20.756,30,20.032c0-0.902-0.462-1.721-1.236-2.191c-0.14-0.085-0.229-0.233-0.239-0.396
				c-0.01-0.164,0.061-0.322,0.188-0.423c0.493-0.39,0.775-0.974,0.775-1.601c0-0.968-0.662-1.788-1.609-1.994
				c-0.158-0.035-0.291-0.145-0.354-0.294c-0.063-0.15-0.05-0.321,0.036-0.459c0.256-0.41,0.391-0.878,0.391-1.353
				c0-1.104-0.735-2.109-1.8-2.447l-0.173-0.06c-0.201-0.07-0.334-0.354-0.334-0.567c0-1.272-1.034-2.307-2.306-2.307
				c-0.237,0-0.472,0.037-0.699,0.109c-0.134,0.042-0.278,0.026-0.399-0.042c-0.122-0.069-0.208-0.187-0.239-0.323
				c-0.236-1.039-1.183-1.792-2.249-1.792c-1.272,0-2.308,1.035-2.308,2.306c0,0.633,0.25,1.223,0.705,1.66
				c0.113,0.109,0.169,0.266,0.149,0.422c-0.02,0.157-0.111,0.295-0.248,0.373c-0.606,0.345-0.606,1.392-0.606,2.157
				c0,0.75,0,1.778,0.574,2.139c0.146,0.091,0.234,0.251,0.234,0.423s-0.089,0.332-0.234,0.423
				c-0.574,0.361-0.574,1.388-0.574,2.139s0,1.778,0.574,2.139c0.146,0.091,0.234,0.251,0.234,0.423s-0.088,0.332-0.234,0.423
				c-0.574,0.361-0.574,1.389-0.574,2.139c0,1.063,0.056,1.963,0.743,2.221c0.162,0.061,0.281,0.202,0.314,0.372
				c0.034,0.17-0.023,0.345-0.15,0.463c-0.576,0.533-0.907,1.287-0.907,2.068c0,1.554,1.265,2.818,2.819,2.818
				c0.44,0,0.887-0.11,1.289-0.317l0.295-0.152c0.072-0.037,0.15-0.056,0.229-0.056C22.147,28.475,22.218,28.489,22.283,28.519z"/>
			<g>
				<path fill="#263238" d="M26.347,26.459c0.044-0.013,0.088-0.021,0.134-0.022c1.235-0.035,2.24-1.069,2.24-2.305
					c0-0.377-0.095-0.754-0.274-1.089c-0.089-0.166-0.077-0.368,0.03-0.522l0.086-0.123c0.042-0.06,0.097-0.11,0.16-0.147
					C29.511,21.796,30,20.946,30,20.032c0-0.902-0.462-1.721-1.19-2.166c-0.496-0.235-1.013-0.374-1.417-0.381
					c-0.275-0.005-0.495-0.233-0.49-0.51c0.005-0.272,0.229-0.49,0.5-0.49c0.003,0,0.006,0,0.01,0
					c0.739,0.014,1.461,0.305,1.871,0.502C30.358,17.639,31,18.777,31,20.032c0,1.161-0.568,2.248-1.503,2.909
					c0.147,0.38,0.224,0.785,0.224,1.191c0,1.756-1.414,3.227-3.162,3.303c-0.025,0.004-0.051,0.006-0.075,0.006
					c-0.213,0-0.407-0.14-0.474-0.355C25.929,26.822,26.083,26.541,26.347,26.459z"/>
				<path fill="#263238" d="M25.898,9.788c-0.091,0-0.183-0.024-0.265-0.076c-0.234-0.146-0.306-0.455-0.159-0.689
					c0.076-0.123,0.17-0.504,0.17-0.776c0-1.067-1.007-2.307-2.306-2.307c-0.276,0-0.5-0.224-0.5-0.5s0.224-0.5,0.5-0.5
					c1.73,0,3.306,1.576,3.306,3.307c0,0.383-0.113,0.971-0.322,1.306C26.228,9.705,26.064,9.788,25.898,9.788z"/>
				<path fill="#263238" d="M27.483,14.041c-0.08,0.047-0.168,0.07-0.255,0.07c-0.171,0-0.337-0.087-0.431-0.246
					c-0.141-0.237-0.062-0.544,0.176-0.685c0.148-0.088,0.515-0.412,0.587-0.506c0.256-0.41,0.391-0.878,0.391-1.353
					c0-0.276,0.224-0.5,0.5-0.5s0.5,0.224,0.5,0.5c0,0.662-0.188,1.313-0.565,1.917C28.194,13.493,27.722,13.9,27.483,14.041z"/>
				<path fill="#263238" d="M19.541,19.884c0.006,0.272,0.23,0.492,0.5,0.492c0.002,0,0.01,0,0.011,0
					c0.62-0.01,1.193-0.267,1.615-0.722c0.316-0.344,0.514-0.773,0.572-1.245c0.012-0.021,0.023-0.042,0.026-0.053
					c0.048-0.104,0.126-0.223,0.222-0.327c0.335-0.361,0.878-0.495,1.344-0.327c0.185,0.066,0.402,0.012,0.536-0.131
					c0.045-0.048,0.08-0.105,0.104-0.169c0.045-0.126,0.039-0.263-0.019-0.384s-0.158-0.212-0.284-0.257
					c-0.723-0.258-1.555-0.12-2.153,0.349c-0.119-0.242-0.277-0.454-0.473-0.635c-0.232-0.214-0.5-0.374-0.797-0.475
					c-0.25-0.087-0.547,0.055-0.634,0.311c-0.044,0.125-0.035,0.261,0.023,0.381s0.16,0.21,0.287,0.253
					c0.163,0.056,0.313,0.146,0.442,0.265c0.244,0.226,0.386,0.534,0.399,0.868c0.013,0.334-0.104,0.653-0.331,0.897
					c-0.235,0.253-0.555,0.396-0.899,0.401C19.758,19.38,19.537,19.608,19.541,19.884z M20.041,20.126v-0.002l0,0V20.126z"/>
				<path fill="#263238" d="M23.254,23.036c-0.615-0.087-1.152-0.413-1.514-0.917c-0.078-0.109-0.109-0.241-0.088-0.374
					c0.021-0.132,0.094-0.247,0.203-0.326c0.213-0.153,0.54-0.101,0.696,0.115c0.201,0.281,0.501,0.462,0.843,0.511
					c0.69,0.095,1.316-0.394,1.41-1.064c0.025-0.174,0.014-0.347-0.033-0.513c-0.037-0.129-0.021-0.264,0.044-0.381
					s0.172-0.201,0.3-0.237c0.258-0.077,0.548,0.086,0.617,0.343c0.086,0.299,0.107,0.611,0.063,0.926
					c-0.037,0.263-0.122,0.515-0.252,0.75c0.734,0.225,1.312,0.813,1.515,1.573c0.069,0.267-0.089,0.541-0.353,0.611
					c-0.042,0.012-0.086,0.018-0.13,0.018c-0.011,0-0.059-0.004-0.07-0.005c-0.2-0.028-0.362-0.172-0.413-0.365
					c-0.131-0.487-0.538-0.847-1.036-0.917c-0.138-0.02-0.277-0.018-0.422,0.012c-0.007,0.001-0.021,0.002-0.037,0.003
					C24.183,23.016,23.726,23.102,23.254,23.036z"/>
				<path fill="#263238" d="M20.546,23.781c0.122,0.054,0.216,0.152,0.265,0.276c0.049,0.125,0.046,0.261-0.009,0.383
					c-0.135,0.305-0.143,0.644-0.021,0.956c0.12,0.312,0.354,0.558,0.66,0.692c0.306,0.135,0.649,0.142,0.956,0.023
					c0.313-0.121,0.558-0.355,0.691-0.662c0.109-0.244,0.411-0.362,0.659-0.255c0.252,0.11,0.367,0.406,0.257,0.66
					c-0.244,0.551-0.687,0.973-1.246,1.189c-0.262,0.102-0.535,0.153-0.813,0.153c-0.313,0-0.619-0.065-0.909-0.193
					c-0.55-0.242-0.972-0.684-1.189-1.245c-0.217-0.56-0.202-1.17,0.041-1.721C19.995,23.792,20.307,23.675,20.546,23.781z"/>
				<path fill="#263238" d="M23.26,12.564c-0.182-0.083-0.381-0.093-0.576-0.021c-0.251,0.087-0.545-0.047-0.64-0.299
					c-0.093-0.258,0.04-0.545,0.298-0.641c0.436-0.159,0.916-0.14,1.338,0.055c0.101,0.046,0.196,0.102,0.285,0.166
					c0.315-0.505,0.875-0.827,1.48-0.827c0.275,0,0.5,0.224,0.5,0.5s-0.225,0.5-0.5,0.5c-0.25,0-0.51,0.119-0.661,0.303
					c-0.103,0.124-0.141,0.259-0.113,0.399c0.19,0.977-0.271,1.878-1.125,2.192c-0.056,0.02-0.112,0.029-0.169,0.029
					c-0.207,0-0.396-0.131-0.47-0.327c-0.096-0.259,0.037-0.547,0.297-0.643c0.188-0.069,0.337-0.207,0.422-0.389
					c0.084-0.182,0.092-0.386,0.023-0.573C23.58,12.798,23.442,12.648,23.26,12.564z"/>
				<path fill="#263238" d="M22.993,8.712c-0.383,0.466-0.947,0.733-1.548,0.733c-0.006,0-0.013,0-0.019,0
					c0.013,0.085,0.019,0.168,0.019,0.25c0,0.535-0.208,1.037-0.586,1.415c-0.095,0.094-0.22,0.146-0.354,0.146
					s-0.259-0.052-0.354-0.146c-0.195-0.195-0.195-0.512,0-0.707c0.188-0.189,0.293-0.44,0.293-0.708
					c0-0.282-0.12-0.553-0.329-0.742c-0.034-0.031-0.058-0.063-0.075-0.089c-0.385-0.38-0.596-0.882-0.596-1.418
					c0-0.437,0.139-0.853,0.4-1.201c0.161-0.212,0.49-0.257,0.699-0.1c0.107,0.08,0.177,0.197,0.195,0.329
					c0.02,0.132-0.015,0.264-0.095,0.371c-0.131,0.174-0.2,0.381-0.2,0.601c0,0.551,0.448,1,1,1c0.301,0,0.583-0.134,0.774-0.367
					c0.166-0.204,0.491-0.242,0.705-0.069C23.136,8.184,23.167,8.499,22.993,8.712z"/>
			</g>
		</g>
	</g>
	<g id="brainstorm_3_">
		<g>
			<g>
				<path fill="#263238" d="M5.698,26.459c-0.044-0.013-0.088-0.021-0.134-0.022c-1.235-0.035-2.24-1.069-2.24-2.305
					c0-0.112,0.025-0.222,0.041-0.332c0.058-0.213,0.107-0.402,0.149-0.54c0.027-0.067,0.044-0.137,0.078-0.202
					c0.106-0.167,0.316-0.366,0.39-0.429c0.209-0.18,0.232-0.496,0.053-0.705c-0.178-0.208-0.494-0.235-0.704-0.054
					c-0.019,0.016-0.113,0.103-0.224,0.214c-0.652-0.478-1.063-1.231-1.063-2.053c0-0.902,0.462-1.721,1.19-2.166
					c0.496-0.235,1.013-0.374,1.417-0.381c0.275-0.005,0.495-0.233,0.49-0.51c-0.005-0.272-0.229-0.49-0.5-0.49
					c-0.003,0-0.006,0-0.01,0c-0.739,0.014-1.461,0.305-1.871,0.502c-1.075,0.652-1.717,1.791-1.717,3.045
					c0,1.161,0.568,2.248,1.503,2.909c-0.147,0.38-0.224,0.785-0.224,1.191c0,1.756,1.414,3.227,3.162,3.303
					c0.025,0.004,0.051,0.006,0.075,0.006c0.213,0,0.407-0.14,0.474-0.355C6.116,26.822,5.962,26.541,5.698,26.459z"/>
				<path fill="#263238" d="M6.146,9.788c0.091,0,0.183-0.024,0.265-0.076C6.646,9.565,6.717,9.257,6.57,9.022
					C6.494,8.9,6.4,8.518,6.4,8.247C6.4,7.18,7.407,5.94,8.706,5.94c0.276,0,0.5-0.224,0.5-0.5s-0.224-0.5-0.5-0.5
					C6.976,4.94,5.4,6.516,5.4,8.247c0,0.383,0.113,0.971,0.322,1.306C5.817,9.705,5.98,9.788,6.146,9.788z"/>
				<path fill="#263238" d="M4.562,14.041c0.08,0.047,0.168,0.07,0.255,0.07c0.171,0,0.337-0.087,0.431-0.246
					c0.141-0.237,0.062-0.544-0.176-0.685c-0.148-0.088-0.515-0.412-0.587-0.506c-0.256-0.41-0.391-0.878-0.391-1.353
					c0-0.276-0.224-0.5-0.5-0.5s-0.5,0.224-0.5,0.5c0,0.662,0.188,1.313,0.565,1.917C3.851,13.493,4.323,13.9,4.562,14.041z"/>
				<path fill="#263238" d="M12.012,19.376c-0.345-0.006-0.664-0.148-0.899-0.401c-0.227-0.245-0.344-0.563-0.331-0.897
					c0.014-0.334,0.155-0.643,0.399-0.868c0.13-0.12,0.279-0.209,0.442-0.265c0.127-0.043,0.229-0.133,0.287-0.253
					s0.067-0.255,0.023-0.381c-0.087-0.256-0.384-0.398-0.634-0.311c-0.297,0.102-0.564,0.261-0.797,0.475
					c-0.195,0.181-0.354,0.394-0.473,0.635C9.432,16.64,8.6,16.502,7.877,16.76c-0.126,0.045-0.227,0.136-0.284,0.257
					s-0.063,0.257-0.019,0.384c0.023,0.064,0.059,0.122,0.104,0.169c0.134,0.143,0.352,0.197,0.536,0.131
					c0.466-0.168,1.009-0.034,1.344,0.327c0.096,0.104,0.174,0.223,0.222,0.327c0.003,0.011,0.015,0.032,0.026,0.053
					c0.059,0.472,0.256,0.901,0.572,1.245c0.422,0.455,0.995,0.712,1.615,0.722c0.001,0,0.009,0,0.011,0
					c0.27,0,0.494-0.22,0.5-0.492C12.508,19.608,12.287,19.38,12.012,19.376z M12.004,20.124L12.004,20.124v0.002V20.124z"/>
				<path fill="#263238" d="M8.791,23.036c0.615-0.087,1.152-0.413,1.514-0.917c0.078-0.109,0.109-0.241,0.088-0.374
					c-0.021-0.132-0.094-0.247-0.203-0.326c-0.213-0.153-0.54-0.101-0.696,0.115c-0.201,0.281-0.501,0.462-0.843,0.511
					c-0.69,0.095-1.316-0.394-1.41-1.064c-0.025-0.174-0.014-0.347,0.033-0.513c0.037-0.129,0.021-0.264-0.044-0.381
					s-0.172-0.201-0.3-0.237c-0.258-0.077-0.548,0.086-0.617,0.343c-0.086,0.299-0.107,0.611-0.063,0.926
					c0.037,0.263,0.122,0.515,0.252,0.75c-0.734,0.225-1.312,0.813-1.515,1.573c-0.069,0.267,0.089,0.541,0.353,0.611
					c0.042,0.012,0.086,0.018,0.13,0.018c0.011,0,0.059-0.004,0.07-0.005c0.2-0.028,0.362-0.172,0.413-0.365
					c0.131-0.487,0.538-0.847,1.036-0.917c0.138-0.02,0.277-0.018,0.422,0.012c0.007,0.001,0.021,0.002,0.037,0.003
					C7.862,23.016,8.319,23.102,8.791,23.036z"/>
				<path fill="#263238" d="M11.499,23.781c-0.122,0.054-0.216,0.152-0.265,0.276c-0.049,0.125-0.046,0.261,0.009,0.383
					c0.135,0.305,0.143,0.644,0.021,0.956c-0.12,0.312-0.354,0.558-0.66,0.692c-0.306,0.135-0.649,0.142-0.956,0.023
					c-0.313-0.121-0.558-0.355-0.691-0.662c-0.109-0.244-0.411-0.362-0.659-0.255c-0.252,0.11-0.367,0.406-0.257,0.66
					c0.244,0.551,0.687,0.973,1.246,1.189c0.262,0.102,0.535,0.153,0.813,0.153c0.313,0,0.619-0.065,0.909-0.193
					c0.55-0.242,0.972-0.684,1.189-1.245c0.217-0.56,0.202-1.17-0.041-1.721C12.05,23.792,11.738,23.675,11.499,23.781z"/>
				<path fill="#263238" d="M8.785,12.564c0.182-0.083,0.381-0.093,0.576-0.021c0.251,0.087,0.545-0.047,0.64-0.299
					c0.093-0.258-0.04-0.545-0.298-0.641c-0.436-0.159-0.916-0.14-1.338,0.055c-0.101,0.046-0.196,0.102-0.285,0.166
					c-0.315-0.505-0.875-0.827-1.48-0.827c-0.275,0-0.5,0.224-0.5,0.5s0.225,0.5,0.5,0.5c0.25,0,0.51,0.119,0.661,0.303
					c0.103,0.124,0.141,0.259,0.113,0.399c-0.19,0.977,0.271,1.878,1.125,2.192c0.056,0.02,0.112,0.029,0.169,0.029
					c0.207,0,0.396-0.131,0.47-0.327c0.096-0.259-0.037-0.547-0.297-0.643c-0.188-0.069-0.337-0.207-0.422-0.389
					c-0.084-0.182-0.092-0.386-0.023-0.573C8.465,12.798,8.603,12.648,8.785,12.564z"/>
				<path fill="#263238" d="M9.052,8.712C9.435,9.178,9.999,9.445,10.6,9.445c0.006,0,0.013,0,0.019,0
					C10.605,9.531,10.6,9.614,10.6,9.695c0,0.535,0.208,1.037,0.586,1.415c0.095,0.094,0.22,0.146,0.354,0.146
					s0.259-0.052,0.354-0.146c0.195-0.195,0.195-0.512,0-0.707c-0.188-0.189-0.293-0.44-0.293-0.708c0-0.282,0.12-0.553,0.329-0.742
					c0.034-0.031,0.058-0.063,0.075-0.089c0.385-0.38,0.596-0.882,0.596-1.418c0-0.437-0.139-0.853-0.4-1.201
					c-0.161-0.212-0.49-0.257-0.699-0.1c-0.107,0.08-0.177,0.197-0.195,0.329c-0.02,0.132,0.015,0.264,0.095,0.371
					c0.131,0.174,0.2,0.381,0.2,0.601c0,0.551-0.448,1-1,1c-0.301,0-0.583-0.134-0.774-0.367C9.659,7.874,9.334,7.836,9.12,8.009
					C8.909,8.184,8.878,8.499,9.052,8.712z"/>
			</g>
			<path fill="#263238" d="M5.899,8.793c-0.269,0-0.488-0.168-0.497-0.438C5.402,8.35,5.4,8.251,5.4,8.247
				c0-1.823,1.483-3.307,3.306-3.307c0.34,0,0.677,0.052,1.002,0.156c0.264,0.084,0.409,0.365,0.325,0.628
				C9.95,5.987,9.667,6.134,9.405,6.049C9.178,5.977,8.943,5.94,8.706,5.94C7.435,5.94,6.4,6.975,6.4,8.247
				c0,0.273-0.218,0.542-0.491,0.546C5.905,8.793,5.902,8.793,5.899,8.793z"/>
			<path fill="#263238" d="M11.781,30c-0.6,0-1.204-0.148-1.748-0.429l-0.09-0.046c-0.394,0.145-0.809,0.219-1.237,0.219
				c-1.5,0-2.823-0.935-3.338-2.316c-1.693-0.136-3.044-1.58-3.044-3.296c0-0.366,0.084-0.806,0.214-1.167
				c-0.537-0.45-1.493-1.458-1.493-2.933c0-1.059,0.433-2.005,1.207-2.675c-0.447-0.54-0.695-1.219-0.695-1.937
				c0-1.228,0.713-2.295,1.795-2.775c-0.17-0.421-0.258-0.87-0.258-1.325c0-0.817,0.288-1.619,0.811-2.257
				c0.175-0.213,0.49-0.244,0.703-0.07c0.214,0.175,0.245,0.49,0.07,0.704c-0.377,0.46-0.584,1.037-0.584,1.624
				c0,0.475,0.135,0.943,0.391,1.353c0.086,0.138,0.099,0.309,0.036,0.459c-0.063,0.149-0.196,0.259-0.354,0.294
				c-0.947,0.206-1.609,1.025-1.609,1.994c0,0.627,0.282,1.211,0.775,1.601c0.128,0.102,0.198,0.26,0.188,0.423
				c-0.01,0.163-0.1,0.311-0.239,0.396c-0.798,0.484-1.236,1.262-1.236,2.191c0,1.462,1.366,2.344,1.381,2.352
				c0.231,0.146,0.302,0.452,0.158,0.686c-0.123,0.199-0.26,0.684-0.26,1.063c0,1.236,1.005,2.271,2.24,2.305
				c0.017,0,0.032,0.002,0.048,0.004l0.125,0h0.001c0.229,0,0.428,0.155,0.484,0.376c0.291,1.135,1.312,1.927,2.483,1.927
				c0.37,0,0.726-0.076,1.056-0.225c0.14-0.063,0.3-0.059,0.436,0.011l0.295,0.152C10.895,28.89,11.341,29,11.781,29
				c1.555,0,2.819-1.264,2.819-2.818c0-0.781-0.331-1.535-0.907-2.068c-0.127-0.118-0.185-0.293-0.15-0.463
				c0.033-0.17,0.152-0.311,0.314-0.372c0.688-0.258,0.743-1.158,0.743-2.221c0-0.75,0-1.778-0.574-2.139
				c-0.146-0.092-0.234-0.251-0.234-0.423s0.089-0.332,0.234-0.423c0.574-0.361,0.574-1.389,0.574-2.139s0-1.778-0.574-2.139
				c-0.146-0.091-0.234-0.251-0.234-0.423s0.089-0.332,0.234-0.423c0.574-0.361,0.574-1.389,0.574-2.139
				c0-0.765,0-1.812-0.606-2.157c-0.137-0.078-0.229-0.216-0.248-0.373c-0.02-0.156,0.036-0.313,0.149-0.422
				c0.455-0.437,0.705-1.026,0.705-1.66c0-1.271-1.035-2.306-2.308-2.306c-0.485,0-0.948,0.149-1.341,0.432
				c-0.224,0.16-0.536,0.11-0.697-0.114c-0.162-0.224-0.111-0.536,0.113-0.698c0.563-0.406,1.229-0.62,1.925-0.62
				c1.824,0,3.308,1.483,3.308,3.306c0,0.719-0.226,1.399-0.644,1.962c0.644,0.722,0.644,1.854,0.644,2.649
				c0,0.76,0,1.837-0.571,2.563c0.571,0.725,0.571,1.802,0.571,2.562s0,1.837-0.571,2.563c0.571,0.726,0.571,1.803,0.571,2.563
				c0,0.817,0,2.09-0.793,2.799c0.51,0.663,0.793,1.482,0.793,2.325C15.601,28.287,13.888,30,11.781,30z"/>
		</g>
	</g>
</g>
</svg>
