<?xml version="1.0" encoding="utf-8"?>
<!-- Generator: Adobe Illustrator 16.0.0, SVG Export Plug-In . SVG Version: 6.00 Build 0)  -->
<!DOCTYPE svg PUBLIC "-//W3C//DTD SVG 1.1//EN" "http://www.w3.org/Graphics/SVG/1.1/DTD/svg11.dtd">
<svg version="1.1" id="Layer_1" xmlns="http://www.w3.org/2000/svg" xmlns:xlink="http://www.w3.org/1999/xlink" x="0px" y="0px"
	 width="32px" height="32px" viewBox="0 0 32 32" enable-background="new 0 0 32 32" xml:space="preserve">
<g id="Bubble_x2C__chat_x2C__chat_bubble_x2C__communication_x2C__message_x2C__feedback_1_">
	<g>
		<g id="chat_2_">
			<g>
				<g>
					<path fill="#263238" d="M20.5,26h-4c-0.276,0-0.5-0.224-0.5-0.5s0.224-0.5,0.5-0.5h4c0.275,0,0.5-0.225,0.5-0.5v-3
						c0-0.276,0.224-0.5,0.5-0.5s0.5,0.224,0.5,0.5v3C22,25.327,21.327,26,20.5,26z"/>
					<path fill="#263238" d="M9.5,31c-0.083,0-0.165-0.021-0.24-0.062C9.1,30.851,9,30.683,9,30.5V29H4.5C4.224,29,4,28.776,4,28.5
						S4.224,28,4.5,28h5c0.276,0,0.5,0.224,0.5,0.5v1.089L14.068,27L10,24.411V25.5c0,0.276-0.224,0.5-0.5,0.5h-7
						C1.673,26,1,25.327,1,24.5v-11C1,12.673,1.673,12,2.5,12H4V8.5c0-0.215,0.138-0.406,0.342-0.475
						C4.546,7.96,4.771,8.027,4.9,8.2L7.75,12H8.5C8.776,12,9,12.224,9,12.5S8.776,13,8.5,13h-1c-0.157,0-0.306-0.074-0.4-0.2L5,10
						v2.5C5,12.776,4.776,13,4.5,13h-2C2.225,13,2,13.225,2,13.5v11C2,24.775,2.225,25,2.5,25H9v-1.5c0-0.183,0.1-0.351,0.26-0.438
						c0.16-0.087,0.354-0.08,0.509,0.017l5.5,3.5C15.413,26.67,15.5,26.829,15.5,27s-0.087,0.33-0.231,0.422l-5.5,3.5
						C9.687,30.974,9.594,31,9.5,31z"/>
				</g>
				<g>
					<path fill="#263238" d="M27.5,24c-0.154,0-0.304-0.071-0.4-0.2L24.25,20H11.5c-0.827,0-1.5-0.673-1.5-1.5v-11
						C10,6.673,10.673,6,11.5,6h4C15.776,6,16,6.224,16,6.5S15.776,7,15.5,7h-4C11.225,7,11,7.225,11,7.5v11
						c0,0.275,0.225,0.5,0.5,0.5h13c0.157,0,0.306,0.074,0.4,0.2L27,22v-2.5c0-0.276,0.224-0.5,0.5-0.5h2c0.275,0,0.5-0.225,0.5-0.5
						v-6c0-0.276,0.224-0.5,0.5-0.5s0.5,0.224,0.5,0.5v6c0,0.827-0.673,1.5-1.5,1.5H28v3.5c0,0.215-0.138,0.406-0.342,0.475
						C27.606,23.991,27.553,24,27.5,24z"/>
					<path fill="#263238" d="M27.5,24c-0.154,0-0.304-0.071-0.4-0.2L24.25,20H22.5c-0.276,0-0.5-0.224-0.5-0.5s0.224-0.5,0.5-0.5h2
						c0.157,0,0.306,0.074,0.4,0.2L27,22v-2.5c0-0.276,0.224-0.5,0.5-0.5h2c0.275,0,0.5-0.225,0.5-0.5v-11C30,7.225,29.775,7,29.5,7
						H23v1.5c0,0.183-0.1,0.351-0.26,0.438s-0.354,0.081-0.509-0.017l-5.5-3.5C16.587,5.33,16.5,5.171,16.5,5
						s0.087-0.33,0.231-0.422l5.5-3.5c0.154-0.098,0.349-0.104,0.509-0.017S23,1.317,23,1.5V3h4.5C27.776,3,28,3.224,28,3.5
						S27.776,4,27.5,4h-5C22.224,4,22,3.776,22,3.5V2.411L17.932,5L22,7.589V6.5C22,6.224,22.224,6,22.5,6h7
						C30.327,6,31,6.673,31,7.5v11c0,0.827-0.673,1.5-1.5,1.5H28v3.5c0,0.215-0.138,0.406-0.342,0.475
						C27.606,23.991,27.553,24,27.5,24z"/>
				</g>
			</g>
		</g>
		<circle fill="#263238" cx="2.5" cy="28.5" r="0.5"/>
		<circle fill="#263238" cx="29.5" cy="3.5" r="0.5"/>
	</g>
	<g>
		<path fill="#263238" d="M18.5,14L18.5,14c0.276,0,0.5-0.224,0.5-0.5S18.776,13,18.5,13l0,0c-0.276,0-0.5,0.224-0.5,0.5
			S18.224,14,18.5,14z"/>
	</g>
	<g>
		<path fill="#263238" d="M20.5,14L20.5,14c0.276,0,0.5-0.224,0.5-0.5S20.776,13,20.5,13l0,0c-0.276,0-0.5,0.224-0.5,0.5
			S20.224,14,20.5,14z"/>
	</g>
	<g>
		<path fill="#263238" d="M22.5,14L22.5,14c0.276,0,0.5-0.224,0.5-0.5S22.776,13,22.5,13l0,0c-0.276,0-0.5,0.224-0.5,0.5
			S22.224,14,22.5,14z"/>
	</g>
</g>
</svg>
