<?xml version="1.0" encoding="utf-8"?>
<!-- Generator: Adobe Illustrator 16.0.0, SVG Export Plug-In . SVG Version: 6.00 Build 0)  -->
<!DOCTYPE svg PUBLIC "-//W3C//DTD SVG 1.1//EN" "http://www.w3.org/Graphics/SVG/1.1/DTD/svg11.dtd">
<svg version="1.1" xmlns="http://www.w3.org/2000/svg" xmlns:xlink="http://www.w3.org/1999/xlink" x="0px" y="0px" width="32px"
	 height="32px" viewBox="0 0 32 32" enable-background="new 0 0 32 32" xml:space="preserve">
<g id="certificate">
	<g id="file_1_">
		<g>
			<path fill="#263238" d="M26.5,31h-21C5.224,31,5,30.776,5,30.5v-23C5,7.224,5.224,7,5.5,7S6,7.224,6,7.5V30h20v-6.5
				c0-0.276,0.224-0.5,0.5-0.5s0.5,0.224,0.5,0.5v7C27,30.776,26.776,31,26.5,31z"/>
			<path fill="#263238" d="M26.5,13c-0.276,0-0.5-0.224-0.5-0.5V2H11.5C11.224,2,11,1.776,11,1.5S11.224,1,11.5,1h15
				C26.776,1,27,1.224,27,1.5v11C27,12.776,26.776,13,26.5,13z"/>
		</g>
	</g>
	<g>
		<g>
			<path fill="#263238" d="M11.5,13h-3C8.224,13,8,12.775,8,12.5C8,12.224,8.224,12,8.5,12h3c0.276,0,0.5,0.224,0.5,0.5
				C12,12.775,11.776,13,11.5,13L11.5,13z"/>
			<path fill="#263238" d="M18.5,11h-3c-0.276,0-0.5-0.225-0.5-0.5c0-0.276,0.224-0.5,0.5-0.5h3c0.276,0,0.5,0.224,0.5,0.5
				C19,10.775,18.776,11,18.5,11L18.5,11z"/>
			<path fill="#263238" d="M23.5,11h-3c-0.276,0-0.5-0.225-0.5-0.5c0-0.276,0.224-0.5,0.5-0.5h3c0.276,0,0.5,0.224,0.5,0.5
				C24,10.775,23.776,11,23.5,11L23.5,11z"/>
			<path fill="#263238" d="M13.5,11h-5C8.224,11,8,10.775,8,10.5C8,10.224,8.224,10,8.5,10h5c0.276,0,0.5,0.224,0.5,0.5
				C14,10.775,13.776,11,13.5,11L13.5,11z"/>
		</g>
		<path fill="#263238" d="M18.5,6h-4C14.224,6,14,5.775,14,5.5C14,5.224,14.224,5,14.5,5h4C18.776,5,19,5.224,19,5.5
			C19,5.775,18.776,6,18.5,6L18.5,6z"/>
		<g>
			<path fill="#263238" d="M23,22.012v5.102l-1.722-1.041c-0.157-0.095-0.355-0.096-0.515-0.002L19,27.12v-5.108
				c-0.354-0.177-0.678-0.396-0.971-0.655C18.015,21.402,18,21.449,18,21.5V28c0,0.18,0.097,0.346,0.253,0.435
				c0.076,0.044,0.162,0.065,0.247,0.065c0.089,0,0.177-0.023,0.256-0.07l2.262-1.347l2.224,1.345
				c0.153,0.093,0.347,0.096,0.504,0.008C23.902,28.347,24,28.181,24,28v-6.5c0-0.051-0.015-0.098-0.029-0.144
				C23.678,21.615,23.354,21.835,23,22.012z"/>
			<path fill="#263238" d="M21,23c-2.757,0-5-2.243-5-5s2.243-5,5-5s5,2.243,5,5S23.757,23,21,23z M21,14c-2.206,0-4,1.794-4,4
				s1.794,4,4,4s4-1.794,4-4S23.206,14,21,14z"/>
			<path fill="#263238" d="M27.929,22.5c-0.085,0-0.171-0.021-0.25-0.067l-1.3-0.75c-0.239-0.138-0.321-0.443-0.183-0.683
				c0.137-0.239,0.441-0.322,0.683-0.183l1.3,0.75c0.239,0.138,0.321,0.443,0.183,0.683C28.27,22.41,28.102,22.5,27.929,22.5z"/>
			<path fill="#263238" d="M15.371,15.25c-0.085,0-0.171-0.021-0.25-0.067l-1.299-0.75c-0.239-0.138-0.321-0.443-0.183-0.683
				c0.137-0.239,0.444-0.32,0.683-0.183l1.299,0.75c0.239,0.138,0.321,0.443,0.183,0.683C15.712,15.16,15.543,15.25,15.371,15.25z"
				/>
			<path fill="#263238" d="M26.629,15.25c-0.172,0-0.341-0.09-0.433-0.25c-0.139-0.239-0.057-0.545,0.183-0.683l1.299-0.75
				c0.238-0.14,0.545-0.057,0.683,0.183c0.139,0.239,0.057,0.545-0.183,0.683l-1.299,0.75C26.8,15.229,26.714,15.25,26.629,15.25z"
				/>
			<path fill="#263238" d="M14.071,22.5c-0.172,0-0.341-0.09-0.433-0.25c-0.139-0.239-0.057-0.545,0.183-0.683l1.299-0.75
				c0.238-0.139,0.546-0.058,0.683,0.183c0.139,0.239,0.057,0.545-0.183,0.683l-1.299,0.75C14.242,22.479,14.156,22.5,14.071,22.5z"
				/>
			<path fill="#263238" d="M29,18.5h-1.5c-0.276,0-0.5-0.224-0.5-0.5s0.224-0.5,0.5-0.5H29c0.276,0,0.5,0.224,0.5,0.5
				S29.276,18.5,29,18.5z"/>
			<path fill="#263238" d="M14.5,18.5H13c-0.276,0-0.5-0.224-0.5-0.5s0.224-0.5,0.5-0.5h1.5c0.276,0,0.5,0.224,0.5,0.5
				S14.776,18.5,14.5,18.5z"/>
		</g>
	</g>
	<g>
		<path fill="#263238" d="M11.5,8H5.521C5.319,8,5.138,7.879,5.06,7.691C4.982,7.506,5.024,7.29,5.167,7.146l5.979-6
			c0.195-0.195,0.512-0.195,0.707,0c0.196,0.194,0.196,0.511,0.002,0.707L6.726,7H11V4c0-0.276,0.224-0.5,0.5-0.5S12,3.724,12,4v3.5
			C12,7.776,11.776,8,11.5,8z"/>
	</g>
</g>
</svg>
