<?xml version="1.0" encoding="utf-8"?>
<!-- Generator: Adobe Illustrator 16.0.0, SVG Export Plug-In . SVG Version: 6.00 Build 0)  -->
<!DOCTYPE svg PUBLIC "-//W3C//DTD SVG 1.1//EN" "http://www.w3.org/Graphics/SVG/1.1/DTD/svg11.dtd">
<svg version="1.1" xmlns="http://www.w3.org/2000/svg" xmlns:xlink="http://www.w3.org/1999/xlink" x="0px" y="0px" width="32px"
	 height="32px" viewBox="0 0 32 32" enable-background="new 0 0 32 32" xml:space="preserve">
<g id="check_mark">
	<g>
		<g id="XMLID_4146_">
			<path fill="#263238" d="M16,31C7.729,31,1,24.271,1,16S7.729,1,16,1c3.404,0,6.614,1.112,9.283,3.216
				c0.217,0.171,0.254,0.485,0.083,0.702c-0.171,0.218-0.485,0.255-0.702,0.083C22.174,3.038,19.178,2,16,2C8.28,2,2,8.28,2,16
				s6.28,14,14,14s14-6.28,14-14c0-1.714-0.306-3.387-0.91-4.974c-0.098-0.258,0.032-0.547,0.29-0.646
				c0.257-0.094,0.547,0.032,0.646,0.29C30.672,12.371,31,14.164,31,16C31,24.271,24.271,31,16,31z"/>
		</g>
		<g id="XMLID_4150_">
			<g id="XMLID_4151_">
				<path fill="#263238" d="M15,23h-0.006c-0.56-0.003-1.094-0.239-1.469-0.648l-5.499-6c-0.746-0.813-0.69-2.08,0.122-2.825
					c0.784-0.72,2.109-0.659,2.825,0.122l4.038,4.404L27.036,5.137c0.72-0.772,2.048-0.824,2.827-0.101
					c0.807,0.751,0.852,2.02,0.101,2.827l-13.5,14.5C16.088,22.768,15.554,23,15,23z M9.499,14c-0.25,0-0.49,0.094-0.675,0.263
					c-0.196,0.181-0.312,0.427-0.323,0.694c-0.012,0.267,0.082,0.522,0.262,0.719l5.5,6c0.188,0.205,0.455,0.323,0.733,0.324
					L15,22.5V22c0.277,0,0.544-0.116,0.731-0.318l13.5-14.5c0.376-0.403,0.354-1.038-0.05-1.413c-0.392-0.364-1.051-0.34-1.413,0.05
					L15.375,19.13c-0.096,0.102-0.231,0.185-0.368,0.159c-0.14-0.001-0.272-0.06-0.366-0.162l-4.403-4.803
					C10.045,14.115,9.783,14,9.499,14z"/>
			</g>
		</g>
	</g>
</g>
</svg>
