<?xml version="1.0" encoding="utf-8"?>
<!-- Generator: Adobe Illustrator 16.0.0, SVG Export Plug-In . SVG Version: 6.00 Build 0)  -->
<!DOCTYPE svg PUBLIC "-//W3C//DTD SVG 1.1//EN" "http://www.w3.org/Graphics/SVG/1.1/DTD/svg11.dtd">
<svg version="1.1" xmlns="http://www.w3.org/2000/svg" xmlns:xlink="http://www.w3.org/1999/xlink" x="0px" y="0px" width="32px"
	 height="32px" viewBox="0 0 32 32" enable-background="new 0 0 32 32" xml:space="preserve">
<g id="clipboard_x2C__file_x2C__document">
	<g>
		<g id="XMLID_4039_">
			<path fill="#263238" d="M10.5,23h-2C8.224,23,8,22.776,8,22.5v-2C8,20.224,8.224,20,8.5,20h2c0.276,0,0.5,0.224,0.5,0.5v2
				C11,22.776,10.776,23,10.5,23z M9,22h1v-1H9V22z"/>
		</g>
		<g id="XMLID_721_">
			<path fill="#263238" d="M9.5,13c-0.128,0-0.256-0.049-0.354-0.146l-1-1c-0.195-0.195-0.195-0.512,0-0.707s0.512-0.195,0.707,0
				L9.5,11.793l1.646-1.646c0.195-0.195,0.512-0.195,0.707,0s0.195,0.512,0,0.707l-2,2C9.756,12.951,9.628,13,9.5,13z"/>
		</g>
		<g id="XMLID_722_">
			<path fill="#263238" d="M9.5,18c-0.128,0-0.256-0.049-0.354-0.146l-1-1c-0.195-0.195-0.195-0.512,0-0.707s0.512-0.195,0.707,0
				L9.5,16.793l1.646-1.646c0.195-0.195,0.512-0.195,0.707,0s0.195,0.512,0,0.707l-2,2C9.756,17.951,9.628,18,9.5,18z"/>
		</g>
		<g id="XMLID_4014_">
			<path fill="#263238" d="M26.5,31h-21C4.673,31,4,30.327,4,29.5v-25C4,3.673,4.673,3,5.5,3h6C11.776,3,12,3.224,12,3.5
				S11.776,4,11.5,4h-6C5.224,4,5,4.225,5,4.5v25C5,29.775,5.224,30,5.5,30h21c0.276,0,0.5-0.225,0.5-0.5v-25
				C27,4.225,26.776,4,26.5,4h-6C20.224,4,20,3.776,20,3.5S20.224,3,20.5,3h6C27.327,3,28,3.673,28,4.5v25
				C28,30.327,27.327,31,26.5,31z"/>
		</g>
		<g id="XMLID_4016_">
			<path fill="#263238" d="M25.5,24c-0.276,0-0.5-0.224-0.5-0.5V6h-2.5C22.224,6,22,5.776,22,5.5S22.224,5,22.5,5h3
				C25.776,5,26,5.224,26,5.5v18C26,23.776,25.776,24,25.5,24z"/>
		</g>
		<g id="XMLID_4017_">
			<path fill="#263238" d="M20.5,29h-14C6.224,29,6,28.776,6,28.5v-23C6,5.224,6.224,5,6.5,5h3C9.776,5,10,5.224,10,5.5
				S9.776,6,9.5,6H7v22h13.5c0.276,0,0.5,0.224,0.5,0.5S20.776,29,20.5,29z"/>
		</g>
		<g id="XMLID_720_">
			<path fill="#263238" d="M20.5,29c-0.128,0-0.256-0.049-0.354-0.146c-0.195-0.195-0.195-0.512,0-0.707L24.293,24H21v2
				c0,0.276-0.224,0.5-0.5,0.5S20,26.276,20,26v-2.5c0-0.276,0.224-0.5,0.5-0.5h5c0.202,0,0.385,0.122,0.462,0.309
				c0.078,0.187,0.035,0.402-0.108,0.545l-5,5C20.756,28.951,20.628,29,20.5,29z"/>
		</g>
		<g id="XMLID_727_">
			<line fill="#F2F4F5" x1="19.5" y1="15.5" x2="22.5" y2="15.5"/>
			<path fill="#263238" d="M22.5,16h-3c-0.276,0-0.5-0.224-0.5-0.5s0.224-0.5,0.5-0.5h3c0.276,0,0.5,0.224,0.5,0.5
				S22.776,16,22.5,16z"/>
		</g>
		<g id="XMLID_726_">
			<line fill="#F2F4F5" x1="13.5" y1="15.5" x2="17.5" y2="15.5"/>
			<path fill="#263238" d="M17.5,16h-4c-0.276,0-0.5-0.224-0.5-0.5s0.224-0.5,0.5-0.5h4c0.276,0,0.5,0.224,0.5,0.5
				S17.776,16,17.5,16z"/>
		</g>
		<g id="XMLID_725_">
			<line fill="#F2F4F5" x1="13.5" y1="17.5" x2="20.5" y2="17.5"/>
			<path fill="#263238" d="M20.5,18h-7c-0.276,0-0.5-0.224-0.5-0.5s0.224-0.5,0.5-0.5h7c0.276,0,0.5,0.224,0.5,0.5
				S20.776,18,20.5,18z"/>
		</g>
		<g id="XMLID_724_">
			<line fill="#F2F4F5" x1="13.5" y1="12.5" x2="18.5" y2="12.5"/>
			<path fill="#263238" d="M18.5,13h-5c-0.276,0-0.5-0.224-0.5-0.5s0.224-0.5,0.5-0.5h5c0.276,0,0.5,0.224,0.5,0.5
				S18.776,13,18.5,13z"/>
		</g>
		<g id="XMLID_729_">
			<line fill="#F2F4F5" x1="13.5" y1="22.5" x2="17.5" y2="22.5"/>
			<path fill="#263238" d="M17.5,23h-4c-0.276,0-0.5-0.224-0.5-0.5s0.224-0.5,0.5-0.5h4c0.276,0,0.5,0.224,0.5,0.5
				S17.776,23,17.5,23z"/>
		</g>
		<g id="XMLID_728_">
			<line fill="#F2F4F5" x1="13.5" y1="20.5" x2="22.5" y2="20.5"/>
			<path fill="#263238" d="M22.5,21h-9c-0.276,0-0.5-0.224-0.5-0.5s0.224-0.5,0.5-0.5h9c0.276,0,0.5,0.224,0.5,0.5
				S22.776,21,22.5,21z"/>
		</g>
		<g id="XMLID_723_">
			<line fill="#F2F4F5" x1="13.5" y1="10.5" x2="22.5" y2="10.5"/>
			<path fill="#263238" d="M22.5,11h-9c-0.276,0-0.5-0.224-0.5-0.5s0.224-0.5,0.5-0.5h9c0.276,0,0.5,0.224,0.5,0.5
				S22.776,11,22.5,11z"/>
		</g>
		<g id="XMLID_4019_">
			<path fill="#263238" d="M20.5,7h-9C11.224,7,11,6.776,11,6.5v-3C11,2.673,11.673,2,12.5,2C12.776,2,13,2.224,13,2.5
				S12.776,3,12.5,3C12.224,3,12,3.225,12,3.5V6h8V3.5C20,3.225,19.776,3,19.5,3C19.224,3,19,2.776,19,2.5S19.224,2,19.5,2
				C20.327,2,21,2.673,21,3.5v3C21,6.776,20.776,7,20.5,7z"/>
		</g>
		<g id="XMLID_4043_">
			<path fill="#263238" d="M17.5,3C17.224,3,17,2.776,17,2.5C17,2.225,16.776,2,16.5,2h-1c-0.108,0-0.211,0.033-0.296,0.097
				C15.074,2.192,15,2.339,15,2.5C15,2.776,14.776,3,14.5,3S14,2.776,14,2.5c0-0.475,0.228-0.926,0.609-1.207
				C14.867,1.102,15.176,1,15.5,1h1C17.327,1,18,1.673,18,2.5C18,2.776,17.776,3,17.5,3z"/>
		</g>
	</g>
</g>
</svg>
