<?xml version="1.0" encoding="utf-8"?>
<!-- Generator: Adobe Illustrator 16.0.0, SVG Export Plug-In . SVG Version: 6.00 Build 0)  -->
<!DOCTYPE svg PUBLIC "-//W3C//DTD SVG 1.1//EN" "http://www.w3.org/Graphics/SVG/1.1/DTD/svg11.dtd">
<svg version="1.1" xmlns="http://www.w3.org/2000/svg" xmlns:xlink="http://www.w3.org/1999/xlink" x="0px" y="0px" width="32px"
	 height="32px" viewBox="0 0 32 32" enable-background="new 0 0 32 32" xml:space="preserve">
<g id="clock_x2C__time">
	<g>
		<g id="XMLID_3975_">
			<path fill="#263238" d="M16,28.5C9.107,28.5,3.5,22.893,3.5,16S9.107,3.5,16,3.5S28.5,9.107,28.5,16S22.893,28.5,16,28.5z
				 M16,4.5C9.659,4.5,4.5,9.659,4.5,16S9.659,27.5,16,27.5S27.5,22.341,27.5,16S22.341,4.5,16,4.5z"/>
		</g>
		<g>
			<line fill="#FFFFFF" x1="22.011" y1="9.989" x2="16.701" y2="15.299"/>
			<path fill="#263238" d="M16.701,15.799c-0.128,0-0.256-0.049-0.354-0.146c-0.195-0.195-0.195-0.512,0-0.707l5.31-5.31
				c0.195-0.195,0.512-0.195,0.707,0s0.195,0.512,0,0.707l-5.31,5.31C16.957,15.75,16.829,15.799,16.701,15.799z"/>
		</g>
		<g>
			<line fill="#FFFFFF" x1="9.282" y1="9.282" x2="15.301" y2="15.301"/>
			<path fill="#263238" d="M15.301,15.801c-0.128,0-0.256-0.049-0.354-0.146L8.929,9.636c-0.195-0.195-0.195-0.512,0-0.707
				s0.512-0.195,0.707,0l6.019,6.019c0.195,0.195,0.195,0.512,0,0.707C15.557,15.752,15.429,15.801,15.301,15.801z"/>
		</g>
		<g id="XMLID_3995_">
			<path fill="#263238" d="M16,17.5c-0.827,0-1.5-0.673-1.5-1.5s0.673-1.5,1.5-1.5s1.5,0.673,1.5,1.5S16.827,17.5,16,17.5z M16,15.5
				c-0.275,0-0.5,0.225-0.5,0.5s0.225,0.5,0.5,0.5s0.5-0.225,0.5-0.5S16.275,15.5,16,15.5z"/>
		</g>
		<g>
			<g>
				<g id="XMLID_90_">
					<g>
						<path fill="#263238" d="M20.75,8.27c-0.13,0-0.26-0.05-0.351-0.14c-0.1-0.1-0.149-0.23-0.149-0.36s0.05-0.26,0.14-0.35
							c0.19-0.19,0.53-0.19,0.71,0c0.101,0.1,0.15,0.22,0.15,0.35S21.2,8.03,21.109,8.12C21.01,8.22,20.88,8.27,20.75,8.27z"/>
					</g>
				</g>
				<g id="XMLID_89_">
					<g>
						<path fill="#263238" d="M11.25,24.729c-0.13,0-0.26-0.05-0.351-0.14c-0.1-0.11-0.149-0.23-0.149-0.36s0.05-0.26,0.14-0.35
							c0.21-0.2,0.521-0.19,0.71-0.01c0.101,0.1,0.15,0.229,0.15,0.359s-0.05,0.25-0.141,0.351
							C11.51,24.68,11.38,24.729,11.25,24.729z"/>
					</g>
				</g>
			</g>
			<g>
				<g id="XMLID_88_">
					<g>
						<path fill="#263238" d="M24.229,11.75c-0.14,0-0.27-0.05-0.359-0.15c-0.09-0.09-0.141-0.22-0.141-0.35s0.051-0.26,0.141-0.351
							c0.189-0.189,0.529-0.189,0.71,0c0.1,0.091,0.149,0.221,0.149,0.351s-0.05,0.26-0.149,0.35
							C24.49,11.7,24.359,11.75,24.229,11.75z"/>
					</g>
				</g>
				<g id="XMLID_87_">
					<g>
						<path fill="#263238" d="M7.77,21.25c-0.13,0-0.26-0.05-0.35-0.15c-0.101-0.1-0.15-0.22-0.15-0.35s0.061-0.26,0.15-0.351
							c0.18-0.189,0.52-0.189,0.71,0c0.09,0.091,0.14,0.221,0.14,0.351S8.22,21,8.13,21.1C8.03,21.2,7.899,21.25,7.77,21.25z"/>
					</g>
				</g>
			</g>
			<g>
				<g id="XMLID_86_">
					<g>
						<path fill="#263238" d="M25.5,16.5c-0.13,0-0.26-0.05-0.351-0.15C25.05,16.26,25,16.13,25,16s0.05-0.26,0.14-0.351
							c0.2-0.189,0.521-0.189,0.71-0.01C25.95,15.74,26,15.87,26,16s-0.05,0.26-0.141,0.35C25.76,16.45,25.63,16.5,25.5,16.5z"/>
					</g>
				</g>
				<g id="XMLID_85_">
					<g>
						<path fill="#263238" d="M6.5,16.5c-0.13,0-0.26-0.05-0.351-0.141C6.05,16.26,6,16.13,6,16s0.05-0.26,0.14-0.351
							c0.21-0.199,0.521-0.189,0.71-0.01C6.95,15.74,7,15.87,7,16s-0.05,0.26-0.141,0.35C6.76,16.45,6.63,16.5,6.5,16.5z"/>
					</g>
				</g>
			</g>
			<g>
				<g id="XMLID_84_">
					<g>
						<path fill="#263238" d="M24.229,21.25c-0.13,0-0.26-0.05-0.35-0.141c-0.1-0.1-0.15-0.229-0.15-0.359s0.051-0.26,0.141-0.351
							c0.199-0.189,0.529-0.189,0.71,0c0.09,0.091,0.149,0.221,0.149,0.351S24.68,21,24.58,21.1
							C24.49,21.2,24.359,21.25,24.229,21.25z"/>
					</g>
				</g>
				<g id="XMLID_83_">
					<g>
						<path fill="#263238" d="M7.77,11.75c-0.13,0-0.26-0.05-0.35-0.15c-0.101-0.09-0.15-0.22-0.15-0.35s0.05-0.26,0.141-0.351
							c0.199-0.189,0.52-0.189,0.71-0.01c0.1,0.101,0.149,0.23,0.149,0.36s-0.05,0.26-0.14,0.35C8.03,11.7,7.899,11.75,7.77,11.75z"
							/>
					</g>
				</g>
			</g>
			<g>
				<g id="XMLID_82_">
					<g>
						<path fill="#263238" d="M20.75,24.729c-0.13,0-0.25-0.05-0.351-0.14c-0.1-0.11-0.149-0.23-0.149-0.36s0.05-0.26,0.14-0.35
							c0.22-0.21,0.521-0.19,0.71-0.01c0.101,0.1,0.15,0.229,0.15,0.359s-0.05,0.25-0.141,0.351
							C21.01,24.68,20.88,24.729,20.75,24.729z"/>
					</g>
				</g>
				<g id="XMLID_81_">
					<g>
						<path fill="#263238" d="M11.25,8.27c-0.13,0-0.26-0.05-0.351-0.14c-0.1-0.1-0.149-0.23-0.149-0.36s0.05-0.25,0.14-0.35
							c0.19-0.19,0.53-0.19,0.71,0c0.101,0.09,0.15,0.22,0.15,0.35S11.7,8.03,11.6,8.12C11.51,8.22,11.38,8.27,11.25,8.27z"/>
					</g>
				</g>
			</g>
			<g>
				<g id="XMLID_80_">
					<g>
						<path fill="#263238" d="M16,26c-0.13,0-0.26-0.05-0.36-0.15c-0.09-0.1-0.14-0.22-0.14-0.35s0.05-0.26,0.14-0.351
							c0.19-0.189,0.521-0.189,0.71-0.01c0.101,0.101,0.15,0.23,0.15,0.36s-0.05,0.25-0.141,0.35C16.26,25.95,16.13,26,16,26z"/>
					</g>
				</g>
				<g id="XMLID_78_">
					<g>
						<path fill="#263238" d="M16,7c-0.13,0-0.25-0.05-0.351-0.141C15.55,6.75,15.5,6.63,15.5,6.5s0.05-0.25,0.14-0.351
							c0.21-0.199,0.521-0.189,0.71-0.01C16.45,6.25,16.5,6.38,16.5,6.5s-0.05,0.25-0.141,0.35C16.25,6.95,16.12,7,16,7z"/>
					</g>
				</g>
			</g>
		</g>
		<g id="XMLID_731_">
			<g>
				<g>
					<path fill="#263238" d="M7,5C6.87,5,6.75,4.95,6.649,4.859C6.55,4.76,6.5,4.63,6.5,4.5s0.05-0.26,0.149-0.351
						C6.84,3.95,7.16,3.96,7.35,4.14C7.45,4.24,7.5,4.37,7.5,4.5S7.45,4.75,7.359,4.85C7.26,4.95,7.13,5,7,5z"/>
				</g>
			</g>
		</g>
		<g id="XMLID_3974_">
			<path fill="#263238" d="M16,31C7.729,31,1,24.271,1,16c0-3.646,1.323-7.16,3.727-9.895C4.91,5.898,5.226,5.878,5.433,6.06
				C5.64,6.242,5.66,6.559,5.479,6.766C3.235,9.317,2,12.597,2,16c0,7.72,6.28,14,14,14s14-6.28,14-14S23.72,2,16,2
				c-2.504,0-4.96,0.668-7.103,1.933C8.662,4.07,8.354,3.994,8.213,3.756C8.072,3.519,8.151,3.212,8.39,3.071
				C10.686,1.716,13.317,1,16,1c8.271,0,15,6.729,15,15S24.271,31,16,31z"/>
		</g>
	</g>
</g>
</svg>
