<?xml version="1.0" encoding="utf-8"?>
<!-- Generator: Adobe Illustrator 16.0.0, SVG Export Plug-In . SVG Version: 6.00 Build 0)  -->
<!DOCTYPE svg PUBLIC "-//W3C//DTD SVG 1.1//EN" "http://www.w3.org/Graphics/SVG/1.1/DTD/svg11.dtd">
<svg version="1.1" xmlns="http://www.w3.org/2000/svg" xmlns:xlink="http://www.w3.org/1999/xlink" x="0px" y="0px" width="32px"
	 height="32px" viewBox="0 0 32 32" enable-background="new 0 0 32 32" xml:space="preserve">
<g id="code_coding_laptop">
	<g id="laptop_1_">
		<g>
			<g>
				<g>
					<g>
						<path fill="#263238" d="M28.5,25c-0.276,0-0.5-0.224-0.5-0.5v-16C28,8.225,27.776,8,27.5,8h-23C4.224,8,4,8.225,4,8.5v16
							C4,24.776,3.776,25,3.5,25S3,24.776,3,24.5v-16C3,7.673,3.673,7,4.5,7h23C28.327,7,29,7.673,29,8.5v16
							C29,24.776,28.776,25,28.5,25z"/>
					</g>
				</g>
			</g>
			<g>
				<g>
					<path fill="#263238" d="M28.5,29h-25C2.121,29,1,27.879,1,26.5C1,26.224,1.224,26,1.5,26h11c0.276,0,0.5,0.224,0.5,0.5
						S12.776,27,12.5,27H2.086c0.206,0.582,0.762,1,1.414,1h25c0.652,0,1.208-0.418,1.414-1H19.5c-0.276,0-0.5-0.224-0.5-0.5
						s0.224-0.5,0.5-0.5h11c0.276,0,0.5,0.224,0.5,0.5C31,27.879,29.879,29,28.5,29z"/>
				</g>
			</g>
		</g>
	</g>
	<path fill="#263238" d="M11.5,21c-0.117,0-0.234-0.041-0.329-0.124l-4-3.5C7.062,17.281,7,17.145,7,17s0.062-0.281,0.171-0.376
		l4-3.5c0.207-0.183,0.522-0.163,0.706,0.047c0.182,0.208,0.161,0.523-0.047,0.705L8.259,17l3.57,3.124
		c0.208,0.182,0.229,0.497,0.047,0.705C11.777,20.942,11.639,21,11.5,21z"/>
	<path fill="#263238" d="M14.5,22c-0.052,0-0.105-0.008-0.158-0.025c-0.262-0.088-0.403-0.371-0.316-0.633l3-9
		c0.087-0.262,0.368-0.405,0.632-0.316c0.262,0.088,0.403,0.371,0.316,0.633l-3,9C14.904,21.867,14.709,22,14.5,22z"/>
	<path fill="#263238" d="M20.5,21c-0.139,0-0.277-0.058-0.376-0.171c-0.182-0.208-0.161-0.523,0.047-0.705L23.741,17l-3.57-3.124
		c-0.208-0.182-0.229-0.497-0.047-0.705c0.182-0.21,0.498-0.229,0.706-0.047l4,3.5C24.938,16.719,25,16.855,25,17
		s-0.062,0.281-0.171,0.376l-4,3.5C20.734,20.959,20.617,21,20.5,21z"/>
</g>
</svg>
