<?xml version="1.0" encoding="utf-8"?>
<!-- Generator: Adobe Illustrator 16.0.0, SVG Export Plug-In . SVG Version: 6.00 Build 0)  -->
<!DOCTYPE svg PUBLIC "-//W3C//DTD SVG 1.1//EN" "http://www.w3.org/Graphics/SVG/1.1/DTD/svg11.dtd">
<svg version="1.1" xmlns="http://www.w3.org/2000/svg" xmlns:xlink="http://www.w3.org/1999/xlink" x="0px" y="0px" width="32px"
	 height="32px" viewBox="0 0 32 32" enable-background="new 0 0 32 32" xml:space="preserve">
<g id="creative_idea_light_bulb">
	<path fill="#263238" d="M19,27.625v0.425c0,1.075-0.875,1.95-1.95,1.95h-2.1C13.875,30,13,29.125,13,28.05v-0.425h-1v0.425
		c0,1.627,1.323,2.95,2.95,2.95h2.1c1.627,0,2.95-1.323,2.95-2.95v-0.425H19z"/>
	<path fill="#263238" d="M12.482,22.039c-0.249,0-0.464-0.185-0.496-0.438c-0.1-0.801-0.744-1.763-1.531-2.288
		C7.666,17.452,6,14.344,6,10.999c0-2.392,0.858-4.707,2.417-6.521c0.18-0.21,0.495-0.231,0.705-0.053
		c0.209,0.18,0.233,0.495,0.053,0.705C7.772,6.763,7,8.847,7,10.999c0,3.01,1.499,5.807,4.01,7.482
		c0.866,0.577,1.81,1.728,1.969,2.995c0.034,0.274-0.16,0.524-0.434,0.559C12.523,22.038,12.502,22.039,12.482,22.039z"/>
	<path fill="#263238" d="M19.5,23.55c-0.276,0-0.5-0.224-0.5-0.5v-1.225c0-1.323,1.001-2.684,1.99-3.344
		c2.511-1.676,4.01-4.473,4.01-7.482c0-4.963-4.038-9-9-9c-1.764,0-3.472,0.51-4.94,1.476c-0.23,0.153-0.541,0.089-0.692-0.144
		c-0.151-0.23-0.087-0.541,0.144-0.692c1.632-1.072,3.53-1.64,5.489-1.64c5.514,0,10,4.486,10,10c0,3.345-1.666,6.453-4.455,8.314
		c-0.749,0.5-1.545,1.55-1.545,2.512v1.225C20,23.326,19.776,23.55,19.5,23.55z"/>
	<g>
		<g id="ICO">
			<g>
				<g>
					<g>
						<g>
							<path fill="#263238" d="M19.5,28h-7c-0.827,0-1.5-0.673-1.5-1.5s0.673-1.5,1.5-1.5h7c0.827,0,1.5,0.673,1.5,1.5
								S20.327,28,19.5,28z M12.5,26c-0.275,0-0.5,0.225-0.5,0.5s0.225,0.5,0.5,0.5h7c0.275,0,0.5-0.225,0.5-0.5S19.775,26,19.5,26
								H12.5z"/>
						</g>
					</g>
				</g>
			</g>
		</g>
		<path fill="#263238" d="M15,19.5c-0.204,0-0.396-0.126-0.47-0.329l-2-5.5c-0.095-0.26,0.04-0.547,0.299-0.641
			c0.26-0.094,0.547,0.039,0.641,0.299l2,5.5c0.095,0.26-0.04,0.547-0.299,0.641C15.114,19.49,15.057,19.5,15,19.5z"/>
		<path fill="#263238" d="M16.5,22c-0.276,0-0.5-0.224-0.5-0.5v-2c0-0.066,0.013-0.132,0.039-0.192l2.5-6
			c0.106-0.255,0.401-0.371,0.654-0.27c0.255,0.106,0.375,0.399,0.269,0.654L17,19.6v1.9C17,21.776,16.776,22,16.5,22z"/>
		<path fill="#263238" d="M20.5,12.5c-0.276,0-0.5-0.224-0.5-0.5c0-0.552-0.449-1-1-1c-0.273,0-0.529,0.11-0.72,0.311
			c-0.125,0.13-0.308,0.184-0.483,0.14c-0.174-0.044-0.312-0.178-0.36-0.351C17.256,10.452,16.665,10,16,10s-1.256,0.452-1.437,1.1
			c-0.048,0.173-0.186,0.307-0.36,0.351c-0.173,0.043-0.358-0.011-0.483-0.14C13.529,11.11,13.273,11,13,11c-0.551,0-1,0.448-1,1
			c0,0.276-0.224,0.5-0.5,0.5S11,12.276,11,12c0-1.103,0.897-2,2-2c0.308,0,0.605,0.069,0.874,0.201C14.319,9.471,15.12,9,16,9
			s1.681,0.471,2.126,1.201C18.395,10.069,18.692,10,19,10c1.103,0,2,0.897,2,2C21,12.276,20.776,12.5,20.5,12.5z"/>
	</g>
	<g>
		<g>
			<path fill="#263238" d="M2.203,6.011l2.351,0.854C4.812,6.96,5.098,6.826,5.192,6.566c0.096-0.258-0.039-0.546-0.299-0.641
				L2.545,5.071C2.285,4.977,1.999,5.11,1.905,5.37C1.81,5.629,1.943,5.916,2.203,6.011z"/>
			<path fill="#263238" d="M27.446,14.135c-0.258-0.095-0.544,0.039-0.639,0.299c-0.096,0.258,0.039,0.546,0.299,0.641l2.349,0.854
				c0.26,0.095,0.546-0.039,0.64-0.299c0.096-0.259-0.038-0.546-0.298-0.641L27.446,14.135z"/>
		</g>
		<g>
			<path fill="#263238" d="M29.455,5.071l-2.349,0.854c-0.26,0.095-0.394,0.381-0.299,0.641c0.094,0.26,0.381,0.394,0.641,0.299
				l2.349-0.854c0.26-0.095,0.394-0.382,0.299-0.641C30.001,5.11,29.714,4.977,29.455,5.071z"/>
			<path fill="#263238" d="M4.895,15.074c0.26-0.095,0.394-0.381,0.299-0.641c-0.094-0.26-0.381-0.394-0.641-0.299l-2.349,0.854
				c-0.26,0.095-0.394,0.382-0.299,0.641c0.094,0.26,0.381,0.394,0.641,0.299L4.895,15.074z"/>
		</g>
		<g>
			<path fill="#263238" d="M30.5,10H28c-0.276,0-0.5,0.224-0.5,0.5S27.724,11,28,11h2.5c0.276,0,0.5-0.224,0.5-0.5
				S30.776,10,30.5,10z"/>
			<path fill="#263238" d="M4,11c0.276,0,0.5-0.224,0.5-0.5S4.276,10,4,10H1.5C1.224,10,1,10.224,1,10.5S1.224,11,1.5,11H4z"/>
		</g>
	</g>
	<path fill="#263238" d="M14.5,23c-0.276,0-0.5,0.224-0.5,0.5l0,0c0,0.276,0.224,0.5,0.5,0.5h5c0.275,0,0.5,0.225,0.5,0.5
		S19.775,25,19.5,25h-7c-0.275,0-0.5-0.225-0.5-0.5s0.225-0.5,0.5-0.5l0,0c0.276,0,0.5-0.224,0.5-0.5l0,0c0-0.276-0.224-0.5-0.5-0.5
		l0,0c-0.827,0-1.5,0.673-1.5,1.5s0.673,1.5,1.5,1.5h7c0.827,0,1.5-0.673,1.5-1.5S20.327,23,19.5,23H14.5z"/>
</g>
</svg>
