<?xml version="1.0" encoding="utf-8"?>
<!-- Generator: Adobe Illustrator 16.0.0, SVG Export Plug-In . SVG Version: 6.00 Build 0)  -->
<!DOCTYPE svg PUBLIC "-//W3C//DTD SVG 1.1//EN" "http://www.w3.org/Graphics/SVG/1.1/DTD/svg11.dtd">
<svg version="1.1" id="Layer_1" xmlns="http://www.w3.org/2000/svg" xmlns:xlink="http://www.w3.org/1999/xlink" x="0px" y="0px"
	 width="32px" height="32px" viewBox="0 0 32 32" enable-background="new 0 0 32 32" xml:space="preserve">
<g id="creative_idea">
	<g id="Public_Relations_1_">
		<path fill="#263238" d="M10.632,31c-0.253,0-0.471-0.192-0.496-0.45L9.681,26H5.533C4.706,26,4,25.327,4,24.5V20H2.133
			c-0.443,0-0.807-0.183-0.997-0.501s-0.18-0.726,0.03-1.116l2.562-5.677l-0.094-1.678C3.633,5.486,8.567,1,14.633,1
			c1.813,0,3.506,0.429,5.033,1.275c0.242,0.134,0.329,0.438,0.195,0.68c-0.135,0.242-0.44,0.327-0.68,0.195
			C17.804,2.387,16.273,2,14.633,2c-5.514,0-10,4.037-10,9l0.1,1.771c0.005,0.081-0.01,0.161-0.043,0.234l-2.627,5.819
			c-0.049,0.092-0.06,0.143-0.062,0.163C2.015,18.987,2.055,19,2.133,19h2.4C4.81,19,5,19.224,5,19.5v5C5,24.775,5.258,25,5.533,25
			h4.6c0.257,0,0.472,0.194,0.497,0.45l0.5,5c0.028,0.274-0.173,0.52-0.447,0.547C10.666,30.999,10.648,31,10.632,31z"/>
	</g>
	<g>
		<g id="ICO">
			<g>
				<g>
					<path fill="#263238" d="M24.5,27.5h-0.571C23.971,27.661,24,27.826,24,28c0,1.104-0.896,2-2,2s-2-0.896-2-2
						c0-0.174,0.029-0.339,0.071-0.5H19.5c-0.158,0-0.303-0.045-0.437-0.111C19.022,27.586,19,27.79,19,28c0,1.654,1.346,3,3,3
						s3-1.346,3-3c0-0.21-0.022-0.414-0.063-0.611C24.803,27.455,24.658,27.5,24.5,27.5z"/>
				</g>
				<g>
					<g>
						<g>
							<path fill="#263238" d="M24.5,28h-5c-0.827,0-1.5-0.673-1.5-1.5s0.673-1.5,1.5-1.5h5c0.827,0,1.5,0.673,1.5,1.5
								S25.327,28,24.5,28z M19.5,26c-0.275,0-0.5,0.225-0.5,0.5s0.225,0.5,0.5,0.5h5c0.275,0,0.5-0.225,0.5-0.5S24.775,26,24.5,26
								H19.5z"/>
						</g>
					</g>
				</g>
			</g>
			<g>
				<g>
					<g>
						<g>
							<path fill="#263238" d="M24.5,26h-5c-0.827,0-1.5-0.673-1.5-1.5s0.673-1.5,1.5-1.5h5c0.827,0,1.5,0.673,1.5,1.5
								S25.327,26,24.5,26z M19.5,24c-0.275,0-0.5,0.225-0.5,0.5s0.225,0.5,0.5,0.5h5c0.275,0,0.5-0.225,0.5-0.5S24.775,24,24.5,24
								H19.5z"/>
						</g>
					</g>
				</g>
			</g>
			<g>
				<g>
					<g>
						<path fill="#263238" d="M24.5,24c-0.276,0-0.5-0.224-0.5-0.5v-2.436c0-1.333,1.031-2.655,1.988-3.32
							C27.874,16.436,29,14.288,29,12c0-3.859-3.141-7-7-7s-7,3.141-7,7c0,2.288,1.126,4.436,3.012,5.744
							C18.969,18.409,20,19.731,20,21.064V21.5c0,0.276-0.224,0.5-0.5,0.5S19,21.776,19,21.5v-0.436c0-0.93-0.784-1.961-1.559-2.499
							C15.287,17.07,14,14.615,14,12c0-4.411,3.589-8,8-8s8,3.589,8,8c0,2.615-1.287,5.07-3.441,6.565
							C25.784,19.104,25,20.135,25,21.064V23.5C25,23.776,24.776,24,24.5,24z"/>
					</g>
				</g>
			</g>
		</g>
		<path fill="#263238" d="M21.5,20c-0.209,0-0.404-0.133-0.475-0.342l-2-6c-0.087-0.262,0.055-0.545,0.316-0.633
			c0.262-0.087,0.545,0.055,0.633,0.316l2,6c0.087,0.262-0.055,0.545-0.316,0.633C21.605,19.992,21.553,20,21.5,20z"/>
		<path fill="#263238" d="M22.5,22.5c-0.276,0-0.5-0.224-0.5-0.5v-2.5c0-0.054,0.009-0.107,0.025-0.158l2-6
			c0.088-0.262,0.372-0.402,0.633-0.316c0.262,0.088,0.403,0.371,0.316,0.633L23,19.581V22C23,22.276,22.776,22.5,22.5,22.5z"/>
		<path fill="#263238" d="M24.5,14c-0.276,0-0.5-0.224-0.5-0.5s0.224-0.5,0.5-0.5c0.275,0,0.5-0.225,0.5-0.5S24.775,12,24.5,12
			S24,12.225,24,12.5c0,0.276-0.224,0.5-0.5,0.5S23,12.776,23,12.5c0-0.827,0.673-1.5,1.5-1.5s1.5,0.673,1.5,1.5S25.327,14,24.5,14z
			"/>
		<path fill="#263238" d="M23.5,13c-0.276,0-0.5-0.224-0.5-0.5c0-0.552-0.448-1-1-1s-1,0.448-1,1c0,0.276-0.224,0.5-0.5,0.5
			S20,12.776,20,12.5c0-1.103,0.897-2,2-2s2,0.897,2,2C24,12.776,23.776,13,23.5,13z"/>
		<path fill="#263238" d="M19.5,14c-0.827,0-1.5-0.673-1.5-1.5s0.673-1.5,1.5-1.5s1.5,0.673,1.5,1.5c0,0.276-0.224,0.5-0.5,0.5
			S20,12.776,20,12.5c0-0.275-0.225-0.5-0.5-0.5S19,12.225,19,12.5s0.225,0.5,0.5,0.5c0.276,0,0.5,0.224,0.5,0.5S19.776,14,19.5,14z
			"/>
	</g>
	<g id="creative_idea_1_">
		<g id="Public_Relations_3_">
			<g>
				<path fill="#263238" d="M13.5,26H8.033c-0.276,0-0.5-0.224-0.5-0.5s0.224-0.5,0.5-0.5H13.5c0.827,0,1.5-0.673,1.5-1.5
					c0-0.276,0.224-0.5,0.5-0.5s0.5,0.224,0.5,0.5C16,24.879,14.879,26,13.5,26z"/>
			</g>
		</g>
	</g>
</g>
</svg>
