<?xml version="1.0" encoding="utf-8"?>
<!-- Generator: Adobe Illustrator 16.0.0, SVG Export Plug-In . SVG Version: 6.00 Build 0)  -->
<!DOCTYPE svg PUBLIC "-//W3C//DTD SVG 1.1//EN" "http://www.w3.org/Graphics/SVG/1.1/DTD/svg11.dtd">
<svg version="1.1" xmlns="http://www.w3.org/2000/svg" xmlns:xlink="http://www.w3.org/1999/xlink" x="0px" y="0px" width="32px"
	 height="32px" viewBox="0 0 32 32" enable-background="new 0 0 32 32" xml:space="preserve">
<g id="decision_x2C__solution">
	<g id="Public_Relations">
		<path fill="#263238" d="M24.498,26h-8.967c-1.378,0-2.5-1.122-2.5-2.5c0-0.276,0.224-0.5,0.5-0.5s0.5,0.224,0.5,0.5
			c0,0.827,0.673,1.5,1.5,1.5h8.967c0.276,0,0.5,0.224,0.5,0.5S24.774,26,24.498,26z"/>
		<path fill="#263238" d="M19.399,31c-0.017,0-0.033-0.001-0.05-0.002c-0.275-0.027-0.475-0.272-0.448-0.547l0.5-5
			c0.025-0.255,0.241-0.45,0.498-0.45h4.6c0.276,0,0.5-0.224,0.5-0.5v-5c0-0.276,0.224-0.5,0.5-0.5h2.4
			c0.078,0,0.121-0.014,0.138-0.021c-0.007-0.01-0.015-0.054-0.052-0.123l-2.642-5.85c-0.033-0.073-0.048-0.153-0.043-0.233
			l0.101-1.8C25.398,6.038,20.913,2,15.398,2c-2.061,0-3.991,0.628-5.583,1.818c-0.222,0.165-0.535,0.119-0.7-0.102
			c-0.165-0.222-0.12-0.535,0.102-0.7C10.983,1.697,13.121,1,15.398,1c6.065,0,11,4.486,11,10l-0.095,1.706l2.577,5.708
			c0.195,0.36,0.206,0.767,0.015,1.085C28.705,19.817,28.341,20,27.898,20h-1.9v4.5c0,0.827-0.673,1.5-1.5,1.5h-4.147l-0.455,4.55
			C19.87,30.808,19.653,31,19.399,31z"/>
		<path fill="#263238" d="M7.899,31c-0.036,0-0.072-0.004-0.109-0.012c-0.27-0.06-0.439-0.327-0.38-0.597
			c0.011-0.05,1.113-5.057,0.969-7.784c-0.014-0.276,0.197-0.511,0.473-0.526c0.266-0.016,0.511,0.198,0.526,0.473
			c0.151,2.863-0.945,7.843-0.992,8.054C8.335,30.841,8.128,31,7.899,31z"/>
	</g>
	<g>
		<path fill="#263238" d="M15.5,21h-4.613c-0.311,0-0.6-0.183-0.735-0.466c-0.132-0.275-0.097-0.592,0.092-0.827
			C10.409,19.501,10.5,19.25,10.5,19c0-0.551-0.449-1-1-1s-1,0.449-1,1c0,0.25,0.091,0.501,0.256,0.707
			c0.189,0.235,0.224,0.552,0.092,0.827C8.713,20.817,8.424,21,8.113,21H3.5C3.224,21,3,20.776,3,20.5v-4.613
			c0-0.449,0.364-0.815,0.811-0.815c0.177,0,0.344,0.059,0.483,0.171C4.5,15.409,4.75,15.5,5,15.5c0.551,0,1-0.449,1-1s-0.449-1-1-1
			c-0.25,0-0.5,0.091-0.706,0.256c-0.304,0.243-0.766,0.213-1.046-0.06C3.088,13.542,3,13.334,3,13.113V8.5C3,8.224,3.224,8,3.5,8
			h4.256C7.589,7.691,7.5,7.347,7.5,7c0-1.103,0.897-2,2-2s2,0.897,2,2c0,0.347-0.089,0.691-0.256,1H15.5C15.776,8,16,8.224,16,8.5
			v4.256c0.309-0.167,0.653-0.256,1-0.256c1.103,0,2,0.897,2,2s-0.897,2-2,2c-0.347,0-0.691-0.089-1-0.256V20.5
			C16,20.776,15.776,21,15.5,21z M11.244,20H15v-4.113c0-0.449,0.364-0.815,0.811-0.815c0.177,0,0.344,0.059,0.483,0.171
			C16.5,15.409,16.75,15.5,17,15.5c0.551,0,1-0.449,1-1s-0.449-1-1-1c-0.25,0-0.5,0.091-0.706,0.256
			c-0.14,0.112-0.307,0.171-0.484,0.171c-0.447,0-0.811-0.366-0.811-0.815V9h-4.113c-0.311,0-0.6-0.183-0.735-0.466
			c-0.132-0.275-0.097-0.592,0.092-0.827C10.409,7.501,10.5,7.25,10.5,7c0-0.551-0.449-1-1-1s-1,0.449-1,1
			c0,0.25,0.091,0.501,0.256,0.707C8.945,7.941,8.98,8.258,8.849,8.534C8.713,8.817,8.424,9,8.113,9H4v3.756
			C4.309,12.589,4.653,12.5,5,12.5c1.103,0,2,0.897,2,2s-0.897,2-2,2c-0.347,0-0.691-0.089-1-0.256V20h3.756
			C7.589,19.691,7.5,19.347,7.5,19c0-1.103,0.897-2,2-2s2,0.897,2,2C11.5,19.347,11.411,19.691,11.244,20z"/>
	</g>
</g>
</svg>
