<?xml version="1.0" encoding="utf-8"?>
<!-- Generator: Adobe Illustrator 16.0.0, SVG Export Plug-In . SVG Version: 6.00 Build 0)  -->
<!DOCTYPE svg PUBLIC "-//W3C//DTD SVG 1.1//EN" "http://www.w3.org/Graphics/SVG/1.1/DTD/svg11.dtd">
<svg version="1.1" id="Layer_1" xmlns="http://www.w3.org/2000/svg" xmlns:xlink="http://www.w3.org/1999/xlink" x="0px" y="0px"
	 width="32px" height="32px" viewBox="0 0 32 32" enable-background="new 0 0 32 32" xml:space="preserve">
<g id="deposit_x2C__deposit_account_x2C__piggy_bank_x2C__percent">
	<g>
		<g>
			<g>
				<g>
					<path fill="#263238" d="M22.833,5.595C23.211,5.322,23.607,5.14,24,5.055v5.362c0.355,0.277,0.69,0.576,1,0.902V4.5
						C25,4.224,24.776,4,24.5,4c-0.762,0-1.541,0.271-2.251,0.785c-0.224,0.162-0.274,0.474-0.113,0.698
						C22.297,5.707,22.609,5.757,22.833,5.595z"/>
				</g>
			</g>
			<g>
				<g>
					<path fill="#263238" d="M22,26.545V29.5c0,0.276-0.224,0.5-0.5,0.5H21c-0.319,0-0.68-0.282-0.758-0.591l-0.521-2.082
						c-0.326,0.064-0.657,0.114-0.995,0.142l0.545,2.182C19.461,30.407,20.22,31,21,31h0.5c0.827,0,1.5-0.673,1.5-1.5v-3.533
						C22.682,26.182,22.346,26.372,22,26.545z"/>
				</g>
			</g>
			<g>
				<g>
					<g>
						<path fill="#263238" d="M3.56,16.969c-0.019,0-0.038-0.001-0.058-0.003c-0.274-0.032-0.471-0.28-0.439-0.554
							C3.616,11.616,7.673,8,12.5,8h2C14.776,8,15,8.224,15,8.5S14.776,9,14.5,9h-2c-4.319,0-7.949,3.235-8.444,7.526
							C4.026,16.781,3.81,16.969,3.56,16.969z"/>
					</g>
				</g>
			</g>
			<g>
				<g>
					<g>
						<path fill="#263238" d="M7.011,14.021c-0.092,0-0.185-0.025-0.268-0.078c-0.233-0.148-0.302-0.457-0.153-0.69
							C7.886,11.216,10.095,10,12.5,10h2c0.276,0,0.5,0.224,0.5,0.5S14.776,11,14.5,11h-2c-2.061,0-3.955,1.043-5.066,2.79
							C7.338,13.939,7.177,14.021,7.011,14.021z"/>
					</g>
				</g>
			</g>
			<g>
				<g>
					<g>
						<path fill="#263238" d="M3.522,13.406c-1.368,0-2.481-1.113-2.481-2.481c0-1.15,0.936-2.085,2.085-2.085
							c0.568,0,1.104,0.275,1.436,0.736c0.162,0.224,0.11,0.537-0.114,0.698c-0.225,0.161-0.537,0.11-0.698-0.114
							c-0.144-0.2-0.377-0.32-0.624-0.32c-0.598,0-1.085,0.487-1.085,1.085c0,0.817,0.665,1.481,1.481,1.481
							c0.478,0,0.939-0.173,1.298-0.486c0.207-0.181,0.522-0.16,0.706,0.048c0.181,0.208,0.16,0.524-0.048,0.706
							C4.936,13.146,4.241,13.406,3.522,13.406z"/>
					</g>
				</g>
			</g>
			<g>
				<g>
					<g>
						<path fill="#263238" d="M30.5,13h-3.651c-1.346-2.488-3.669-4.189-6.349-4.767v1.022c2.395,0.581,4.449,2.174,5.598,4.469
							C26.183,13.893,26.356,14,26.545,14H30v4.232l-3.06,2.04c-0.103,0.069-0.177,0.173-0.208,0.293
							C25.776,24.354,22.391,27,18.5,27h-2c-0.276,0-0.5,0.224-0.5,0.5s0.224,0.5,0.5,0.5h2c4.285,0,8.021-2.869,9.153-7.001
							l3.125-2.083C30.917,18.823,31,18.667,31,18.5v-5C31,13.224,30.776,13,30.5,13z"/>
					</g>
				</g>
				<g>
					<g>
						<g>
							<path fill="#263238" d="M17,11.5c-0.185,0-0.363-0.103-0.45-0.281c-0.849-1.74-0.74-3.764,0.291-5.414
								C17.73,4.383,19.132,3.5,20.5,3.5C20.776,3.5,21,3.724,21,4v7c0,0.276-0.224,0.5-0.5,0.5S20,11.276,20,11V4.556
								c-0.86,0.189-1.728,0.846-2.311,1.779c-0.86,1.376-0.947,2.996-0.24,4.446c0.121,0.248,0.018,0.547-0.23,0.668
								C17.148,11.484,17.074,11.5,17,11.5z"/>
						</g>
					</g>
				</g>
			</g>
			<g>
				<g>
					<g>
						<path fill="#263238" d="M24,15.5c-0.276,0-0.5-0.224-0.5-0.5c0-0.551-0.449-1-1-1s-1,0.449-1,1c0,0.276-0.224,0.5-0.5,0.5
							s-0.5-0.224-0.5-0.5c0-1.103,0.897-2,2-2s2,0.897,2,2C24.5,15.276,24.276,15.5,24,15.5z"/>
					</g>
				</g>
			</g>
		</g>
		<g>
			<g id="secure_payment_gateway_6_">
				<g id="encryption_5_">
					<g>
						<g>
							<g>
								<g>
									<g>
										<g>
											<g>
												<g>
													<path fill="#263238" d="M8.538,31c4.157,0,7.539-3.364,7.539-7.5S12.695,16,8.538,16c-1.201,0-2.398,0.289-3.461,0.836
														c-0.246,0.126-0.343,0.428-0.216,0.674c0.126,0.246,0.429,0.342,0.673,0.216C6.457,17.251,7.495,17,8.538,17
														c3.605,0,6.539,2.916,6.539,6.5S12.144,30,8.538,30S2,27.084,2,23.5c0-1.469,0.481-2.856,1.394-4.011
														c0.171-0.217,0.134-0.531-0.083-0.702s-0.531-0.135-0.702,0.083C1.557,20.203,1,21.804,1,23.5
														C1,27.636,4.382,31,8.538,31z"/>
												</g>
											</g>
										</g>
									</g>
								</g>
							</g>
						</g>
					</g>
				</g>
			</g>
		</g>
		<g>
			<g>
				<g>
					<g>
						<g>
							<g>
								<path fill="#263238" d="M5.568,27.5c-0.115,0-0.23-0.039-0.325-0.12c-0.21-0.18-0.234-0.496-0.054-0.705l6-7
									c0.18-0.21,0.495-0.233,0.704-0.055c0.21,0.18,0.234,0.496,0.054,0.705l-6,7C5.85,27.44,5.709,27.5,5.568,27.5z"/>
							</g>
						</g>
					</g>
				</g>
			</g>
			<g>
				<g>
					<g>
						<g>
							<g>
								<path fill="#263238" d="M11.068,27.5c-0.451,0-1.5-0.195-1.5-2c0-1.74,0.939-2,1.5-2s1.5,0.26,1.5,2
									C12.568,27.305,11.52,27.5,11.068,27.5z M11.068,24.5c-0.188,0-0.5,0-0.5,1s0.363,1,0.5,1s0.5,0,0.5-1
									S11.256,24.5,11.068,24.5z"/>
							</g>
						</g>
					</g>
				</g>
			</g>
			<g>
				<g>
					<g>
						<g>
							<g>
								<path fill="#263238" d="M6.068,23.5c-0.451,0-1.5-0.195-1.5-2c0-1.74,0.939-2,1.5-2s1.5,0.26,1.5,2
									C7.568,23.305,6.52,23.5,6.068,23.5z M6.068,20.5c-0.188,0-0.5,0-0.5,1s0.363,1,0.5,1s0.5,0,0.5-1S6.256,20.5,6.068,20.5z"
									/>
							</g>
						</g>
					</g>
				</g>
			</g>
		</g>
	</g>
</g>
</svg>
