<?xml version="1.0" encoding="utf-8"?>
<!-- Generator: Adobe Illustrator 16.0.0, SVG Export Plug-In . SVG Version: 6.00 Build 0)  -->
<!DOCTYPE svg PUBLIC "-//W3C//DTD SVG 1.1//EN" "http://www.w3.org/Graphics/SVG/1.1/DTD/svg11.dtd">
<svg version="1.1" xmlns="http://www.w3.org/2000/svg" xmlns:xlink="http://www.w3.org/1999/xlink" x="0px" y="0px" width="32px"
	 height="32px" viewBox="0 0 32 32" enable-background="new 0 0 32 32" xml:space="preserve">
<g id="download_laptop_arrow">
	<g>
		<g id="laptop_2_">
			<g>
				<g>
					<g>
						<g>
							<path fill="#263238" d="M3.5,26C3.224,26,3,25.776,3,25.5v-16C3,8.673,3.673,8,4.5,8h7.001c0.276,0,0.5,0.224,0.5,0.5
								S11.777,9,11.501,9H4.5C4.225,9,4,9.225,4,9.5v16C4,25.776,3.776,26,3.5,26z"/>
							<path fill="#263238" d="M28.5,26c-0.276,0-0.5-0.224-0.5-0.5v-16C28,9.225,27.775,9,27.5,9h-7C20.224,9,20,8.776,20,8.5
								S20.224,8,20.5,8h7C28.327,8,29,8.673,29,9.5v16C29,25.776,28.776,26,28.5,26z"/>
						</g>
					</g>
				</g>
				<g>
					<g>
						<path fill="#263238" d="M28.5,30h-25C2.121,30,1,28.879,1,27.5C1,27.224,1.224,27,1.5,27h11c0.276,0,0.5,0.224,0.5,0.5
							S12.776,28,12.5,28H2.086c0.206,0.582,0.762,1,1.414,1h25c0.652,0,1.208-0.418,1.414-1H19.5c-0.276,0-0.5-0.224-0.5-0.5
							s0.224-0.5,0.5-0.5h11c0.276,0,0.5,0.224,0.5,0.5C31,28.879,29.879,30,28.5,30z"/>
					</g>
				</g>
			</g>
		</g>
	</g>
	<g>
		<g id="transfer_11_">
			<g>
				<path fill="#263238" d="M16,20c-0.17,0-0.328-0.087-0.421-0.229l-4.5-7c-0.099-0.154-0.105-0.35-0.018-0.51
					C11.148,12.1,11.317,12,11.5,12H13V1.5C13,1.224,13.224,1,13.5,1S14,1.224,14,1.5v11c0,0.276-0.224,0.5-0.5,0.5h-1.084
					L16,18.575L19.584,13H18.5c-0.276,0-0.5-0.224-0.5-0.5v-9C18,3.224,18.224,3,18.5,3S19,3.224,19,3.5V12h1.5
					c0.183,0,0.352,0.1,0.438,0.261c0.088,0.16,0.081,0.355-0.018,0.51l-4.5,7C16.328,19.913,16.17,20,16,20z"/>
			</g>
		</g>
		<circle fill="#263238" cx="18.5" cy="1.5" r="0.5"/>
	</g>
</g>
</svg>
