<?xml version="1.0" encoding="utf-8"?>
<!-- Generator: Adobe Illustrator 16.0.0, SVG Export Plug-In . SVG Version: 6.00 Build 0)  -->
<!DOCTYPE svg PUBLIC "-//W3C//DTD SVG 1.1//EN" "http://www.w3.org/Graphics/SVG/1.1/DTD/svg11.dtd">
<svg version="1.1" id="Layer_1" xmlns="http://www.w3.org/2000/svg" xmlns:xlink="http://www.w3.org/1999/xlink" x="0px" y="0px"
	 width="32px" height="32px" viewBox="0 0 32 32" enable-background="new 0 0 32 32" xml:space="preserve">
<g id="event_calendar">
	<g>
		<g>
			<circle fill="#263238" cx="26" cy="22" r="1"/>
		</g>
	</g>
	<g>
		<g>
			<circle fill="#263238" cx="26" cy="18" r="1"/>
		</g>
	</g>
	<g>
		<g>
			<circle fill="#263238" cx="26" cy="14" r="1"/>
		</g>
	</g>
	<g>
		<g>
			<circle fill="#263238" cx="22" cy="26" r="1"/>
		</g>
		<g>
			<circle fill="#263238" cx="18" cy="26" r="1"/>
		</g>
		<g>
			<circle fill="#263238" cx="14" cy="26" r="1"/>
		</g>
		<g>
			<circle fill="#263238" cx="10" cy="26" r="1"/>
		</g>
		<g>
			<circle fill="#263238" cx="22" cy="22" r="1"/>
		</g>
		<g>
			<circle fill="#263238" cx="18" cy="22" r="1"/>
		</g>
		<g>
			<circle fill="#263238" cx="14" cy="22" r="1"/>
		</g>
		<g>
			<circle fill="#263238" cx="10" cy="22" r="1"/>
		</g>
		<g>
			<circle fill="#263238" cx="6" cy="22" r="1"/>
		</g>
		<g>
			<circle fill="#263238" cx="22" cy="18" r="1"/>
		</g>
		<g>
			<circle fill="#263238" cx="18" cy="18" r="1"/>
		</g>
		<g>
			<circle fill="#263238" cx="14" cy="18" r="1"/>
		</g>
		<g>
			<circle fill="#263238" cx="10" cy="18" r="1"/>
		</g>
		<g>
			<circle fill="#263238" cx="6" cy="18" r="1"/>
		</g>
		<g>
			<circle fill="#263238" cx="22" cy="14" r="1"/>
		</g>
		<g>
			<circle fill="#263238" cx="18" cy="14" r="1"/>
		</g>
		<g>
			<circle fill="#263238" cx="14" cy="14" r="1"/>
		</g>
		<g>
			<circle fill="#263238" cx="10" cy="14" r="1"/>
		</g>
	</g>
	<g>
		<g>
			<path fill="#263238" d="M17,5.5C17,5.224,16.776,5,16.5,5H14v1h2.5C16.776,6,17,5.776,17,5.5z"/>
		</g>
		<g>
			<path fill="#263238" d="M13,5.5C13,5.224,12.776,5,12.5,5H10v1h2.5C12.776,6,13,5.776,13,5.5z"/>
		</g>
		<g>
			<path fill="#263238" d="M28.5,5H26v1h2.5C28.775,6,29,6.225,29,6.5V10H3V6.5C3,6.225,3.225,6,3.5,6h1C4.776,6,5,5.776,5,5.5
				S4.776,5,4.5,5h-1C2.673,5,2,5.673,2,6.5v4C2,10.776,2.224,11,2.5,11h27c0.276,0,0.5-0.224,0.5-0.5v-4C30,5.673,29.327,5,28.5,5z
				"/>
		</g>
		<g>
			<path fill="#263238" d="M25,5.5C25,5.224,24.776,5,24.5,5H22v1h2.5C24.776,6,25,5.776,25,5.5z"/>
		</g>
		<g>
			<path fill="#263238" d="M9,5.5C9,5.224,8.776,5,8.5,5H6v1h2.5C8.776,6,9,5.776,9,5.5z"/>
		</g>
		<g>
			<path fill="#263238" d="M21,5.5C21,5.224,20.776,5,20.5,5H18v1h2.5C20.776,6,21,5.776,21,5.5z"/>
		</g>
	</g>
	<g>
		<path fill="#263238" d="M26.5,2C26.224,2,26,2.224,26,2.5v5C26,7.776,26.224,8,26.5,8S27,7.776,27,7.5v-5
			C27,2.224,26.776,2,26.5,2z"/>
		<path fill="#263238" d="M22.5,2C22.224,2,22,2.224,22,2.5v5C22,7.776,22.224,8,22.5,8S23,7.776,23,7.5v-5
			C23,2.224,22.776,2,22.5,2z"/>
		<path fill="#263238" d="M18.5,2C18.224,2,18,2.224,18,2.5v5C18,7.776,18.224,8,18.5,8S19,7.776,19,7.5v-5
			C19,2.224,18.776,2,18.5,2z"/>
		<path fill="#263238" d="M14.5,2C14.224,2,14,2.224,14,2.5v5C14,7.776,14.224,8,14.5,8S15,7.776,15,7.5v-5
			C15,2.224,14.776,2,14.5,2z"/>
		<path fill="#263238" d="M10.5,2C10.224,2,10,2.224,10,2.5v5C10,7.776,10.224,8,10.5,8S11,7.776,11,7.5v-5
			C11,2.224,10.776,2,10.5,2z"/>
		<path fill="#263238" d="M6.5,2C6.224,2,6,2.224,6,2.5v5C6,7.776,6.224,8,6.5,8S7,7.776,7,7.5v-5C7,2.224,6.776,2,6.5,2z"/>
	</g>
	<g>
		<path fill="#263238" d="M29.5,30h-22C7.224,30,7,29.776,7,29.5S7.224,29,7.5,29H29V11H3v13.5C3,24.776,2.776,25,2.5,25
			S2,24.776,2,24.5v-14C2,10.224,2.224,10,2.5,10h27c0.276,0,0.5,0.224,0.5,0.5v19C30,29.776,29.776,30,29.5,30z"/>
		<path fill="#263238" d="M7.5,30c-0.13,0-0.258-0.051-0.354-0.146l-5-5c-0.195-0.195-0.195-0.512,0-0.707s0.512-0.195,0.707,0
			L7,28.293V25H5c-0.276,0-0.5-0.224-0.5-0.5S4.724,24,5,24h2.5C7.776,24,8,24.224,8,24.5v5c0,0.202-0.122,0.385-0.309,0.462
			C7.629,29.988,7.564,30,7.5,30z"/>
	</g>
</g>
</svg>
