<?xml version="1.0" encoding="utf-8"?>
<!-- Generator: Adobe Illustrator 16.0.0, SVG Export Plug-In . SVG Version: 6.00 Build 0)  -->
<!DOCTYPE svg PUBLIC "-//W3C//DTD SVG 1.1//EN" "http://www.w3.org/Graphics/SVG/1.1/DTD/svg11.dtd">
<svg version="1.1" xmlns="http://www.w3.org/2000/svg" xmlns:xlink="http://www.w3.org/1999/xlink" x="0px" y="0px" width="32px"
	 height="32px" viewBox="0 0 32 32" enable-background="new 0 0 32 32" xml:space="preserve">
<g id="file_x2C__page_x2C__document">
	<g>
		<g id="XMLID_4059_">
			<g id="XMLID_4060_">
				<path fill="#263238" d="M27.5,31h-21C6.224,31,6,30.776,6,30.5S6.224,30,6.5,30H27V3.5C27,3.224,27.224,3,27.5,3
					S28,3.224,28,3.5v27C28,30.776,27.776,31,27.5,31z"/>
			</g>
			<g id="XMLID_4061_">
				<path fill="#263238" d="M25.5,29h-21C4.224,29,4,28.776,4,28.5v-21C4,7.224,4.224,7,4.5,7S5,7.224,5,7.5V28h20V2H10.5
					C10.224,2,10,1.776,10,1.5S10.224,1,10.5,1h15C25.776,1,26,1.224,26,1.5v27C26,28.776,25.776,29,25.5,29z"/>
			</g>
		</g>
		<g id="XMLID_4064_">
			<g id="XMLID_717_">
				<path fill="#263238" d="M10.5,8H4.521C4.319,8,4.137,7.878,4.06,7.691C3.982,7.505,4.025,7.29,4.167,7.147l5.979-6
					c0.195-0.196,0.511-0.196,0.707-0.002c0.195,0.195,0.196,0.512,0.001,0.707L5.726,7H10V4.5C10,4.224,10.224,4,10.5,4
					S11,4.224,11,4.5v3C11,7.776,10.776,8,10.5,8z"/>
			</g>
		</g>
	</g>
	<g>
		<g id="XMLID_716_">
			<path fill="#263238" d="M17.479,20H7.5C7.224,20,7,19.776,7,19.5S7.224,19,7.5,19h9.979c0.276,0,0.5,0.224,0.5,0.5
				S17.755,20,17.479,20z"/>
		</g>
		<g id="XMLID_715_">
			<path fill="#263238" d="M12.479,18H7.5C7.224,18,7,17.776,7,17.5S7.224,17,7.5,17h4.979c0.276,0,0.5,0.224,0.5,0.5
				S12.755,18,12.479,18z"/>
		</g>
		<g id="XMLID_714_">
			<path fill="#263238" d="M22.479,18H14.5c-0.276,0-0.5-0.224-0.5-0.5s0.224-0.5,0.5-0.5h7.979c0.276,0,0.5,0.224,0.5,0.5
				S22.755,18,22.479,18z"/>
		</g>
		<g id="XMLID_711_">
			<path fill="#263238" d="M22.479,16H17.5c-0.276,0-0.5-0.224-0.5-0.5s0.224-0.5,0.5-0.5h4.979c0.276,0,0.5,0.224,0.5,0.5
				S22.755,16,22.479,16z"/>
		</g>
		<g id="XMLID_705_">
			<path fill="#263238" d="M15.479,16H7.5C7.224,16,7,15.776,7,15.5S7.224,15,7.5,15h7.979c0.276,0,0.5,0.224,0.5,0.5
				S15.755,16,15.479,16z"/>
		</g>
		<g id="XMLID_704_">
			<path fill="#263238" d="M10.479,14H7.5C7.224,14,7,13.776,7,13.5S7.224,13,7.5,13h2.979c0.276,0,0.5,0.224,0.5,0.5
				S10.755,14,10.479,14z"/>
		</g>
		<g id="XMLID_703_">
			<path fill="#263238" d="M22.479,14H12.5c-0.276,0-0.5-0.224-0.5-0.5s0.224-0.5,0.5-0.5h9.979c0.276,0,0.5,0.224,0.5,0.5
				S22.755,14,22.479,14z"/>
		</g>
		<g id="XMLID_701_">
			<path fill="#263238" d="M22.479,12H15.5c-0.276,0-0.5-0.224-0.5-0.5s0.224-0.5,0.5-0.5h6.979c0.276,0,0.5,0.224,0.5,0.5
				S22.755,12,22.479,12z"/>
		</g>
		<g id="XMLID_700_">
			<path fill="#263238" d="M13.479,12H7.5C7.224,12,7,11.776,7,11.5S7.224,11,7.5,11h5.979c0.276,0,0.5,0.224,0.5,0.5
				S13.755,12,13.479,12z"/>
		</g>
	</g>
</g>
</svg>
