<?xml version="1.0" encoding="utf-8"?>
<!-- Generator: Adobe Illustrator 16.0.0, SVG Export Plug-In . SVG Version: 6.00 Build 0)  -->
<!DOCTYPE svg PUBLIC "-//W3C//DTD SVG 1.1//EN" "http://www.w3.org/Graphics/SVG/1.1/DTD/svg11.dtd">
<svg version="1.1" xmlns="http://www.w3.org/2000/svg" xmlns:xlink="http://www.w3.org/1999/xlink" x="0px" y="0px" width="32px"
	 height="32px" viewBox="0 0 32 32" enable-background="new 0 0 32 32" xml:space="preserve">
<g id="file_x2C__completed_x2C__confirmation_x2C__order_x2C__order_completed">
	<g id="file">
		<g>
			<path fill="#263238" d="M17.5,31h-14C3.224,31,3,30.776,3,30.5v-23C3,7.224,3.224,7,3.5,7S4,7.224,4,7.5V30h13.5
				c0.276,0,0.5,0.224,0.5,0.5S17.776,31,17.5,31z"/>
			<path fill="#263238" d="M25.5,17c-0.276,0-0.5-0.224-0.5-0.5V2H9.5C9.224,2,9,1.776,9,1.5S9.224,1,9.5,1h16
				C25.776,1,26,1.224,26,1.5v15C26,16.776,25.776,17,25.5,17z"/>
		</g>
		<g>
			<path fill="#263238" d="M22.5,17L22.5,17c0.276,0,0.5-0.224,0.5-0.5S22.776,16,22.5,16l0,0c-0.276,0-0.5,0.224-0.5,0.5
				S22.224,17,22.5,17z"/>
		</g>
		<g>
			<path fill="#263238" d="M22.5,11L22.5,11c0.276,0,0.5-0.224,0.5-0.5S22.776,10,22.5,10l0,0c-0.276,0-0.5,0.224-0.5,0.5
				S22.224,11,22.5,11z"/>
		</g>
		<g>
			<path fill="#263238" d="M22.5,14L22.5,14c0.276,0,0.5-0.224,0.5-0.5S22.776,13,22.5,13l0,0c-0.276,0-0.5,0.224-0.5,0.5
				S22.224,14,22.5,14z"/>
		</g>
		<g>
			<path fill="#263238" d="M6.5,14h13c0.276,0,0.5-0.224,0.5-0.5S19.776,13,19.5,13h-13C6.224,13,6,13.224,6,13.5S6.224,14,6.5,14z"
				/>
		</g>
		<g>
			<path fill="#263238" d="M6.5,17h13c0.276,0,0.5-0.224,0.5-0.5S19.776,16,19.5,16h-13C6.224,16,6,16.224,6,16.5S6.224,17,6.5,17z"
				/>
		</g>
		<g>
			<path fill="#263238" d="M6.5,23h9c0.276,0,0.5-0.224,0.5-0.5S15.776,22,15.5,22h-9C6.224,22,6,22.224,6,22.5S6.224,23,6.5,23z"/>
		</g>
		<g>
			<path fill="#263238" d="M6.5,20h10c0.276,0,0.5-0.224,0.5-0.5S16.776,19,16.5,19h-10C6.224,19,6,19.224,6,19.5S6.224,20,6.5,20z"
				/>
		</g>
		<g>
			<path fill="#263238" d="M6.5,11h13c0.276,0,0.5-0.224,0.5-0.5S19.776,10,19.5,10h-13C6.224,10,6,10.224,6,10.5S6.224,11,6.5,11z"
				/>
		</g>
	</g>
	<g>
		<g>
			<g>
				<g>
					<path fill="#263238" d="M23.5,31c-3.584,0-6.5-2.916-6.5-6.5s2.916-6.5,6.5-6.5c1.13,0,2.244,0.295,3.22,0.853
						c0.24,0.137,0.323,0.442,0.186,0.682c-0.137,0.24-0.442,0.323-0.682,0.186C25.398,19.25,24.457,19,23.5,19
						c-3.033,0-5.5,2.467-5.5,5.5s2.467,5.5,5.5,5.5s5.5-2.467,5.5-5.5c0-0.467-0.059-0.932-0.174-1.379
						c-0.069-0.268,0.091-0.54,0.359-0.609c0.265-0.069,0.54,0.092,0.609,0.359C29.931,23.4,30,23.948,30,24.5
						C30,28.084,27.084,31,23.5,31z"/>
				</g>
			</g>
		</g>
		<g>
			<g>
				<g>
					<path fill="#263238" d="M23.5,26.699c-0.004,0-0.008,0-0.012,0c-0.145-0.004-0.28-0.069-0.373-0.18l-2.5-3
						c-0.176-0.213-0.147-0.528,0.064-0.705c0.213-0.176,0.527-0.147,0.705,0.064l2.133,2.561l5.548-6.115
						c0.188-0.204,0.504-0.216,0.706-0.031c0.203,0.187,0.217,0.503,0.031,0.707l-5.934,6.537
						C23.773,26.641,23.641,26.699,23.5,26.699z"/>
				</g>
			</g>
		</g>
	</g>
	<g id="XMLID_22_">
		<path fill="#263238" d="M9.5,8H3.521C3.319,8,3.137,7.878,3.06,7.692C2.982,7.505,3.025,7.29,3.167,7.147l5.979-6
			c0.195-0.195,0.511-0.196,0.707-0.001c0.195,0.195,0.196,0.511,0.001,0.707L4.726,7H9V4c0-0.276,0.224-0.5,0.5-0.5S10,3.724,10,4
			v3.5C10,7.776,9.776,8,9.5,8z"/>
	</g>
</g>
</svg>
