<?xml version="1.0" encoding="utf-8"?>
<!-- Generator: Adobe Illustrator 16.0.0, SVG Export Plug-In . SVG Version: 6.00 Build 0)  -->
<!DOCTYPE svg PUBLIC "-//W3C//DTD SVG 1.1//EN" "http://www.w3.org/Graphics/SVG/1.1/DTD/svg11.dtd">
<svg version="1.1" id="Layer_1" xmlns="http://www.w3.org/2000/svg" xmlns:xlink="http://www.w3.org/1999/xlink" x="0px" y="0px"
	 width="32px" height="32px" viewBox="0 0 32 32" enable-background="new 0 0 32 32" xml:space="preserve">
<g id="financial_report_x2C__flip_chart_x2C__chart">
	<g id="training_1_">
		<g>
			<g>
				<g>
					<g>
						<path fill="#263238" d="M28.5,4h-25C2.673,4,2,3.327,2,2.5S2.673,1,3.5,1h25C29.327,1,30,1.673,30,2.5S29.327,4,28.5,4z
							 M3.5,2C3.225,2,3,2.224,3,2.5S3.225,3,3.5,3h25C28.775,3,29,2.776,29,2.5S28.775,2,28.5,2H3.5z"/>
					</g>
				</g>
			</g>
		</g>
		<g>
			<g>
				<g>
					<path fill="#263238" d="M20.499,31c-0.239,0-0.451-0.173-0.492-0.418l-0.5-3c-0.046-0.272,0.139-0.53,0.411-0.575
						c0.268-0.048,0.529,0.139,0.575,0.411l0.5,3c0.046,0.272-0.139,0.53-0.411,0.575C20.555,30.998,20.526,31,20.499,31z"/>
				</g>
			</g>
		</g>
		<g>
			<g>
				<g>
					<path fill="#263238" d="M11.501,31c-0.027,0-0.056-0.002-0.083-0.007c-0.272-0.045-0.457-0.303-0.411-0.575l0.5-3
						c0.046-0.272,0.31-0.459,0.575-0.411c0.272,0.045,0.457,0.303,0.411,0.575l-0.5,3C11.952,30.827,11.74,31,11.501,31z"/>
				</g>
			</g>
		</g>
		<g>
			<g>
				<g>
					<path fill="#263238" d="M9.5,10h-4C5.224,10,5,9.776,5,9.5S5.224,9,5.5,9h4C9.776,9,10,9.224,10,9.5S9.776,10,9.5,10z"/>
				</g>
			</g>
		</g>
		<g>
			<g>
				<g>
					<path fill="#263238" d="M9.5,8h-4C5.224,8,5,7.776,5,7.5S5.224,7,5.5,7h4C9.776,7,10,7.224,10,7.5S9.776,8,9.5,8z"/>
				</g>
			</g>
		</g>
		<g>
			<g>
				<g>
					<path fill="#263238" d="M28.5,26h-25C3.224,26,3,25.776,3,25.5v-20C3,5.224,3.224,5,3.5,5S4,5.224,4,5.5V25h24V5.5
						C28,5.224,28.224,5,28.5,5S29,5.224,29,5.5v20C29,25.776,28.776,26,28.5,26z"/>
				</g>
			</g>
		</g>
	</g>
	<g>
		<g>
			<g>
				<g>
					<path fill="#263238" d="M13.5,21c-0.276,0-0.5-0.224-0.5-0.5v-8c0-0.276,0.224-0.5,0.5-0.5s0.5,0.224,0.5,0.5v8
						C14,20.776,13.776,21,13.5,21z"/>
				</g>
			</g>
		</g>
		<g>
			<g>
				<g>
					<path fill="#263238" d="M11.5,21c-0.276,0-0.5-0.224-0.5-0.5v-6c0-0.276,0.224-0.5,0.5-0.5s0.5,0.224,0.5,0.5v6
						C12,20.776,11.776,21,11.5,21z"/>
				</g>
			</g>
		</g>
		<g>
			<g>
				<g>
					<path fill="#263238" d="M9.5,21C9.224,21,9,20.776,9,20.5v-4C9,16.224,9.224,16,9.5,16s0.5,0.224,0.5,0.5v4
						C10,20.776,9.776,21,9.5,21z"/>
				</g>
			</g>
		</g>
		<g>
			<g>
				<g>
					<path fill="#263238" d="M5.5,21C5.224,21,5,20.776,5,20.5v-2C5,18.224,5.224,18,5.5,18S6,18.224,6,18.5v2
						C6,20.776,5.776,21,5.5,21z"/>
				</g>
			</g>
		</g>
		<g>
			<g>
				<g>
					<path fill="#263238" d="M7.5,21C7.224,21,7,20.776,7,20.5v-5C7,15.224,7.224,15,7.5,15S8,15.224,8,15.5v5
						C8,20.776,7.776,21,7.5,21z"/>
				</g>
			</g>
		</g>
		<g>
			<g>
				<g>
					<path fill="#263238" d="M13.5,23h-8C5.224,23,5,22.776,5,22.5S5.224,22,5.5,22h8c0.276,0,0.5,0.224,0.5,0.5S13.776,23,13.5,23z
						"/>
				</g>
			</g>
		</g>
	</g>
	<g>
		<g>
			<g>
				<path fill="#263238" d="M25.984,7.29l-3.172,3.429l-2.386-1.023c-0.18-0.083-0.393-0.052-0.539,0.079l-2.797,2.351
					c-0.208,0.183-0.228,0.499-0.045,0.706c0.1,0.112,0.236,0.169,0.375,0.169c0.117,0,0.236-0.041,0.33-0.125l2.553-2.136
					l2.416,1.038c0.193,0.089,0.425,0.046,0.572-0.11l3.276-3.537C26.296,7.908,26.1,7.616,25.984,7.29z"/>
			</g>
		</g>
	</g>
	<g>
		<g>
			<g>
				<g>
					<g>
						<path fill="#263238" d="M26.5,10.5c-0.276,0-0.5-0.224-0.5-0.5V8h-2c-0.276,0-0.5-0.224-0.5-0.5S23.724,7,24,7h2.5
							C26.776,7,27,7.224,27,7.5V10C27,10.276,26.776,10.5,26.5,10.5z"/>
					</g>
				</g>
			</g>
		</g>
	</g>
	<g>
		<g>
			<g>
				<path fill="#263238" d="M17.5,16.5h9H17.5z"/>
			</g>
		</g>
		<g>
			<g>
				<path fill="#263238" d="M26.5,17h-9c-0.276,0-0.5-0.224-0.5-0.5s0.224-0.5,0.5-0.5h9c0.276,0,0.5,0.224,0.5,0.5
					S26.776,17,26.5,17z"/>
			</g>
		</g>
	</g>
	<g>
		<g>
			<g>
				<path fill="#263238" d="M17.5,18.5h9H17.5z"/>
			</g>
		</g>
		<g>
			<g>
				<path fill="#263238" d="M26.5,19h-9c-0.276,0-0.5-0.224-0.5-0.5s0.224-0.5,0.5-0.5h9c0.276,0,0.5,0.224,0.5,0.5
					S26.776,19,26.5,19z"/>
			</g>
		</g>
	</g>
	<g>
		<g>
			<g>
				<path fill="#263238" d="M17.5,20.5h9H17.5z"/>
			</g>
		</g>
		<g>
			<g>
				<path fill="#263238" d="M26.5,21h-9c-0.276,0-0.5-0.224-0.5-0.5s0.224-0.5,0.5-0.5h9c0.276,0,0.5,0.224,0.5,0.5
					S26.776,21,26.5,21z"/>
			</g>
		</g>
	</g>
	<g>
		<g>
			<g>
				<path fill="#263238" d="M17.5,22.5h6H17.5z"/>
			</g>
		</g>
		<g>
			<g>
				<path fill="#263238" d="M23.5,23h-6c-0.276,0-0.5-0.224-0.5-0.5s0.224-0.5,0.5-0.5h6c0.276,0,0.5,0.224,0.5,0.5
					S23.776,23,23.5,23z"/>
			</g>
		</g>
	</g>
</g>
</svg>
