<?xml version="1.0" encoding="utf-8"?>
<!-- Generator: Adobe Illustrator 16.0.0, SVG Export Plug-In . SVG Version: 6.00 Build 0)  -->
<!DOCTYPE svg PUBLIC "-//W3C//DTD SVG 1.1//EN" "http://www.w3.org/Graphics/SVG/1.1/DTD/svg11.dtd">
<svg version="1.1" id="Layer_1" xmlns="http://www.w3.org/2000/svg" xmlns:xlink="http://www.w3.org/1999/xlink" x="0px" y="0px"
	 width="32px" height="32px" viewBox="0 0 32 32" enable-background="new 0 0 32 32" xml:space="preserve">
<g id="finance_x2C__finances_x2C__saving_x2C__bag_1_">
	<g id="business_success_2_">
		<g>
			<g>
				<g>
					<path fill="#263238" d="M28.178,31H3.821c-0.29,0-0.549-0.124-0.713-0.339c-0.164-0.214-0.214-0.498-0.137-0.776l0.248-0.906
						c0.058-0.203,0.123-0.423,0.191-0.652C3.687,27.407,4,26.364,4,25.51v-5.917c0-2.956,1.052-5.766,2.963-7.913
						c0.183-0.206,0.501-0.225,0.706-0.042c0.207,0.184,0.225,0.5,0.042,0.707C5.962,14.31,5,16.883,5,19.594v5.917
						c0,1.001-0.351,2.167-0.631,3.104c-0.067,0.224-0.13,0.437-0.187,0.634L3.977,30h24.046l-0.206-0.75
						c-0.056-0.198-0.12-0.412-0.187-0.635C27.35,27.677,27,26.511,27,25.51v-5.917C27,13.653,22.539,9,16.844,9h-1.689
						c-1.909,0-3.755,0.535-5.34,1.546c-0.233,0.148-0.542,0.081-0.69-0.153c-0.148-0.233-0.081-0.542,0.152-0.69
						C11.023,8.589,13.056,8,15.155,8h1.689C23.1,8,28,13.093,28,19.594v5.917c0,0.854,0.313,1.896,0.589,2.817
						c0.068,0.229,0.134,0.449,0.191,0.652l0.249,0.907c0.077,0.277,0.027,0.561-0.138,0.775C28.728,30.876,28.468,31,28.178,31z"/>
				</g>
			</g>
		</g>
	</g>
	<g>
		<g>
			<path fill="#263238" d="M17,9h-2c-0.182,0-0.348-0.098-0.437-0.256c-1.286-2.304-3.35-6.323-2.736-7.368
				C11.968,1.137,12.213,1,12.5,1c0.788,0,1.302,0.263,1.801,0.517C14.787,1.765,15.248,2,16.03,2c0.779,0,1.222-0.233,1.691-0.48
				C18.184,1.276,18.708,1,19.5,1c0.287,0,0.532,0.137,0.672,0.376c0.613,1.045-1.451,5.064-2.736,7.368C17.348,8.902,17.181,9,17,9
				z M15.294,8h1.412c1.313-2.389,2.575-5.165,2.606-5.993c-0.439,0.037-0.747,0.199-1.125,0.398C17.657,2.684,17.057,3,16.03,3
				c-1.024,0-1.64-0.315-2.184-0.593c-0.394-0.201-0.714-0.364-1.158-0.4C12.719,2.835,13.981,5.611,15.294,8z"/>
		</g>
	</g>
	<g>
		<g>
			<g>
				<g>
					<g>
						<g>
							<g>
								<g>
									<path fill="#263238" d="M16.5,25.5c-0.277,0-0.5-0.224-0.5-0.5v-1.5h1V25C17,25.276,16.776,25.5,16.5,25.5z"/>
								</g>
							</g>
						</g>
					</g>
				</g>
			</g>
			<g>
				<g>
					<g>
						<g>
							<g>
								<g>
									<path fill="#263238" d="M16,14.502v-1.5c0-0.276,0.223-0.5,0.5-0.5c0.276,0,0.5,0.224,0.5,0.5v1.5H16z"/>
								</g>
							</g>
						</g>
					</g>
				</g>
			</g>
		</g>
	</g>
	<g>
		<g>
			<path fill="#263238" d="M16.467,24.084c-1.038,0-2.237-0.411-3.32-1.546c-0.191-0.2-0.183-0.517,0.017-0.708
				c0.199-0.19,0.516-0.184,0.707,0.017c1.268,1.329,2.689,1.413,3.598,1.051c0.817-0.327,1.324-1.038,1.324-1.854
				c0-1.082-0.896-1.527-2.37-2.131c-1.262-0.517-2.691-1.103-2.691-2.617c0-0.928,0.437-1.654,1.229-2.045
				c1.247-0.613,3.003-0.24,3.913,0.46c0.219,0.169,0.261,0.482,0.092,0.702c-0.167,0.218-0.481,0.26-0.701,0.092
				c-0.662-0.51-2.001-0.782-2.862-0.357c-0.451,0.223-0.671,0.599-0.671,1.148c0,0.787,0.782,1.164,2.07,1.691
				c1.332,0.546,2.991,1.226,2.991,3.057c0,1.234-0.749,2.3-1.953,2.782C17.442,23.986,16.973,24.084,16.467,24.084z"/>
		</g>
	</g>
</g>
</svg>
