<?xml version="1.0" encoding="utf-8"?>
<!-- Generator: Adobe Illustrator 16.0.0, SVG Export Plug-In . SVG Version: 6.00 Build 0)  -->
<!DOCTYPE svg PUBLIC "-//W3C//DTD SVG 1.1//EN" "http://www.w3.org/Graphics/SVG/1.1/DTD/svg11.dtd">
<svg version="1.1" id="_x3C_Layer_x3E_" xmlns="http://www.w3.org/2000/svg" xmlns:xlink="http://www.w3.org/1999/xlink" x="0px"
	 y="0px" width="32px" height="32px" viewBox="0 0 32 32" enable-background="new 0 0 32 32" xml:space="preserve">
<g id="glasses_x2C__reality_x2C__virtual_x2C__virtual_reality_x2C__vr_x2C__vr_glasses_1_">
	<g>
		<path fill="#263238" d="M22.467,26H13.5c-1.378,0-2.5-1.122-2.5-2.5c0-0.276,0.224-0.5,0.5-0.5s0.5,0.224,0.5,0.5
			c0,0.827,0.673,1.5,1.5,1.5h8.967c0.276,0,0.5,0.224,0.5,0.5S22.743,26,22.467,26z"/>
		<path fill="#263238" d="M17.5,31c-0.017,0-0.033-0.001-0.05-0.002c-0.275-0.027-0.475-0.272-0.448-0.547l0.5-5
			C17.528,25.195,17.743,25,18,25h4.5c0.276,0,0.5-0.224,0.5-0.5v-5c0-0.276,0.224-0.5,0.5-0.5H26c0.276,0,0.5,0.224,0.5,0.5
			S26.276,20,26,20h-2v4.5c0,0.827-0.673,1.5-1.5,1.5h-4.047l-0.455,4.55C17.972,30.808,17.754,31,17.5,31z"/>
	</g>
	<path fill="#263238" d="M15.5,12h-12C3.224,12,3,11.776,3,11.5v-2C3,9.224,3.224,9,3.5,9h11C14.776,9,15,8.776,15,8.5
		S14.776,8,14.5,8h-11C2.673,8,2,8.673,2,9.5v2C2,12.327,2.673,13,3.5,13h12V12z"/>
	<g>
		<path fill="#263238" d="M28.5,18h-9c-2.481,0-4.5-2.019-4.5-4.5v-2C15,9.019,17.019,7,19.5,7h9C29.327,7,30,7.673,30,8.5v8
			C30,17.327,29.327,18,28.5,18z M19.5,8C17.57,8,16,9.57,16,11.5v2c0,1.93,1.57,3.5,3.5,3.5h9c0.276,0,0.5-0.224,0.5-0.5v-8
			C29,8.224,28.776,8,28.5,8H19.5z"/>
	</g>
	<g>
		<path fill="#263238" d="M18.5,12c-0.276,0-0.5-0.224-0.5-0.5v-2C18,9.224,18.224,9,18.5,9S19,9.224,19,9.5v2
			C19,11.776,18.776,12,18.5,12z"/>
	</g>
	<g>
		<path fill="#263238" d="M27.5,18c-0.276,0-0.5-0.224-0.5-0.5v-8C27,9.224,27.224,9,27.5,9S28,9.224,28,9.5v8
			C28,17.776,27.776,18,27.5,18z"/>
	</g>
	<g>
		<path fill="#263238" d="M4.029,12.5H3.5c-0.177,0-0.335-0.059-0.479-0.139c0.111,4.274,2.098,7.316,3.188,8.965
			c0.717,1.085-0.047,6.136-0.697,9.065c-0.06,0.27,0.11,0.537,0.38,0.597C5.928,30.996,5.964,31,6,31
			c0.229,0,0.436-0.159,0.488-0.392c0.296-1.334,1.714-8.078,0.555-9.833C6.023,19.232,4.181,16.403,4.029,12.5z"/>
		<path fill="#263238" d="M13.5,1C8.694,1,4.842,4.052,3.509,8.5h1.058C5.858,4.631,9.268,2,13.5,2c4.141,0,7.7,2.277,9.218,5.5
			h1.073C22.226,3.709,18.209,1,13.5,1z"/>
	</g>
</g>
</svg>
