<?xml version="1.0" encoding="utf-8"?>
<!-- Generator: Adobe Illustrator 16.0.0, SVG Export Plug-In . SVG Version: 6.00 Build 0)  -->
<!DOCTYPE svg PUBLIC "-//W3C//DTD SVG 1.1//EN" "http://www.w3.org/Graphics/SVG/1.1/DTD/svg11.dtd">
<svg version="1.1" xmlns="http://www.w3.org/2000/svg" xmlns:xlink="http://www.w3.org/1999/xlink" x="0px" y="0px" width="32px"
	 height="32px" viewBox="0 0 32 32" enable-background="new 0 0 32 32" xml:space="preserve">
<g id="globe">
	<g>
		<g id="XMLID_4440_">
			<path fill="#263238" d="M30.5,16.5h-29C1.224,16.5,1,16.276,1,16s0.224-0.5,0.5-0.5h29c0.276,0,0.5,0.224,0.5,0.5
				S30.776,16.5,30.5,16.5z"/>
		</g>
		<g id="XMLID_4521_">
			<path fill="#263238" d="M16,31c-0.276,0-0.5-0.224-0.5-0.5v-29C15.5,1.224,15.724,1,16,1s0.5,0.224,0.5,0.5v29
				C16.5,30.776,16.276,31,16,31z"/>
		</g>
		<g id="XMLID_4546_">
			<path fill="#263238" d="M15.973,30.949c-0.176,0-0.347-0.093-0.438-0.258c-0.134-0.242-0.046-0.546,0.196-0.68
				C20.831,27.192,24,21.823,24,16c0-5.821-3.168-11.19-8.268-14.011c-0.241-0.134-0.329-0.438-0.195-0.68s0.438-0.327,0.68-0.195
				C21.634,4.11,25,9.814,25,16c0,6.187-3.367,11.892-8.786,14.887C16.137,30.929,16.054,30.949,15.973,30.949z"/>
		</g>
		<g id="XMLID_4578_">
			<path fill="#263238" d="M16,8c-2.73,0-5.454-0.291-8.095-0.864c-0.27-0.059-0.441-0.324-0.383-0.595
				C7.581,6.271,7.847,6.1,8.117,6.159c5.993,1.299,12.386,1.081,18.275-0.638c0.265-0.077,0.542,0.074,0.62,0.34
				c0.077,0.265-0.075,0.542-0.34,0.619C23.22,7.489,19.629,8,16,8z"/>
		</g>
		<g id="XMLID_4615_">
			<path fill="#263238" d="M26.502,26.49c-0.046,0-0.093-0.006-0.14-0.02c-6.64-1.933-13.883-1.95-20.524-0.059
				c-0.264,0.08-0.542-0.078-0.618-0.344s0.078-0.542,0.344-0.617c6.824-1.944,14.259-1.926,21.078,0.059
				c0.265,0.077,0.417,0.355,0.34,0.62C26.918,26.349,26.719,26.49,26.502,26.49z"/>
		</g>
		<g id="XMLID_4629_">
			<path fill="#263238" d="M16.025,30.948c-0.082,0-0.165-0.021-0.242-0.063C10.366,27.89,7,22.186,7,16
				c0-4.859,2.087-9.498,5.728-12.726c0.205-0.185,0.522-0.166,0.706,0.042c0.183,0.207,0.165,0.522-0.042,0.706
				C9.965,7.061,8,11.426,8,16c0,5.821,3.168,11.19,8.268,14.011c0.241,0.134,0.329,0.438,0.195,0.68
				C16.372,30.855,16.202,30.948,16.025,30.948z"/>
		</g>
		<g id="XMLID_4661_">
			<path fill="#263238" d="M16,31C7.729,31,1,24.271,1,16c0-4.377,1.906-8.525,5.229-11.381C6.439,4.44,6.754,4.462,6.935,4.672
				c0.18,0.21,0.156,0.525-0.054,0.705C3.779,8.043,2,11.914,2,16c0,7.72,6.28,14,14,14s14-6.28,14-14S23.72,2,16,2
				c-1.92,0-3.781,0.382-5.53,1.134c-0.254,0.112-0.548-0.008-0.657-0.262c-0.109-0.253,0.008-0.548,0.262-0.656
				C11.95,1.409,13.943,1,16,1c8.271,0,15,6.729,15,15S24.271,31,16,31z"/>
		</g>
		<g id="XMLID_1112_">
			<g>
				<g>
					<path fill="#263238" d="M8.5,4C8.37,4,8.24,3.95,8.15,3.85C8.05,3.76,8,3.63,8,3.5s0.05-0.26,0.15-0.351
						c0.18-0.189,0.52-0.189,0.7,0C8.95,3.24,9,3.37,9,3.5S8.95,3.76,8.85,3.85C8.76,3.95,8.63,4,8.5,4z"/>
				</g>
			</g>
		</g>
	</g>
</g>
</svg>
