<?xml version="1.0" encoding="utf-8"?>
<!-- Generator: Adobe Illustrator 16.0.0, SVG Export Plug-In . SVG Version: 6.00 Build 0)  -->
<!DOCTYPE svg PUBLIC "-//W3C//DTD SVG 1.1//EN" "http://www.w3.org/Graphics/SVG/1.1/DTD/svg11.dtd">
<svg version="1.1" id="Layer_1" xmlns="http://www.w3.org/2000/svg" xmlns:xlink="http://www.w3.org/1999/xlink" x="0px" y="0px"
	 width="32px" height="32px" viewBox="0 0 32 32" enable-background="new 0 0 32 32" xml:space="preserve">
<g id="growth_1_">
	<g>
		<g>
			<path fill="#263238" d="M30.5,31h-4c-0.276,0-0.5-0.225-0.5-0.5v-13c0-0.275,0.224-0.5,0.5-0.5s0.5,0.225,0.5,0.5V30h3V8.5
				C30,8.223,30.224,8,30.5,8S31,8.223,31,8.5v22C31,30.775,30.776,31,30.5,31z"/>
		</g>
	</g>
	<path fill="#263238" d="M22,30h-3v-2.5c0-0.276-0.224-0.5-0.5-0.5l0,0c-0.276,0-0.5,0.224-0.5,0.5v3c0,0.275,0.224,0.5,0.5,0.5h4
		c0.276,0,0.5-0.225,0.5-0.5v-7c0-0.276-0.224-0.5-0.5-0.5S22,23.224,22,23.5V30z"/>
	<g>
		<path fill="#263238" d="M29.494,30h-28c-0.276,0-0.5,0.224-0.5,0.5s0.224,0.5,0.5,0.5h28c0.276,0,0.5-0.224,0.5-0.5
			S29.771,30,29.494,30z"/>
	</g>
	<g>
		<path fill="#263238" d="M10.5,27.5c-0.276,0-0.5-0.225-0.5-0.5V16.5c0-0.277,0.224-0.5,0.5-0.5h4c0.276,0,0.5,0.223,0.5,0.5v8
			c0,0.275-0.224,0.5-0.5,0.5S14,24.775,14,24.5V17h-3v10C11,27.275,10.776,27.5,10.5,27.5z"/>
	</g>
	<g>
		<path fill="#263238" d="M2.5,29C2.224,29,2,28.775,2,28.5v-8C2,20.223,2.224,20,2.5,20h4C6.776,20,7,20.223,7,20.5V28
			c0,0.275-0.224,0.5-0.5,0.5S6,28.275,6,28v-7H3v7.5C3,28.775,2.776,29,2.5,29z"/>
	</g>
	<g>
		<path fill="#263238" d="M18.5,20c-0.276,0-0.5-0.223-0.5-0.5v-7c0-0.277,0.224-0.5,0.5-0.5h2c0.276,0,0.5,0.223,0.5,0.5
			c0,0.275-0.224,0.5-0.5,0.5H19v6.5C19,19.777,18.776,20,18.5,20z"/>
	</g>
	<g>
		<path fill="#263238" d="M3.5,31C3.224,31,3,30.776,3,30.5S3.224,30,3.5,30C13.701,30,22,21.701,22,11.5V9h-1.5
			c-0.179,0-0.343-0.095-0.433-0.249c-0.089-0.154-0.09-0.345-0.002-0.499l4-7c0.18-0.312,0.689-0.312,0.869,0l4,7
			c0.088,0.154,0.087,0.345-0.002,0.499C28.843,8.905,28.679,9,28.5,9H27v2.5c0,0.276-0.224,0.5-0.5,0.5S26,11.776,26,11.5v-3
			C26,8.224,26.224,8,26.5,8h1.139L24.5,2.508L21.361,8H22.5C22.776,8,23,8.224,23,8.5v3C23,22.252,14.252,31,3.5,31z"/>
	</g>
	<g>
		<circle fill="#263238" cx="26.5" cy="13.5" r="0.5"/>
	</g>
</g>
</svg>
