<?xml version="1.0" encoding="utf-8"?>
<!-- Generator: Adobe Illustrator 16.0.0, SVG Export Plug-In . SVG Version: 6.00 Build 0)  -->
<!DOCTYPE svg PUBLIC "-//W3C//DTD SVG 1.1//EN" "http://www.w3.org/Graphics/SVG/1.1/DTD/svg11.dtd">
<svg version="1.1" xmlns="http://www.w3.org/2000/svg" xmlns:xlink="http://www.w3.org/1999/xlink" x="0px" y="0px" width="32px"
	 height="32px" viewBox="0 0 32 32" enable-background="new 0 0 32 32" xml:space="preserve">
<g id="growth_traffic_analysis_laptop_report">
	<g id="research_and_analytic_3_">
		<g>
			<path fill="#263238" d="M23.5,22.001c-0.276,0-0.5-0.224-0.5-0.5v-6.5c0-0.276,0.224-0.5,0.5-0.5s0.5,0.224,0.5,0.5v6.5
				C24,21.777,23.776,22.001,23.5,22.001z"/>
			<path fill="#263238" d="M21.5,22.001c-0.276,0-0.5-0.224-0.5-0.5v-5c0-0.276,0.224-0.5,0.5-0.5s0.5,0.224,0.5,0.5v5
				C22,21.777,21.776,22.001,21.5,22.001z"/>
			<path fill="#263238" d="M19.5,22.001c-0.276,0-0.5-0.224-0.5-0.5v-6c0-0.276,0.224-0.5,0.5-0.5s0.5,0.224,0.5,0.5v6
				C20,21.777,19.776,22.001,19.5,22.001z"/>
			<path fill="#263238" d="M17.5,22.001c-0.276,0-0.5-0.224-0.5-0.5v-5.5c0-0.276,0.224-0.5,0.5-0.5s0.5,0.224,0.5,0.5v5.5
				C18,21.777,17.776,22.001,17.5,22.001z"/>
			<path fill="#263238" d="M15.5,22.001c-0.276,0-0.5-0.224-0.5-0.5v-3c0-0.276,0.224-0.5,0.5-0.5s0.5,0.224,0.5,0.5v3
				C16,21.777,15.776,22.001,15.5,22.001z"/>
			<path fill="#263238" d="M13.5,22.001c-0.276,0-0.5-0.224-0.5-0.5v-2c0-0.276,0.224-0.5,0.5-0.5s0.5,0.224,0.5,0.5v2
				C14,21.777,13.776,22.001,13.5,22.001z"/>
			<path fill="#263238" d="M11.5,22.001c-0.276,0-0.5-0.224-0.5-0.5v-2.5c0-0.276,0.224-0.5,0.5-0.5s0.5,0.224,0.5,0.5v2.5
				C12,21.777,11.776,22.001,11.5,22.001z"/>
			<path fill="#263238" d="M7.5,22.001c-0.276,0-0.5-0.224-0.5-0.5l0,0c0-0.276,0.224-0.5,0.5-0.5s0.5,0.224,0.5,0.5l0,0
				C8,21.777,7.776,22.001,7.5,22.001z"/>
			<path fill="#263238" d="M9.5,22.001c-0.276,0-0.5-0.224-0.5-0.5v-2c0-0.276,0.224-0.5,0.5-0.5s0.5,0.224,0.5,0.5v2
				C10,21.777,9.776,22.001,9.5,22.001z"/>
			<path fill="#263238" d="M24.5,24.001h-17c-0.276,0-0.5-0.224-0.5-0.5s0.224-0.5,0.5-0.5h17c0.276,0,0.5,0.224,0.5,0.5
				S24.776,24.001,24.5,24.001z"/>
		</g>
		<path fill="#263238" d="M7,19.5c-0.128,0-0.256-0.049-0.354-0.146c-0.195-0.195-0.195-0.512,0-0.707l4-4
			c0.195-0.195,0.512-0.195,0.707,0L13,16.293l5.146-5.146c0.195-0.195,0.512-0.195,0.707,0L21,13.293l7.646-7.646
			c0.195-0.195,0.512-0.195,0.707,0s0.195,0.512,0,0.707l-8,7.999c-0.195,0.195-0.512,0.195-0.707,0L18.5,12.208l-5.146,5.146
			c-0.195,0.195-0.512,0.195-0.707,0L11,15.707l-3.646,3.646C7.256,19.451,7.128,19.5,7,19.5z"/>
	</g>
	<g>
		<g>
			<path fill="#263238" d="M28.5,29h-25C2.121,29,1,27.878,1,26.5C1,26.224,1.224,26,1.5,26h11c0.276,0,0.5,0.224,0.5,0.5
				S12.776,27,12.5,27H2.086c0.206,0.582,0.762,1,1.414,1h25c0.652,0,1.208-0.418,1.414-1H19.5c-0.276,0-0.5-0.224-0.5-0.5
				s0.224-0.5,0.5-0.5h11c0.276,0,0.5,0.224,0.5,0.5C31,27.878,29.879,29,28.5,29z"/>
		</g>
	</g>
	<path fill="#263238" d="M29,10.5c-0.019,0-0.037-0.001-0.056-0.003c-0.274-0.031-0.472-0.278-0.442-0.552l0.431-3.879l-3.879,0.431
		c-0.277,0.028-0.521-0.168-0.552-0.442c-0.03-0.274,0.167-0.521,0.442-0.552l4.5-0.5c0.154-0.016,0.302,0.037,0.409,0.144
		c0.107,0.107,0.16,0.258,0.144,0.409l-0.5,4.5C29.469,10.311,29.252,10.5,29,10.5z"/>
	<g>
		<path fill="#263238" d="M28,12.5v12c0,0.276,0.224,0.5,0.5,0.5s0.5-0.224,0.5-0.5v-12c0-0.276-0.224-0.5-0.5-0.5l0,0
			C28.224,12,28,12.224,28,12.5z"/>
		<path fill="#263238" d="M22.5,7h-18C3.673,7,3,7.673,3,8.5v16C3,24.776,3.224,25,3.5,25S4,24.776,4,24.5v-16
			C4,8.224,4.225,8,4.5,8h18C22.776,8,23,7.776,23,7.5l0,0C23,7.224,22.776,7,22.5,7z"/>
	</g>
</g>
</svg>
