<?xml version="1.0" encoding="utf-8"?>
<!-- Generator: Adobe Illustrator 16.0.0, SVG Export Plug-In . SVG Version: 6.00 Build 0)  -->
<!DOCTYPE svg PUBLIC "-//W3C//DTD SVG 1.1//EN" "http://www.w3.org/Graphics/SVG/1.1/DTD/svg11.dtd">
<svg version="1.1" id="_x3C_Layer_x3E_" xmlns="http://www.w3.org/2000/svg" xmlns:xlink="http://www.w3.org/1999/xlink" x="0px"
	 y="0px" width="32px" height="32px" viewBox="0 0 32 32" enable-background="new 0 0 32 32" xml:space="preserve">
<g id="headphones_x2C__music_x2C__sound">
	<path fill="#263238" d="M25.701,7.971c-0.137,0-0.273-0.056-0.372-0.166C23.058,5.28,19.919,4,16,4
		c-3.897,0-7.023,1.267-9.292,3.765C6.523,7.97,6.206,7.985,6.002,7.799c-0.205-0.186-0.22-0.502-0.034-0.706
		C8.399,4.415,11.868,3,16,3c4.155,0,7.638,1.431,10.072,4.137c0.185,0.206,0.168,0.521-0.037,0.706
		C25.939,7.929,25.82,7.971,25.701,7.971z"/>
	<g>
		<path fill="#263238" d="M23.972,31.01L23.972,31.01c-0.001,0-0.033,0-0.035,0l-1-0.01c-0.161-0.001-0.311-0.081-0.404-0.211
			c-0.092-0.131-0.116-0.299-0.064-0.451l3.907-11.346c0.052-0.152,0.174-0.27,0.328-0.316c0.154-0.047,0.321-0.016,0.449,0.082
			l0.794,0.608c1.198,0.917,1.672,2.492,1.181,3.918l-1.848,5.366C26.794,30.062,25.465,31.01,23.972,31.01z M23.641,30.007
			l0.306,0.003l0.025,0.5v-0.5c1.066,0,2.017-0.677,2.364-1.686l1.848-5.366c0.351-1.02,0.012-2.145-0.844-2.799l-0.243-0.186
			L23.641,30.007z"/>
		<path fill="#263238" d="M22.942,31c-0.054,0-0.109-0.009-0.163-0.027l-1.418-0.488c-1.304-0.449-1.999-1.875-1.55-3.177
			l2.605-7.564c0.437-1.27,1.896-1.99,3.178-1.55l1.418,0.488c0.125,0.043,0.229,0.134,0.287,0.253s0.067,0.257,0.023,0.382
			l-3.907,11.346C23.343,30.87,23.149,31,22.942,31z M24.779,19.056c-0.64,0-1.209,0.407-1.418,1.012l-2.605,7.564
			c-0.269,0.782,0.148,1.637,0.931,1.907l0.945,0.325l3.582-10.4l-0.945-0.326C25.109,19.083,24.945,19.056,24.779,19.056z"/>
	</g>
	<g>
		<path fill="#263238" d="M16,1C7.364,1,2,7.131,2,17c0,2.578,0.52,5.039,1.544,7.314c0.058,0.127,0.167,0.201,0.289,0.246
			l-0.496-1.439c-0.258-0.749-0.201-1.546,0.115-2.233C3.161,19.631,3,18.335,3,17C3,9.749,6.415,2,16,2s13,7.749,13,15
			c0,1.337-0.163,2.636-0.457,3.896c0.313,0.685,0.369,1.479,0.112,2.225l-0.481,1.397c0.133-0.041,0.249-0.132,0.31-0.27
			C29.49,21.99,30,19.552,30,17C30,7.131,24.636,1,16,1z"/>
		<path fill="#263238" d="M8.022,31.01c-1.495,0-2.821-0.945-3.309-2.36l-1.848-5.366c-0.491-1.427-0.016-3.001,1.182-3.918
			l0.793-0.608c0.22-0.167,0.533-0.125,0.701,0.093c0.168,0.219,0.126,0.533-0.093,0.701l-0.794,0.608
			c-0.856,0.655-1.195,1.78-0.845,2.799l1.848,5.366c0.351,1.019,1.343,1.697,2.388,1.686l0.306-0.003l-3.029-8.798
			c-0.09-0.261,0.049-0.545,0.31-0.635c0.261-0.089,0.545,0.049,0.635,0.31l3.255,9.454c0.052,0.152,0.028,0.32-0.064,0.451
			C9.368,30.919,9.217,30.999,9.057,31l-1,0.01C8.045,31.01,8.033,31.01,8.022,31.01z"/>
		<path fill="#263238" d="M9.052,31c-0.208,0-0.401-0.13-0.473-0.337c-0.09-0.261,0.049-0.545,0.31-0.635l1.418-0.488
			c0.378-0.131,0.684-0.401,0.86-0.761c0.175-0.36,0.2-0.767,0.07-1.145l-2.604-7.565c-0.13-0.379-0.4-0.684-0.761-0.86
			c-0.36-0.175-0.766-0.199-1.146-0.07l-1.419,0.488c-0.26,0.091-0.545-0.049-0.635-0.31c-0.09-0.261,0.049-0.545,0.31-0.635
			l1.418-0.488c0.631-0.217,1.31-0.176,1.91,0.117c0.6,0.292,1.05,0.802,1.268,1.433l2.604,7.564
			c0.218,0.631,0.176,1.309-0.117,1.909c-0.292,0.6-0.801,1.051-1.433,1.268l-1.419,0.488C9.161,30.991,9.105,31,9.052,31z"/>
	</g>
</g>
</svg>
