<?xml version="1.0" encoding="utf-8"?>
<!-- Generator: Adobe Illustrator 16.0.0, SVG Export Plug-In . SVG Version: 6.00 Build 0)  -->
<!DOCTYPE svg PUBLIC "-//W3C//DTD SVG 1.1//EN" "http://www.w3.org/Graphics/SVG/1.1/DTD/svg11.dtd">
<svg version="1.1" xmlns="http://www.w3.org/2000/svg" xmlns:xlink="http://www.w3.org/1999/xlink" x="0px" y="0px" width="32px"
	 height="32px" viewBox="0 0 32 32" enable-background="new 0 0 32 32" xml:space="preserve">
<g id="hot_comment">
	<g>
		<g id="XMLID_4084_">
			<path fill="#263238" d="M24.5,28h-2c-0.276,0-0.5-0.224-0.5-0.5s0.224-0.5,0.5-0.5h2c2.481,0,4.5-2.019,4.5-4.5
				c0-0.276,0.224-0.5,0.5-0.5s0.5,0.224,0.5,0.5C30,25.532,27.532,28,24.5,28z"/>
		</g>
		<g id="XMLID_4088_">
			<path fill="#263238" d="M9.5,31c-0.056,0-0.111-0.009-0.165-0.028C9.134,30.901,9,30.712,9,30.5V26H7c-1.654,0-3-1.57-3-3.5v-13
				C4,7.57,5.57,6,7.5,6h17C26.43,6,28,7.57,28,9.5v13c0,1.93-1.57,3.5-3.5,3.5H13.74l-3.85,4.813C9.794,30.934,9.648,31,9.5,31z
				 M7.5,7C6.121,7,5,8.121,5,9.5v13C5,23.879,5.897,25,7,25h2.5c0.276,0,0.5,0.224,0.5,0.5v3.574l3.109-3.887
				C13.204,25.069,13.348,25,13.5,25h11c1.379,0,2.5-1.121,2.5-2.5v-13C27,8.121,25.879,7,24.5,7H7.5z"/>
		</g>
		<g id="XMLID_4104_">
			<g id="XMLID_4105_">
				<line fill="#FFFFFF" x1="5.5" y1="4.5" x2="4.239" y2="1.663"/>
				<path fill="#263238" d="M5.5,5C5.309,5,5.126,4.89,5.043,4.703L3.782,1.866C3.67,1.614,3.784,1.318,4.036,1.206
					c0.252-0.111,0.548,0.001,0.66,0.254l1.261,2.837c0.112,0.252-0.002,0.548-0.254,0.66C5.637,4.986,5.568,5,5.5,5z"/>
			</g>
			<g id="XMLID_4106_">
				<line fill="#FFFFFF" x1="3" y1="5.5" x2="1.813" y2="4.063"/>
				<path fill="#263238" d="M3,6C2.856,6,2.714,5.938,2.614,5.818L1.427,4.381C1.251,4.168,1.281,3.853,1.494,3.677
					C1.704,3.5,2.021,3.529,2.198,3.744l1.188,1.438C3.562,5.395,3.531,5.71,3.318,5.886C3.226,5.963,3.112,6,3,6z"/>
			</g>
			<g id="XMLID_4107_">
				<line fill="#FFFFFF" x1="2.5" y1="8.5" x2="1.5" y2="8"/>
				<path fill="#263238" d="M2.5,9C2.425,9,2.349,8.983,2.276,8.947l-1-0.5C1.029,8.323,0.93,8.023,1.053,7.776
					c0.124-0.247,0.424-0.346,0.671-0.224l1,0.5C2.971,8.177,3.07,8.477,2.947,8.724C2.859,8.898,2.683,9,2.5,9z"/>
			</g>
		</g>
		<g id="XMLID_4108_">
			<g id="XMLID_4109_">
				<line fill="#FFFFFF" x1="26.5" y1="4.5" x2="27.788" y2="1.601"/>
				<path fill="#263238" d="M26.5,5c-0.068,0-0.137-0.014-0.203-0.043c-0.252-0.112-0.366-0.407-0.254-0.66l1.288-2.899
					c0.112-0.253,0.408-0.364,0.66-0.254c0.252,0.112,0.366,0.407,0.254,0.66l-1.288,2.899C26.874,4.89,26.691,5,26.5,5z"/>
			</g>
			<g id="XMLID_4110_">
				<line fill="#FFFFFF" x1="29" y1="5.5" x2="30.188" y2="4.063"/>
				<path fill="#263238" d="M29,6c-0.112,0-0.226-0.037-0.318-0.114c-0.213-0.176-0.243-0.491-0.067-0.704l1.188-1.438
					c0.178-0.214,0.493-0.243,0.704-0.067c0.213,0.176,0.243,0.491,0.067,0.704l-1.188,1.438C29.286,5.938,29.144,6,29,6z"/>
			</g>
			<g id="XMLID_4111_">
				<line fill="#FFFFFF" x1="29.5" y1="8.5" x2="30.5" y2="8"/>
				<path fill="#263238" d="M29.5,9c-0.183,0-0.359-0.102-0.447-0.276c-0.123-0.247-0.023-0.547,0.224-0.671l1-0.5
					c0.248-0.123,0.547-0.023,0.671,0.224c0.123,0.247,0.023,0.547-0.224,0.671l-1,0.5C29.651,8.983,29.575,9,29.5,9z"/>
			</g>
		</g>
		<g id="XMLID_1086_">
			<g>
				<g>
					<path fill="#263238" d="M29.5,21c-0.13,0-0.26-0.05-0.351-0.15C29.05,20.76,29,20.63,29,20.5s0.05-0.25,0.14-0.351
						c0.19-0.189,0.53-0.189,0.71,0C29.95,20.24,30,20.37,30,20.5s-0.05,0.26-0.15,0.35C29.76,20.95,29.63,21,29.5,21z"/>
				</g>
			</g>
		</g>
		<g id="XMLID_1085_">
			<g>
				<g>
					<path fill="#263238" d="M16.5,21c-0.13,0-0.26-0.05-0.351-0.15C16.05,20.76,16,20.63,16,20.5s0.05-0.25,0.14-0.351
						c0.2-0.189,0.53-0.189,0.71,0C16.95,20.24,17,20.37,17,20.5s-0.05,0.26-0.15,0.35C16.76,20.95,16.63,21,16.5,21z"/>
				</g>
			</g>
		</g>
		<g>
			<g id="XMLID_1094_">
				<path fill="#263238" d="M14.479,21H7.5C7.224,21,7,20.776,7,20.5S7.224,20,7.5,20h6.979c0.276,0,0.5,0.224,0.5,0.5
					S14.755,21,14.479,21z"/>
			</g>
			<g id="XMLID_1092_">
				<path fill="#263238" d="M24.479,18H19.5c-0.276,0-0.5-0.224-0.5-0.5s0.224-0.5,0.5-0.5h4.979c0.276,0,0.5,0.224,0.5,0.5
					S24.755,18,24.479,18z"/>
			</g>
			<g id="XMLID_1091_">
				<path fill="#263238" d="M17.479,18H7.5C7.224,18,7,17.776,7,17.5S7.224,17,7.5,17h9.979c0.276,0,0.5,0.224,0.5,0.5
					S17.755,18,17.479,18z"/>
			</g>
			<g id="XMLID_1090_">
				<path fill="#263238" d="M12.479,15H7.5C7.224,15,7,14.776,7,14.5S7.224,14,7.5,14h4.979c0.276,0,0.5,0.224,0.5,0.5
					S12.755,15,12.479,15z"/>
			</g>
			<g id="XMLID_1089_">
				<path fill="#263238" d="M24.479,15H14.5c-0.276,0-0.5-0.224-0.5-0.5s0.224-0.5,0.5-0.5h9.979c0.276,0,0.5,0.224,0.5,0.5
					S24.755,15,24.479,15z"/>
			</g>
			<g id="XMLID_1088_">
				<path fill="#263238" d="M24.479,12H17.5c-0.276,0-0.5-0.224-0.5-0.5s0.224-0.5,0.5-0.5h6.979c0.276,0,0.5,0.224,0.5,0.5
					S24.755,12,24.479,12z"/>
			</g>
			<g id="XMLID_1087_">
				<path fill="#263238" d="M15.479,12H7.5C7.224,12,7,11.776,7,11.5S7.224,11,7.5,11h7.979c0.276,0,0.5,0.224,0.5,0.5
					S15.755,12,15.479,12z"/>
			</g>
		</g>
	</g>
</g>
</svg>
