<?xml version="1.0" encoding="utf-8"?>
<!-- Generator: Adobe Illustrator 16.0.0, SVG Export Plug-In . SVG Version: 6.00 Build 0)  -->
<!DOCTYPE svg PUBLIC "-//W3C//DTD SVG 1.1//EN" "http://www.w3.org/Graphics/SVG/1.1/DTD/svg11.dtd">
<svg version="1.1" xmlns="http://www.w3.org/2000/svg" xmlns:xlink="http://www.w3.org/1999/xlink" x="0px" y="0px" width="32px"
	 height="32px" viewBox="0 0 32 32" enable-background="new 0 0 32 32" xml:space="preserve">
<g id="lecture_x2C__online_lesson_x2C__webinar">
	<path fill="#263238" d="M28.5,17h-25C3.224,17,3,16.776,3,16.5v-15C3,1.224,3.224,1,3.5,1h25C28.776,1,29,1.224,29,1.5v15
		C29,16.776,28.776,17,28.5,17z M4,16h24V2H4V16z"/>
	<g>
		<path fill="#263238" d="M20.5,31c-0.276,0-0.5-0.224-0.5-0.5V30c0-0.533-0.418-1.124-0.895-1.265l-1.809-0.804
			C17.116,27.851,17,27.672,17,27.475v-0.986c0-0.157,0.074-0.304,0.199-0.399C17.708,25.705,18,25.125,18,24.5v-1
			c0-1.55-0.097-2.5-2-2.5s-2,0.95-2,2.5v1c0,0.625,0.292,1.205,0.801,1.589C14.926,26.184,15,26.332,15,26.488v0.988
			c0,0.197-0.116,0.375-0.295,0.456l-1.686,0.757C12.43,28.871,12,29.449,12,30v0.5c0,0.276-0.224,0.5-0.5,0.5S11,30.776,11,30.5V30
			c0-0.994,0.718-1.959,1.67-2.246L14,27.154v-0.43c-0.639-0.57-1-1.368-1-2.224v-1c0-1.309,0-3.5,3-3.5s3,2.191,3,3.5v1
			c0,0.856-0.361,1.654-1,2.224v0.426l1.45,0.649C20.292,28.042,21,29.019,21,30v0.5C21,30.776,20.776,31,20.5,31z"/>
		<path fill="#263238" d="M16,28.371c-0.414,0-0.828-0.104-1.206-0.312l-0.535-0.292c-0.242-0.132-0.331-0.437-0.198-0.679
			c0.133-0.243,0.436-0.332,0.679-0.198l0.535,0.293c0.454,0.25,0.995,0.25,1.447,0l0.536-0.295
			c0.243-0.133,0.546-0.045,0.679,0.197s0.045,0.546-0.197,0.679l-0.536,0.295C16.828,28.267,16.414,28.371,16,28.371z"/>
	</g>
	<g>
		<path fill="#263238" d="M30.5,30c-0.276,0-0.5-0.224-0.5-0.5V29c0-0.533-0.418-1.124-0.895-1.265l-1.809-0.804
			C27.116,26.851,27,26.672,27,26.475v-0.986c0-0.157,0.074-0.304,0.199-0.399C27.708,24.705,28,24.125,28,23.5v-1
			c0-1.55-0.097-2.5-2-2.5s-2,0.95-2,2.5v1c0,0.625,0.292,1.205,0.801,1.589C24.926,25.184,25,25.332,25,25.488v0.988
			c0,0.197-0.116,0.375-0.295,0.456l-1.686,0.757c-0.456,0.142-0.816,0.511-0.957,0.941c-0.086,0.262-0.369,0.406-0.631,0.319
			c-0.262-0.086-0.405-0.368-0.319-0.631c0.242-0.738,0.854-1.352,1.559-1.564L24,26.154v-0.43c-0.639-0.57-1-1.368-1-2.224v-1
			c0-1.309,0-3.5,3-3.5s3,2.191,3,3.5v1c0,0.856-0.361,1.654-1,2.224v0.426l1.45,0.649C30.292,27.042,31,28.019,31,29v0.5
			C31,29.776,30.776,30,30.5,30z"/>
		<path fill="#263238" d="M26,27.371c-0.414,0-0.828-0.104-1.206-0.312l-0.535-0.292c-0.242-0.132-0.331-0.437-0.198-0.679
			s0.436-0.332,0.679-0.198l0.535,0.293c0.454,0.25,0.995,0.25,1.447,0l0.536-0.295c0.242-0.132,0.546-0.045,0.679,0.197
			c0.133,0.242,0.045,0.546-0.197,0.679l-0.536,0.295C26.828,27.267,26.414,27.371,26,27.371z"/>
	</g>
	<g>
		<g>
			<path fill="#263238" d="M1.5,30C1.224,30,1,29.776,1,29.5V29c0-0.994,0.718-1.959,1.67-2.246L4,26.154v-0.43
				c-0.639-0.57-1-1.368-1-2.224v-1C3,21.191,3,19,6,19s3,2.191,3,3.5v1c0,0.856-0.361,1.654-1,2.224v0.426l1.45,0.649
				c0.608,0.175,1.198,0.779,1.438,1.518c0.085,0.262-0.058,0.544-0.321,0.63c-0.264,0.085-0.545-0.059-0.63-0.321
				c-0.137-0.42-0.479-0.787-0.833-0.891l-1.809-0.804C7.116,26.851,7,26.672,7,26.475v-0.986c0-0.157,0.074-0.304,0.199-0.399
				C7.708,24.705,8,24.125,8,23.5v-1C8,20.95,7.903,20,6,20s-2,0.95-2,2.5v1c0,0.625,0.292,1.205,0.801,1.589
				C4.926,25.184,5,25.332,5,25.488v0.988c0,0.197-0.116,0.375-0.295,0.456l-1.686,0.757C2.43,27.871,2,28.449,2,29v0.5
				C2,29.776,1.776,30,1.5,30z"/>
		</g>
		<path fill="#263238" d="M6,27.371c-0.414,0-0.828-0.104-1.206-0.312L4.26,26.767c-0.242-0.132-0.331-0.437-0.198-0.679
			c0.132-0.242,0.437-0.332,0.679-0.198l0.535,0.293c0.454,0.25,0.995,0.25,1.447,0l0.536-0.295
			c0.242-0.132,0.546-0.045,0.679,0.197c0.133,0.242,0.045,0.546-0.197,0.679l-0.536,0.295C6.828,27.267,6.414,27.371,6,27.371z"/>
	</g>
	<g>
		<path fill="#263238" d="M21.5,15.006c-0.276,0-0.5-0.224-0.5-0.5v-0.809c0-0.533-0.418-1.124-0.895-1.265l-2.578-1.104
			l-0.322,0.177c-0.755,0.415-1.656,0.415-2.411,0l-0.321-0.175l-2.461,1.06C11.43,12.569,11,13.146,11,13.697v0.809
			c0,0.276-0.224,0.5-0.5,0.5s-0.5-0.224-0.5-0.5v-0.809c0-0.995,0.718-1.959,1.671-2.245l2.631-1.137
			c0.142-0.06,0.302-0.053,0.438,0.021l0.535,0.293c0.454,0.25,0.995,0.25,1.447,0l0.536-0.295c0.136-0.074,0.297-0.082,0.438-0.021
			l2.746,1.18C21.292,11.74,22,12.716,22,13.697v0.809C22,14.782,21.776,15.006,21.5,15.006z"/>
		<path fill="#263238" d="M21.5,15.006c-0.276,0-0.5-0.224-0.5-0.5v-0.809c0-0.533-0.418-1.124-0.895-1.265l-2.816-1.306
			C17.113,11.045,17,10.868,17,10.674V9.488c0-0.156,0.073-0.304,0.198-0.398C17.708,8.703,18,8.124,18,7.5v-1
			C18,4.95,17.903,4,16,4s-2,0.95-2,2.5v1c0,0.625,0.292,1.204,0.802,1.59C14.927,9.184,15,9.332,15,9.488v1.188
			c0,0.276-0.224,0.5-0.5,0.5s-0.5-0.224-0.5-0.5V9.724c-0.639-0.571-1-1.368-1-2.224v-1C13,5.191,13,3,16,3s3,2.191,3,3.5v1
			c0,0.854-0.361,1.652-1,2.224v0.631l2.457,1.145C21.292,11.74,22,12.716,22,13.697v0.809C22,14.782,21.776,15.006,21.5,15.006z"/>
	</g>
</g>
</svg>
