<?xml version="1.0" encoding="utf-8"?>
<!-- Generator: Adobe Illustrator 16.0.0, SVG Export Plug-In . SVG Version: 6.00 Build 0)  -->
<!DOCTYPE svg PUBLIC "-//W3C//DTD SVG 1.1//EN" "http://www.w3.org/Graphics/SVG/1.1/DTD/svg11.dtd">
<svg version="1.1" xmlns="http://www.w3.org/2000/svg" xmlns:xlink="http://www.w3.org/1999/xlink" x="0px" y="0px" width="32px"
	 height="32px" viewBox="0 0 32 32" enable-background="new 0 0 32 32" xml:space="preserve">
<g id="link_building">
	<g>
		<path fill="#263238" d="M14.45,28.91L14.45,28.91L14.45,28.91c-0.28-0.03-0.471-0.28-0.44-0.56l0,0c0.03-0.27,0.28-0.47,0.56-0.43
			l0,0C14.84,27.95,15.04,28.2,15,28.47l0,0c-0.03,0.26-0.24,0.44-0.49,0.44l0,0C14.49,28.91,14.47,28.91,14.45,28.91z M17.02,28.47
			c-0.029-0.28,0.17-0.53,0.44-0.56l0,0c0.27-0.03,0.52,0.16,0.55,0.44l0,0c0.04,0.27-0.16,0.52-0.43,0.56l0,0l0,0l0,0
			c-0.021,0-0.04,0-0.061,0l0,0C17.27,28.91,17.05,28.72,17.02,28.47z M11.399,28.16L11.399,28.16L11.399,28.16
			c-0.26-0.09-0.39-0.38-0.29-0.64l0,0c0.101-0.26,0.391-0.39,0.65-0.29l0,0c0.26,0.1,0.38,0.38,0.29,0.64l0,0
			c-0.08,0.2-0.27,0.33-0.47,0.33l0,0C11.52,28.2,11.46,28.19,11.399,28.16z M19.979,27.87c-0.1-0.26,0.03-0.55,0.29-0.65l0,0
			c0.25-0.1,0.54,0.03,0.641,0.29l0,0c0.1,0.26-0.03,0.55-0.29,0.65l0,0l0,0l0,0c-0.061,0.02-0.12,0.03-0.181,0.03l0,0
			C20.24,28.19,20.05,28.07,19.979,27.87z M8.63,26.71c-0.23-0.16-0.29-0.47-0.13-0.7l0,0c0.16-0.22,0.47-0.28,0.7-0.12l0,0
			c0.22,0.15,0.279,0.46,0.119,0.69l0,0c-0.09,0.14-0.25,0.22-0.409,0.22l0,0C8.81,26.8,8.71,26.77,8.63,26.71z M22.7,26.57
			c-0.16-0.23-0.101-0.54,0.119-0.7l0,0c0.23-0.15,0.54-0.1,0.7,0.13l0,0c0.15,0.23,0.101,0.54-0.13,0.69l0,0l0,0l0,0
			c-0.09,0.07-0.189,0.09-0.29,0.09l0,0C22.95,26.78,22.79,26.71,22.7,26.57z M6.28,24.64c-0.181-0.21-0.16-0.53,0.039-0.71l0,0
			c0.211-0.18,0.53-0.17,0.711,0.04l0,0c0.18,0.21,0.159,0.52-0.04,0.7l0,0C6.89,24.76,6.77,24.8,6.649,24.8l0,0
			C6.52,24.8,6.38,24.75,6.28,24.64z M25.03,24.66c-0.211-0.18-0.23-0.5-0.051-0.71l0,0c0.19-0.2,0.5-0.22,0.71-0.04l0,0
			c0.21,0.18,0.23,0.5,0.04,0.71l0,0c-0.09,0.11-0.229,0.17-0.37,0.17l0,0C25.24,24.79,25.12,24.74,25.03,24.66z M6.29,8.11
			C6.08,7.93,6.06,7.61,6.25,7.4l0,0c0.18-0.21,0.5-0.22,0.7-0.04l0,0C7.16,7.54,7.18,7.86,7,8.06l0,0
			C6.899,8.18,6.76,8.23,6.62,8.23l0,0C6.5,8.23,6.39,8.19,6.29,8.11z M24.95,8.01C24.77,7.8,24.79,7.49,24.99,7.3l0,0
			c0.21-0.18,0.529-0.16,0.71,0.05l0,0c0.18,0.2,0.159,0.52-0.04,0.7l0,0c-0.101,0.09-0.221,0.13-0.33,0.13l0,0
			C25.189,8.18,25.05,8.12,24.95,8.01z M8.46,6.02C8.3,5.79,8.359,5.48,8.59,5.32l0,0c0,0,0,0-0.01,0l0,0
			c0.229-0.16,0.54-0.1,0.7,0.12l0,0c0.159,0.23,0.1,0.54-0.12,0.7l0,0C9.069,6.2,8.97,6.23,8.87,6.23l0,0
			C8.71,6.23,8.56,6.15,8.46,6.02z M22.78,6.1c-0.23-0.16-0.28-0.47-0.131-0.7l0,0c0.16-0.23,0.471-0.28,0.7-0.13l0,0
			c0.23,0.16,0.28,0.47,0.13,0.7l0,0c-0.1,0.14-0.26,0.22-0.42,0.22l0,0C22.97,6.19,22.87,6.16,22.78,6.1z M11.06,4.5
			c-0.09-0.26,0.04-0.55,0.29-0.65l0,0c0.26-0.09,0.55,0.04,0.65,0.29l0,0c0.1,0.26-0.03,0.55-0.29,0.65l0,0
			c-0.061,0.02-0.12,0.03-0.18,0.03l0,0C11.33,4.82,11.14,4.7,11.06,4.5z M20.22,4.76c-0.26-0.09-0.39-0.38-0.29-0.64l0,0
			c0.09-0.26,0.38-0.39,0.64-0.29l0,0c0.261,0.09,0.391,0.38,0.29,0.64l0,0c-0.069,0.2-0.26,0.32-0.46,0.32l0,0
			C20.34,4.79,20.28,4.78,20.22,4.76z M13.96,3.65c-0.04-0.27,0.16-0.52,0.43-0.55l0,0c0.28-0.04,0.53,0.16,0.561,0.43l0,0
			c0.029,0.28-0.16,0.53-0.431,0.56l0,0c-0.029,0-0.05,0-0.069,0l0,0C14.2,4.09,13.99,3.91,13.96,3.65z M17.41,4.08L17.41,4.08
			c-0.28-0.03-0.471-0.28-0.44-0.55l0,0c0.03-0.28,0.28-0.47,0.55-0.44l0,0c0.28,0.03,0.471,0.28,0.44,0.55l0,0
			c-0.03,0.26-0.25,0.45-0.49,0.45l0,0C17.45,4.09,17.43,4.08,17.41,4.08z"/>
	</g>
	<g>
		<path fill="#263238" d="M14.5,23h-7C3.916,23,1,20.084,1,16.5v-1C1,11.916,3.916,9,7.5,9h4C11.776,9,12,9.224,12,9.5
			S11.776,10,11.5,10h-4C4.468,10,2,12.467,2,15.5v1C2,19.533,4.468,22,7.5,22h7c3.032,0,5.5-2.467,5.5-5.5v-2
			c0-0.276,0.224-0.5,0.5-0.5s0.5,0.224,0.5,0.5v2C21,20.084,18.084,23,14.5,23z"/>
	</g>
	<g>
		<path fill="#263238" d="M14.5,20h-7C5.57,20,4,18.43,4,16.5v-1C4,13.57,5.57,12,7.5,12h2c0.276,0,0.5,0.224,0.5,0.5
			S9.776,13,9.5,13h-2C6.121,13,5,14.122,5,15.5v1C5,17.878,6.121,19,7.5,19h7c1.379,0,2.5-1.122,2.5-2.5v-2
			c0-0.276,0.224-0.5,0.5-0.5s0.5,0.224,0.5,0.5v2C18,18.43,16.43,20,14.5,20z"/>
	</g>
	<g>
		<path fill="#263238" d="M24.5,23h-4c-0.276,0-0.5-0.224-0.5-0.5s0.224-0.5,0.5-0.5h4c3.032,0,5.5-2.467,5.5-5.5v-1
			c0-3.033-2.468-5.5-5.5-5.5h-7c-3.032,0-5.5,2.467-5.5,5.5v2c0,0.276-0.224,0.5-0.5,0.5S11,17.776,11,17.5v-2
			c0-3.584,2.916-6.5,6.5-6.5h7c3.584,0,6.5,2.916,6.5,6.5v1C31,20.084,28.084,23,24.5,23z"/>
	</g>
	<g>
		<path fill="#263238" d="M24.5,20h-2c-0.276,0-0.5-0.224-0.5-0.5s0.224-0.5,0.5-0.5h2c1.379,0,2.5-1.122,2.5-2.5v-1
			c0-1.378-1.121-2.5-2.5-2.5h-7c-1.379,0-2.5,1.122-2.5,2.5v2c0,0.276-0.224,0.5-0.5,0.5S14,17.776,14,17.5v-2
			c0-1.93,1.57-3.5,3.5-3.5h7c1.93,0,3.5,1.57,3.5,3.5v1C28,18.43,26.43,20,24.5,20z"/>
	</g>
</g>
</svg>
