<?xml version="1.0" encoding="utf-8"?>
<!-- Generator: Adobe Illustrator 16.0.0, SVG Export Plug-In . SVG Version: 6.00 Build 0)  -->
<!DOCTYPE svg PUBLIC "-//W3C//DTD SVG 1.1//EN" "http://www.w3.org/Graphics/SVG/1.1/DTD/svg11.dtd">
<svg version="1.1" id="Layer_1" xmlns="http://www.w3.org/2000/svg" xmlns:xlink="http://www.w3.org/1999/xlink" x="0px" y="0px"
	 width="32px" height="32px" viewBox="0 0 32 32" enable-background="new 0 0 32 32" xml:space="preserve">
<g id="live_stream_x2C__monitor">
	<g>
		<g>
			<g>
				<circle fill="#263238" cx="7.5" cy="4.5" r="0.5"/>
				<circle fill="#263238" cx="5.5" cy="4.5" r="0.5"/>
				<circle fill="#263238" cx="3.5" cy="4.5" r="0.5"/>
				<path fill="#263238" d="M30.5,7h-27C3.224,7,3,6.776,3,6.5S3.224,6,3.5,6h27C30.776,6,31,6.224,31,6.5S30.776,7,30.5,7z"/>
			</g>
			<path fill="#263238" d="M30.5,22c-0.276,0-0.5-0.224-0.5-0.5v-18C30,3.225,29.776,3,29.5,3h-27C2.224,3,2,3.225,2,3.5v16
				C2,19.776,1.776,20,1.5,20S1,19.776,1,19.5v-16C1,2.673,1.673,2,2.5,2h27C30.327,2,31,2.673,31,3.5v18
				C31,21.776,30.776,22,30.5,22z"/>
		</g>
		<path fill="#263238" d="M21.5,31h-11c-0.276,0-0.5-0.224-0.5-0.5s0.224-0.5,0.5-0.5h1c0.827,0,1.5-0.673,1.5-1.5v-1
			c0-0.276,0.224-0.5,0.5-0.5s0.5,0.224,0.5,0.5v1c0,0.563-0.187,1.082-0.501,1.5h5.002C18.187,29.582,18,29.063,18,28.5v-3
			c0-0.276,0.224-0.5,0.5-0.5s0.5,0.224,0.5,0.5v3c0,0.827,0.673,1.5,1.5,1.5h1c0.276,0,0.5,0.224,0.5,0.5S21.776,31,21.5,31z"/>
		<path fill="#263238" d="M29.5,26h-27C1.673,26,1,25.327,1,24.5v-3C1,21.224,1.224,21,1.5,21h29c0.276,0,0.5,0.224,0.5,0.5v3
			C31,25.327,30.327,26,29.5,26z M2,22v2.5C2,24.775,2.224,25,2.5,25h27c0.276,0,0.5-0.225,0.5-0.5V22H2z"/>
	</g>
	<path fill="#263238" d="M7.5,20h-4C3.224,20,3,19.776,3,19.5S3.224,19,3.5,19h4C7.776,19,8,19.224,8,19.5S7.776,20,7.5,20z"/>
	<path fill="#263238" d="M28.5,20h-17c-0.276,0-0.5-0.224-0.5-0.5s0.224-0.5,0.5-0.5h17c0.276,0,0.5,0.224,0.5,0.5
		S28.776,20,28.5,20z"/>
	<path fill="#263238" d="M9.5,20C9.224,20,9,19.776,9,19.5v-1C9,18.224,9.224,18,9.5,18s0.5,0.224,0.5,0.5v1
		C10,19.776,9.776,20,9.5,20z"/>
	<g>
		<path fill="#263238" d="M13.5,16c-0.097,0-0.194-0.028-0.277-0.084C13.083,15.823,13,15.667,13,15.5v-5
			c0-0.167,0.083-0.323,0.223-0.416c0.139-0.094,0.314-0.109,0.47-0.046l6,2.5C19.878,12.616,20,12.798,20,13
			s-0.122,0.384-0.308,0.462l-6,2.5C13.63,15.987,13.565,16,13.5,16z M14,11.25v3.5L18.2,13L14,11.25z"/>
	</g>
</g>
</svg>
