<?xml version="1.0" encoding="utf-8"?>
<!-- Generator: Adobe Illustrator 16.0.0, SVG Export Plug-In . SVG Version: 6.00 Build 0)  -->
<!DOCTYPE svg PUBLIC "-//W3C//DTD SVG 1.1//EN" "http://www.w3.org/Graphics/SVG/1.1/DTD/svg11.dtd">
<svg version="1.1" id="Layer_1" xmlns="http://www.w3.org/2000/svg" xmlns:xlink="http://www.w3.org/1999/xlink" x="0px" y="0px"
	 width="32px" height="32px" viewBox="0 0 32 32" enable-background="new 0 0 32 32" xml:space="preserve">
<g id="mission">
	<g>
		<path fill="#263238" d="M18.821,20.831c0.798,1.516,0.501,2.997,0.056,4.034c-0.839,1.952-2.732,3.632-4.74,4.336
			c1.105-1.403,1.664-2.808,1.662-4.189c0-0.276-0.224-0.499-0.5-0.499h-0.001c-0.276,0-0.5,0.225-0.499,0.5
			c0.002,1.492-0.814,3.06-2.426,4.66c-0.15,0.149-0.19,0.375-0.101,0.567c0.083,0.177,0.26,0.288,0.453,0.288
			c0.016,0,0.032,0,0.048-0.002c2.83-0.269,5.85-2.533,7.024-5.265c0.738-1.718,0.684-3.434-0.116-4.931
			C19.391,20.503,19.105,20.67,18.821,20.831z"/>
		<path fill="#263238" d="M6.953,16.173c-1.379,0-2.781,0.558-4.182,1.662c0.704-2.009,2.385-3.902,4.336-4.74
			c1.037-0.446,2.517-0.743,4.034,0.056c0.161-0.284,0.328-0.57,0.502-0.858c-1.497-0.799-3.212-0.854-4.931-0.116
			C3.979,13.35,1.716,16.37,1.446,19.2c-0.02,0.21,0.094,0.41,0.286,0.5c0.068,0.032,0.14,0.047,0.212,0.047
			c0.131,0,0.259-0.051,0.355-0.148c1.598-1.61,3.163-2.427,4.653-2.427c0.002,0,0.005,0,0.007,0c0.276,0,0.5-0.223,0.5-0.499
			C7.46,16.395,7.226,16.178,6.953,16.173z"/>
		<path fill="#263238" d="M13.147,23.878c-0.131,0-0.258-0.051-0.354-0.146L8.24,19.178c-0.131-0.13-0.179-0.323-0.125-0.499
			c0.717-2.35,3.101-7.822,6.998-11.719C20.298,1.774,25.647,1,28.374,1c1.256,0,2.016,0.161,2.047,0.167
			c0.189,0.041,0.338,0.188,0.381,0.376c0.073,0.316,1.7,7.825-5.791,15.315c-3.897,3.896-9.37,6.281-11.719,6.998
			C13.245,23.872,13.196,23.878,13.147,23.878z M9.162,18.686l4.123,4.124c2.064-0.687,7.308-2.946,11.02-6.657
			c6.247-6.248,5.791-12.577,5.579-14.06C29.573,2.051,29.053,2,28.374,2c-2.572,0-7.623,0.736-12.554,5.667
			C12.107,11.379,9.849,16.622,9.162,18.686z"/>
		<path fill="#263238" d="M21.477,14.495c-1.069,0-2.073-0.416-2.829-1.171c-1.56-1.56-1.56-4.097,0-5.657
			c0.755-0.755,1.76-1.171,2.829-1.171c1.068,0,2.073,0.416,2.828,1.171c1.56,1.56,1.56,4.097,0,5.657
			C23.549,14.079,22.545,14.495,21.477,14.495z M21.477,7.495c-0.802,0-1.555,0.312-2.122,0.878c-1.169,1.169-1.169,3.073,0,4.243
			c0.566,0.566,1.32,0.878,2.122,0.878c0.801,0,1.555-0.312,2.121-0.878c1.17-1.169,1.17-3.073,0-4.243
			C23.031,7.807,22.278,7.495,21.477,7.495z"/>
		<path fill="#263238" d="M2.738,29.733c-0.13,0-0.258-0.051-0.354-0.146c-0.135-0.135-0.182-0.335-0.12-0.516
			c0.193-0.563,1.919-5.526,2.948-6.555c0.671-0.671,1.632-0.987,2.571-0.846c0.273,0.041,0.461,0.296,0.42,0.569
			c-0.041,0.273-0.3,0.46-0.569,0.42C7,22.564,6.374,22.769,5.92,23.223c-0.555,0.555-1.622,3.166-2.359,5.188
			c2.022-0.737,4.633-1.804,5.188-2.359c0.445-0.445,0.652-1.058,0.568-1.682c-0.037-0.273,0.156-0.525,0.43-0.562
			c0.273-0.035,0.525,0.156,0.562,0.429c0.125,0.936-0.186,1.854-0.853,2.521c-1.028,1.028-5.992,2.754-6.555,2.948
			C2.848,29.725,2.792,29.733,2.738,29.733z"/>
		<path fill="#263238" d="M29.284,9.655c-0.128,0-0.256-0.049-0.354-0.146l-5.29-5.29c-0.195-0.195-0.195-0.512,0-0.707
			s0.512-0.195,0.707,0l5.29,5.29c0.195,0.195,0.195,0.512,0,0.707C29.54,9.606,29.412,9.655,29.284,9.655z"/>
		<path fill="#263238" d="M15.684,22.854c-0.13,0-0.259-0.05-0.357-0.15l-4.589-4.689c-0.193-0.197-0.189-0.514,0.008-0.707
			c0.198-0.193,0.514-0.189,0.707,0.008l4.589,4.689c0.193,0.197,0.189,0.514-0.008,0.707C15.936,22.807,15.81,22.854,15.684,22.854
			z"/>
	</g>
</g>
</svg>
