<?xml version="1.0" encoding="utf-8"?>
<!-- Generator: Adobe Illustrator 16.0.0, SVG Export Plug-In . SVG Version: 6.00 Build 0)  -->
<!DOCTYPE svg PUBLIC "-//W3C//DTD SVG 1.1//EN" "http://www.w3.org/Graphics/SVG/1.1/DTD/svg11.dtd">
<svg version="1.1" id="Layer_1" xmlns="http://www.w3.org/2000/svg" xmlns:xlink="http://www.w3.org/1999/xlink" x="0px" y="0px"
	 width="32px" height="32px" viewBox="0 0 32 32" enable-background="new 0 0 32 32" xml:space="preserve">
<g id="partners">
	<g id="partners_1_">
		<g>
			<path fill="#263238" d="M16.351,27.333c-0.34,0-0.679-0.084-0.979-0.249l-0.664-0.359c-0.243-0.131-0.333-0.435-0.201-0.678
				c0.131-0.243,0.435-0.333,0.678-0.201l0.666,0.36c0.236,0.129,0.532,0.161,0.792,0.085c0.151-0.044,0.355-0.144,0.477-0.366
				c0.184-0.336,0.118-0.742-0.052-0.94c-0.167-0.195-0.159-0.484,0.018-0.67c0.155-0.161,0.417-0.223,0.614-0.119l1.476,0.773
				c0.452,0.246,1.016,0.101,1.242-0.313c0.176-0.323,0.084-0.729-0.058-0.934l-1.366-0.95c-0.218-0.152-0.279-0.448-0.14-0.674
				c0.139-0.227,0.43-0.304,0.665-0.176l2.599,1.42c0.241,0.132,0.466,0.109,0.612,0.065c0.229-0.067,0.43-0.232,0.55-0.453
				c0.24-0.438,0.113-0.92-0.3-1.146l-1.658-1.078c-0.222-0.145-0.292-0.437-0.161-0.667c0.131-0.229,0.42-0.318,0.656-0.2
				l3.379,1.677c0.429,0.233,0.939,0.064,1.182-0.378c0.229-0.423,0.061-0.98-0.37-1.215c-0.243-0.132-0.332-0.436-0.2-0.678
				c0.132-0.242,0.437-0.333,0.678-0.2c0.906,0.494,1.258,1.672,0.77,2.572c-0.512,0.934-1.617,1.28-2.521,0.786l-0.352-0.174
				c0.056,0.397-0.022,0.81-0.226,1.181c-0.246,0.452-0.664,0.792-1.146,0.933c-0.464,0.136-0.952,0.083-1.374-0.147l-0.13-0.07
				c0.019,0.327-0.042,0.67-0.214,0.985c-0.486,0.889-1.671,1.218-2.591,0.715L18.224,25.6c-0.016,0.278-0.091,0.556-0.227,0.804
				c-0.222,0.408-0.603,0.708-1.073,0.847C16.737,27.306,16.544,27.333,16.351,27.333z"/>
			<path fill="#263238" d="M6.008,18.264c-0.076,0-0.152-0.017-0.225-0.054l-1.662-0.838c-0.247-0.124-0.346-0.425-0.221-0.671
				c0.124-0.247,0.424-0.348,0.671-0.221l1.662,0.838c0.247,0.124,0.346,0.425,0.221,0.671C6.367,18.163,6.191,18.264,6.008,18.264z
				"/>
			<path fill="#263238" d="M10,11.75c-0.032,0-0.065-0.003-0.098-0.01l-3.394-0.671c-0.271-0.054-0.447-0.316-0.393-0.587
				s0.317-0.451,0.587-0.393l3.394,0.671c0.271,0.054,0.447,0.316,0.393,0.587C10.443,11.585,10.234,11.75,10,11.75z"/>
			<path fill="#263238" d="M26.234,20.002c-0.083,0-0.166-0.021-0.24-0.062l-3.277-1.793l-4.467-2.772
				c-0.235-0.145-0.309-0.452-0.164-0.688c0.144-0.236,0.452-0.309,0.688-0.164l4.445,2.76l2.743,1.5
				c0.172-0.599,0.159-1.04,0.158-1.045c-0.009-0.206,0.108-0.396,0.296-0.48l1.034-0.46c0.253-0.11,0.549,0.002,0.66,0.254
				c0.112,0.252-0.001,0.548-0.254,0.66l-0.748,0.333c-0.028,0.365-0.121,0.976-0.415,1.656c-0.056,0.129-0.164,0.229-0.296,0.274
				C26.344,19.993,26.289,20.002,26.234,20.002z"/>
			<path fill="#263238" d="M12.107,17.335c-0.703,0-1.381-0.306-1.935-0.879c-0.127-0.132-0.172-0.322-0.118-0.497
				c0.17-0.547,0.354-1.058,0.524-1.531c0.274-0.764,0.512-1.423,0.583-1.932c0.02-0.141,0.098-0.267,0.216-0.346L11.89,11.8
				c1.157-0.796,3.094-2.13,4.147-2.564c0.63-0.259,3.96,0.383,6.642,0.969c0.071,0.015,0.138,0.046,0.195,0.09
				c0.114,0.086,0.219,0.175,0.318,0.266l1.917-0.528c0.266-0.074,0.542,0.083,0.615,0.349c0.073,0.266-0.083,0.542-0.349,0.615
				l-2.191,0.604c-0.174,0.049-0.361-0.001-0.489-0.131c-0.105-0.106-0.217-0.211-0.341-0.312c-2.592-0.563-5.502-1.077-5.968-0.987
				c-0.923,0.383-2.879,1.73-3.93,2.453l-0.343,0.234c-0.109,0.558-0.336,1.19-0.594,1.909c-0.134,0.373-0.277,0.77-0.415,1.19
				c0.449,0.362,0.881,0.402,1.176,0.368c0.441-0.053,0.851-0.32,1.07-0.695c0.172-0.296,0.404-0.885,0.563-1.433
				c0.055-0.19,0.218-0.33,0.415-0.356c0.306-0.041,1.523-0.298,2.243-0.469c0.268-0.067,0.539,0.103,0.602,0.371
				c0.064,0.269-0.102,0.538-0.371,0.602c-0.547,0.13-1.479,0.333-2.021,0.434c-0.146,0.45-0.355,0.992-0.566,1.354
				c-0.378,0.65-1.057,1.093-1.813,1.185C12.303,17.33,12.205,17.335,12.107,17.335z"/>
			<g>
				<g>
					<path fill="#263238" d="M13.654,27.267c-0.444,0-0.86-0.173-1.172-0.486l-0.326-0.329c-0.31-0.313-0.479-0.729-0.478-1.17
						c0.001-0.443,0.174-0.857,0.487-1.167l0.659-0.648c0.624-0.618,1.719-0.613,2.337,0.013l0.324,0.325
						c0.642,0.65,0.637,1.699-0.009,2.339l-0.659,0.648C14.507,27.097,14.094,27.267,13.654,27.267z M13.987,23.99
						c-0.174,0-0.338,0.067-0.46,0.188l-0.658,0.647c-0.121,0.12-0.189,0.284-0.19,0.459c0,0.176,0.066,0.34,0.188,0.463
						l0.325,0.328c0.243,0.245,0.676,0.246,0.923,0.002l0.658-0.647c0.254-0.251,0.255-0.667,0.001-0.923l-0.323-0.324
						C14.328,24.058,14.164,23.99,13.987,23.99z"/>
				</g>
				<g>
					<path fill="#263238" d="M6.739,21.273c-0.444,0-0.861-0.173-1.173-0.487l-0.325-0.327c-0.642-0.649-0.637-1.697,0.009-2.338
						l0.659-0.648c0.624-0.617,1.717-0.614,2.336,0.011l0.325,0.328c0.31,0.313,0.479,0.728,0.477,1.171
						c-0.002,0.442-0.176,0.856-0.488,1.166l-0.658,0.647C7.592,21.103,7.179,21.273,6.739,21.273z M7.072,17.996
						c-0.174,0-0.338,0.067-0.461,0.188l-0.658,0.647c-0.254,0.252-0.255,0.667-0.002,0.923l0.324,0.326
						c0.245,0.247,0.677,0.248,0.923,0.004l0.659-0.648c0.122-0.12,0.189-0.283,0.19-0.458s-0.065-0.339-0.187-0.462l-0.325-0.328
						C7.413,18.064,7.249,17.996,7.072,17.996z"/>
				</g>
				<g>
					<path fill="#263238" d="M8.457,23.887c-0.445,0-0.862-0.173-1.173-0.489l-0.325-0.327c-0.31-0.311-0.48-0.726-0.479-1.167
						c0.001-0.443,0.175-0.858,0.489-1.169l1.309-1.299c0.625-0.62,1.716-0.615,2.337,0.01l0.325,0.329
						c0.31,0.312,0.479,0.727,0.477,1.169c-0.002,0.443-0.175,0.857-0.489,1.167l-1.308,1.297
						C9.31,23.717,8.896,23.887,8.457,23.887z M9.441,19.958c-0.174,0-0.337,0.066-0.459,0.188l-1.309,1.299
						c-0.124,0.123-0.192,0.287-0.193,0.462c0,0.174,0.066,0.337,0.188,0.459l0.326,0.328c0.244,0.248,0.676,0.247,0.922,0.004
						l1.309-1.298c0.124-0.122,0.192-0.286,0.192-0.461c0.001-0.175-0.065-0.338-0.187-0.46L9.905,20.15
						C9.782,20.027,9.617,19.958,9.441,19.958z"/>
				</g>
				<g>
					<g>
						<path fill="#263238" d="M11.056,25.577c-0.445,0-0.862-0.174-1.174-0.489L9.558,24.76c-0.31-0.311-0.48-0.727-0.479-1.168
							c0.001-0.443,0.174-0.857,0.487-1.167l0.985-0.973c0.625-0.619,1.718-0.614,2.337,0.012l0.324,0.327
							c0.64,0.646,0.635,1.694-0.009,2.336L12.219,25.1C11.909,25.407,11.496,25.577,11.056,25.577z M11.714,21.974
							c-0.174,0-0.337,0.067-0.459,0.188l-0.985,0.973c-0.123,0.122-0.19,0.285-0.191,0.46s0.066,0.338,0.188,0.46l0.326,0.329
							c0.244,0.248,0.676,0.248,0.922,0.005l0.984-0.973c0.254-0.253,0.256-0.667,0.003-0.923l-0.324-0.327
							C12.056,22.042,11.891,21.974,11.714,21.974z"/>
					</g>
				</g>
			</g>
			<path fill="#263238" d="M28.281,19.438c-0.072,0-0.145-0.016-0.211-0.047c-0.122-0.057-0.216-0.161-0.26-0.288l-3.228-9.221
				c-0.088-0.252,0.038-0.53,0.286-0.629L30.3,7.076c0.257-0.102,0.547,0.022,0.65,0.278c0.103,0.256-0.022,0.547-0.278,0.65
				l-4.989,1.999l2.9,8.286l1.817-0.685c0.259-0.097,0.547,0.033,0.644,0.292c0.098,0.258-0.033,0.547-0.292,0.644l-2.296,0.865
				C28.401,19.427,28.341,19.438,28.281,19.438z"/>
			<path fill="#263238" d="M3.469,19.406c-0.053,0-0.106-0.008-0.159-0.026l-1.977-0.662c-0.262-0.088-0.403-0.371-0.315-0.633
				c0.088-0.262,0.373-0.402,0.633-0.315l1.509,0.505l2.91-8.312L1.362,7.979C1.107,7.872,0.988,7.579,1.095,7.324
				C1.203,7.07,1.496,6.953,1.75,7.058l5.14,2.167c0.243,0.103,0.365,0.377,0.278,0.626l-3.228,9.221
				C3.869,19.277,3.675,19.406,3.469,19.406z"/>
		</g>
	</g>
</g>
</svg>
