<?xml version="1.0" encoding="utf-8"?>
<!-- Generator: Adobe Illustrator 16.0.0, SVG Export Plug-In . SVG Version: 6.00 Build 0)  -->
<!DOCTYPE svg PUBLIC "-//W3C//DTD SVG 1.1//EN" "http://www.w3.org/Graphics/SVG/1.1/DTD/svg11.dtd">
<svg version="1.1" xmlns="http://www.w3.org/2000/svg" xmlns:xlink="http://www.w3.org/1999/xlink" x="0px" y="0px" width="32px"
	 height="32px" viewBox="0 0 32 32" enable-background="new 0 0 32 32" xml:space="preserve">
<g id="physics_x2C__electricity_x2C__light_bulb_x2C__idea">
	<g id="creative_idea_light_bulb">
		<path fill="#263238" d="M12.481,22.039c-0.248,0-0.464-0.185-0.495-0.438c-0.101-0.802-0.744-1.764-1.531-2.288
			C7.665,17.452,6,14.344,6,10.999c0-2.393,0.858-4.708,2.418-6.521C8.599,4.27,8.913,4.247,9.123,4.426
			c0.209,0.18,0.233,0.496,0.053,0.705C7.772,6.762,7,8.846,7,10.999c0,3.01,1.499,5.807,4.01,7.482
			c0.865,0.577,1.81,1.727,1.969,2.995c0.034,0.274-0.16,0.524-0.434,0.559C12.523,22.038,12.503,22.039,12.481,22.039z"/>
		<g>
			<g id="ICO">
				<g>
					<g>
						<path fill="#263238" d="M19.5,27.5H19v0.55c0,1.075-0.875,1.95-1.95,1.95h-2.1C13.875,30,13,29.125,13,28.05V27.5h-0.5
							c-0.186,0-0.351-0.065-0.5-0.154v0.704c0,1.627,1.323,2.95,2.95,2.95h2.1c1.627,0,2.95-1.323,2.95-2.95v-0.704
							C19.851,27.435,19.686,27.5,19.5,27.5z"/>
					</g>
					<g>
						<g>
							<g>
								<path fill="#263238" d="M19.5,28h-7c-0.827,0-1.5-0.673-1.5-1.5s0.673-1.5,1.5-1.5h7c0.827,0,1.5,0.673,1.5,1.5
									S20.327,28,19.5,28z M12.5,26c-0.275,0-0.5,0.225-0.5,0.5s0.225,0.5,0.5,0.5h7c0.275,0,0.5-0.225,0.5-0.5S19.775,26,19.5,26
									H12.5z"/>
							</g>
						</g>
					</g>
				</g>
				<g>
					<path fill="#263238" d="M16,0.999c-1.96,0-3.858,0.567-5.489,1.64c-0.231,0.152-0.295,0.462-0.144,0.692
						c0.152,0.232,0.464,0.294,0.692,0.144c1.468-0.966,3.177-1.476,4.94-1.476c4.963,0,9,4.037,9,9c0,3.01-1.499,5.807-4.01,7.482
						c-0.989,0.66-1.99,2.021-1.99,3.344V24h0.5c0.186,0,0.351,0.002,0.5,0.016v-2.19c0-0.962,0.796-2.012,1.545-2.512
						c2.79-1.861,4.455-4.97,4.455-8.314C26,5.485,21.514,0.999,16,0.999z"/>
				</g>
			</g>
		</g>
		<g>
			<g>
				<path fill="#263238" d="M2.203,6.011l2.351,0.854C4.813,6.96,5.098,6.826,5.192,6.566c0.097-0.258-0.039-0.546-0.299-0.641
					L2.545,5.071C2.285,4.977,1.998,5.11,1.905,5.37C1.81,5.629,1.943,5.916,2.203,6.011z"/>
				<path fill="#263238" d="M27.446,14.135c-0.258-0.095-0.544,0.039-0.639,0.299c-0.097,0.258,0.038,0.546,0.299,0.641l2.349,0.854
					c0.26,0.095,0.547-0.039,0.64-0.299c0.096-0.259-0.038-0.546-0.298-0.641L27.446,14.135z"/>
			</g>
			<g>
				<path fill="#263238" d="M29.455,5.071l-2.35,0.854c-0.26,0.095-0.394,0.381-0.299,0.641s0.381,0.394,0.641,0.299l2.35-0.854
					c0.26-0.095,0.393-0.382,0.298-0.641C30.001,5.11,29.715,4.977,29.455,5.071z"/>
				<path fill="#263238" d="M4.895,15.074c0.26-0.095,0.394-0.381,0.299-0.641s-0.381-0.394-0.641-0.299l-2.35,0.854
					c-0.26,0.095-0.393,0.382-0.298,0.641c0.094,0.26,0.38,0.394,0.64,0.299L4.895,15.074z"/>
			</g>
			<g>
				<path fill="#263238" d="M30.5,10H28c-0.276,0-0.5,0.224-0.5,0.5S27.724,11,28,11h2.5c0.276,0,0.5-0.224,0.5-0.5
					S30.776,10,30.5,10z"/>
				<path fill="#263238" d="M4,11c0.276,0,0.5-0.224,0.5-0.5S4.276,10,4,10H1.5C1.224,10,1,10.224,1,10.5S1.224,11,1.5,11H4z"/>
			</g>
		</g>
		<path fill="#263238" d="M14.5,23c-0.276,0-0.5,0.224-0.5,0.5l0,0c0,0.276,0.224,0.5,0.5,0.5h5c0.275,0,0.5,0.225,0.5,0.5
			S19.775,25,19.5,25h-7c-0.275,0-0.5-0.225-0.5-0.5s0.225-0.5,0.5-0.5l0,0c0.276,0,0.5-0.224,0.5-0.5l0,0
			c0-0.276-0.224-0.5-0.5-0.5l0,0c-0.827,0-1.5,0.673-1.5,1.5s0.673,1.5,1.5,1.5h7c0.827,0,1.5-0.673,1.5-1.5S20.327,23,19.5,23
			H14.5z"/>
	</g>
	<g>
		<g>
			<g>
				<g>
					<path fill="#263238" d="M14.5,18.999c-0.062,0-0.125-0.011-0.185-0.034c-0.225-0.09-0.354-0.326-0.306-0.563l0.88-4.402H12.5
						c-0.182,0-0.349-0.099-0.438-0.257c-0.088-0.159-0.083-0.354,0.014-0.508l5-8c0.128-0.205,0.386-0.287,0.608-0.199
						c0.225,0.089,0.353,0.325,0.306,0.563l-1,5c-0.054,0.271-0.314,0.449-0.588,0.392c-0.271-0.054-0.446-0.316-0.393-0.588
						l0.463-2.315l-3.07,4.913H15.5c0.149,0,0.291,0.067,0.387,0.184c0.095,0.115,0.133,0.269,0.104,0.415l-0.463,2.314l3.549-5.678
						c0.146-0.234,0.455-0.306,0.688-0.158c0.234,0.146,0.306,0.454,0.159,0.688l-5,8C14.831,18.915,14.668,18.999,14.5,18.999z"/>
				</g>
			</g>
		</g>
	</g>
</g>
</svg>
