<?xml version="1.0" encoding="utf-8"?>
<!-- Generator: Adobe Illustrator 16.0.0, SVG Export Plug-In . SVG Version: 6.00 Build 0)  -->
<!DOCTYPE svg PUBLIC "-//W3C//DTD SVG 1.1//EN" "http://www.w3.org/Graphics/SVG/1.1/DTD/svg11.dtd">
<svg version="1.1" id="Layer_1" xmlns="http://www.w3.org/2000/svg" xmlns:xlink="http://www.w3.org/1999/xlink" x="0px" y="0px"
	 width="32px" height="32px" viewBox="0 0 32 32" enable-background="new 0 0 32 32" xml:space="preserve">
<g id="promotion_viral_marketing">
	<g>
		<path fill="#263238" d="M3.438,18H3c-0.551,0-1-0.449-1-1v-4c0-0.233,0.083-0.461,0.235-0.641c0.178-0.211,0.15-0.527-0.061-0.705
			c-0.211-0.177-0.526-0.15-0.705,0.061C1.167,12.075,1,12.532,1,13v4c0,1.103,0.897,2,2,2h0.438V18z"/>
	</g>
	<g>
		<path fill="#263238" d="M12.555,20.438h-1.064L12.786,24H11l0.5,1h2c0.163,0,0.316-0.08,0.41-0.213
			c0.093-0.133,0.116-0.304,0.06-0.458L12.555,20.438z"/>
	</g>
	<g>
		<path fill="#263238" d="M9.784,30.823c-0.69,0-1.345-0.469-1.539-1.147l-1.988-6.958C6.181,22.453,6.334,22.176,6.6,22.1
			c0.265-0.072,0.542,0.078,0.618,0.344l1.988,6.958c0.079,0.275,0.395,0.469,0.676,0.412l3.039-0.607
			c0.271-0.054,0.446-0.318,0.392-0.588l-0.107-0.54C13.134,27.72,12.87,27.5,12.75,27.5c-0.642,0-1.29-0.569-1.505-1.324
			l-1.044-3.654c-0.076-0.266,0.078-0.542,0.344-0.618c0.263-0.072,0.542,0.078,0.618,0.344l1.043,3.654
			c0.106,0.371,0.413,0.599,0.544,0.599c0.65,0,1.281,0.607,1.437,1.382l0.107,0.54c0.163,0.811-0.365,1.603-1.176,1.765
			l-3.039,0.607C9.98,30.813,9.881,30.823,9.784,30.823z"/>
	</g>
	<g>
		<path fill="#263238" d="M27,26.907l-0.859-0.884C24.319,24.147,20.384,21,14.5,21H6c-1.654,0-3-1.346-3-3v-6c0-1.654,1.346-3,3-3
			h6.5C12.776,9,13,9.224,13,9.5S12.776,10,12.5,10H6c-1.103,0-2,0.897-2,2v6c0,1.103,0.897,2,2,2h8.5c5.446,0,9.316,2.532,11.5,4.5
			V4.326c0-0.276,0.224-0.5,0.5-0.5s0.5,0.224,0.5,0.5V26.907z"/>
	</g>
	<g>
		<path fill="#263238" d="M14.5,10C14.224,10,14,9.776,14,9.5S14.224,9,14.5,9c4.388,0,7.692-1.798,9.69-3.306
			c0.221-0.168,0.534-0.123,0.7,0.098c0.167,0.221,0.123,0.534-0.098,0.7C22.672,8.093,19.165,10,14.5,10z"/>
	</g>
	<g>
		<path fill="#263238" d="M28.5,11.308v1.102c0.899,0.526,1.5,1.5,1.5,2.59s-0.601,2.064-1.5,2.59v1.102
			C29.971,18.089,31,16.646,31,15S29.971,11.911,28.5,11.308z"/>
		<g>
			<path fill="#263238" d="M27.5,3C27.775,3,28,3.225,28,3.5v23c0,0.275-0.225,0.5-0.5,0.5S27,26.775,27,26.5v-23
				C27,3.225,27.225,3,27.5,3L27.5,3z M27.5,2C26.673,2,26,2.673,26,3.5v23c0,0.827,0.673,1.5,1.5,1.5s1.5-0.673,1.5-1.5v-23
				C29,2.673,28.327,2,27.5,2L27.5,2z"/>
		</g>
	</g>
	<g>
		<rect x="14" y="9.5" fill="#263238" width="1" height="10.5"/>
	</g>
	<g>
		<path fill="#263238" d="M7.5,17h-2C5.224,17,5,16.776,5,16.5l0,0C5,16.224,5.224,16,5.5,16h2C7.776,16,8,16.224,8,16.5l0,0
			C8,16.776,7.776,17,7.5,17z"/>
	</g>
	<g>
		<path fill="#263238" d="M7.5,15h-2C5.224,15,5,14.776,5,14.5l0,0C5,14.224,5.224,14,5.5,14h2C7.776,14,8,14.224,8,14.5l0,0
			C8,14.776,7.776,15,7.5,15z"/>
	</g>
	<g>
		<path fill="#263238" d="M7.5,13h-2C5.224,13,5,12.776,5,12.5l0,0C5,12.224,5.224,12,5.5,12h2C7.776,12,8,12.224,8,12.5l0,0
			C8,12.776,7.776,13,7.5,13z"/>
	</g>
</g>
</svg>
