<?xml version="1.0" encoding="utf-8"?>
<!-- Generator: Adobe Illustrator 16.0.0, SVG Export Plug-In . SVG Version: 6.00 Build 0)  -->
<!DOCTYPE svg PUBLIC "-//W3C//DTD SVG 1.1//EN" "http://www.w3.org/Graphics/SVG/1.1/DTD/svg11.dtd">
<svg version="1.1" xmlns="http://www.w3.org/2000/svg" xmlns:xlink="http://www.w3.org/1999/xlink" x="0px" y="0px" width="32px"
	 height="32px" viewBox="0 0 32 32" enable-background="new 0 0 32 32" xml:space="preserve">
<g id="question">
	<g>
		<g id="XMLID_4152_">
			<path fill="#263238" d="M16,31C7.729,31,1,24.271,1,16S7.729,1,16,1s15,6.729,15,15S24.271,31,16,31z M16,2C8.28,2,2,8.28,2,16
				s6.28,14,14,14s14-6.28,14-14S23.72,2,16,2z"/>
		</g>
		<g id="XMLID_4155_">
			<path fill="#263238" d="M16,28c-1.378,0-2.5-1.121-2.5-2.5c0-0.335,0.065-0.661,0.194-0.967c0.106-0.255,0.401-0.375,0.654-0.268
				c0.255,0.106,0.375,0.399,0.268,0.654c-0.077,0.184-0.116,0.378-0.116,0.58c0,0.827,0.673,1.5,1.5,1.5s1.5-0.673,1.5-1.5
				S16.827,24,16,24c-0.276,0-0.5-0.224-0.5-0.5S15.724,23,16,23c1.378,0,2.5,1.121,2.5,2.5S17.378,28,16,28z"/>
		</g>
		<g id="XMLID_4161_">
			<path fill="#263238" d="M16,22c-1.103,0-2-0.897-2-2v-0.5c0-1.923,0.562-3.319,1.768-4.396c0.4-0.357,0.828-0.664,1.206-0.934
				C18.238,13.263,19,12.715,19,11c0-2.148-1.606-2.724-2.099-2.85c-1.225-0.312-2.958,0.128-4.145,2.306
				c-0.527,0.968-1.745,1.326-2.712,0.801c-0.469-0.255-0.812-0.678-0.962-1.19C8.931,9.554,8.988,9.014,9.244,8.544
				C9.334,8.376,9.43,8.213,9.528,8.053c0.146-0.234,0.453-0.307,0.688-0.161c0.235,0.146,0.307,0.453,0.162,0.688
				c-0.089,0.143-0.174,0.29-0.257,0.441c-0.128,0.235-0.157,0.506-0.081,0.762s0.246,0.468,0.481,0.595
				c0.485,0.262,1.093,0.084,1.356-0.4c1.46-2.683,3.68-3.201,5.27-2.796C18.527,7.532,20,8.72,20,11
				c0,2.228-1.132,3.04-2.442,3.982c-0.359,0.257-0.764,0.547-1.124,0.868C15.456,16.724,15,17.883,15,19.5V20c0,0.552,0.449,1,1,1
				s1-0.448,1-1v-0.5c0-1.359,0.395-1.826,0.765-2.157c0.267-0.238,0.603-0.479,0.958-0.735C20.184,15.558,22,14.253,22,11
				c0-2.78-1.752-5.093-4.359-5.757c-2.147-0.546-4.348,0.102-6.037,1.781c-0.197,0.193-0.513,0.194-0.707-0.002
				c-0.195-0.195-0.194-0.513,0.002-0.707c1.945-1.935,4.491-2.681,6.989-2.041C20.945,5.053,23,7.755,23,11
				c0,3.766-2.222,5.362-3.692,6.419c-0.326,0.234-0.633,0.453-0.876,0.67C18.249,18.251,18,18.474,18,19.5V20
				C18,21.103,17.103,22,16,22z"/>
		</g>
	</g>
</g>
</svg>
