<?xml version="1.0" encoding="utf-8"?>
<!-- Generator: Adobe Illustrator 16.0.0, SVG Export Plug-In . SVG Version: 6.00 Build 0)  -->
<!DOCTYPE svg PUBLIC "-//W3C//DTD SVG 1.1//EN" "http://www.w3.org/Graphics/SVG/1.1/DTD/svg11.dtd">
<svg version="1.1" id="Layer_1" xmlns="http://www.w3.org/2000/svg" xmlns:xlink="http://www.w3.org/1999/xlink" x="0px" y="0px"
	 width="32px" height="32px" viewBox="0 0 32 32" enable-background="new 0 0 32 32" xml:space="preserve">
<g id="radio_advertising">
	<path fill="#263238" d="M16,25c-4.411,0-8-3.589-8-8v-3H7.5C7.224,14,7,13.776,7,13.5S7.224,13,7.5,13h1C8.776,13,9,13.224,9,13.5
		V17c0,3.859,3.14,7,7,7s7-3.141,7-7v-3.5c0-0.276,0.224-0.5,0.5-0.5h1c0.276,0,0.5,0.224,0.5,0.5S24.776,14,24.5,14H24v3
		C24,21.411,20.411,25,16,25z"/>
	<path fill="#263238" d="M16,23c-3.309,0-6-2.691-6-6V7c0-0.972,0.238-1.936,0.688-2.79c0.128-0.244,0.432-0.337,0.675-0.209
		c0.245,0.129,0.338,0.431,0.209,0.676C11.198,5.387,11,6.19,11,7v10c0,2.757,2.243,5,5,5s5-2.243,5-5V7c0-2.757-2.243-5-5-5
		c-1.17,0-2.31,0.414-3.208,1.165c-0.212,0.179-0.528,0.149-0.704-0.063c-0.177-0.212-0.149-0.527,0.063-0.705
		C13.229,1.496,14.595,1,16,1c3.309,0,6,2.691,6,6v10C22,20.309,19.309,23,16,23z"/>
	<path fill="#263238" d="M21,14H11c-0.276,0-0.5-0.224-0.5-0.5S10.724,13,11,13h10c0.276,0,0.5,0.224,0.5,0.5S21.276,14,21,14z"/>
	<g>
		<circle fill="#263238" cx="19.5" cy="3.5" r="0.5"/>
		<circle fill="#263238" cx="17.5" cy="3.5" r="0.5"/>
		<circle fill="#263238" cx="15.5" cy="3.5" r="0.5"/>
		<circle fill="#263238" cx="13.5" cy="3.5" r="0.5"/>
		<circle fill="#263238" cx="20.5" cy="5.5" r="0.5"/>
		<circle fill="#263238" cx="18.5" cy="5.5" r="0.5"/>
		<circle fill="#263238" cx="16.5" cy="5.5" r="0.5"/>
		<circle fill="#263238" cx="14.5" cy="5.5" r="0.5"/>
		<circle fill="#263238" cx="12.5" cy="5.5" r="0.5"/>
		<circle fill="#263238" cx="19.5" cy="7.5" r="0.5"/>
		<circle fill="#263238" cx="17.5" cy="7.5" r="0.5"/>
		<circle fill="#263238" cx="15.5" cy="7.5" r="0.5"/>
		<circle fill="#263238" cx="13.5" cy="7.5" r="0.5"/>
		<circle fill="#263238" cx="11.5" cy="7.5" r="0.5"/>
		<circle fill="#263238" cx="19.5" cy="11.5" r="0.5"/>
		<circle fill="#263238" cx="17.5" cy="11.5" r="0.5"/>
		<circle fill="#263238" cx="15.5" cy="11.5" r="0.5"/>
		<circle fill="#263238" cx="13.5" cy="11.5" r="0.5"/>
		<circle fill="#263238" cx="11.5" cy="11.5" r="0.5"/>
		<circle fill="#263238" cx="20.5" cy="9.5" r="0.5"/>
		<circle fill="#263238" cx="18.5" cy="9.5" r="0.5"/>
		<circle fill="#263238" cx="16.5" cy="9.5" r="0.5"/>
		<circle fill="#263238" cx="14.5" cy="9.5" r="0.5"/>
		<circle fill="#263238" cx="12.5" cy="9.5" r="0.5"/>
	</g>
	<path fill="#263238" d="M21,16H11c-0.276,0-0.5-0.224-0.5-0.5S10.724,15,11,15h10c0.276,0,0.5,0.224,0.5,0.5S21.276,16,21,16z"/>
	<g>
		<path fill="#263238" d="M22.5,31h-3c-1.93,0-3.5-1.57-3.5-3.5c0,1.93-1.57,3.5-3.5,3.5h-3C9.224,31,9,30.776,9,30.5
			S9.224,30,9.5,30h3c1.378,0,2.5-1.121,2.5-2.5v-3c0-0.276,0.224-0.5,0.5-0.5h1c0.276,0,0.5,0.224,0.5,0.5v3
			c0,1.379,1.122,2.5,2.5,2.5h3c0.276,0,0.5,0.224,0.5,0.5S22.776,31,22.5,31z"/>
	</g>
	<path fill="#263238" d="M22.5,31h-13C9.224,31,9,30.776,9,30.5S9.224,30,9.5,30h13c0.276,0,0.5,0.224,0.5,0.5S22.776,31,22.5,31z"
		/>
	<path fill="#263238" d="M4.625,10.625c-0.19,0-0.363-0.107-0.448-0.277c-0.465-0.936-0.465-0.936-1.4-1.4
		C2.607,8.863,2.5,8.689,2.5,8.5s0.107-0.363,0.277-0.447c0.935-0.465,0.935-0.465,1.4-1.4c0.084-0.17,0.258-0.277,0.448-0.277l0,0
		c0.19,0,0.363,0.107,0.448,0.277c0.464,0.935,0.464,0.935,1.4,1.4C6.643,8.137,6.75,8.311,6.75,8.5S6.643,8.863,6.473,8.947
		c-0.936,0.466-0.936,0.466-1.4,1.4C4.988,10.518,4.815,10.625,4.625,10.625z M4.05,8.5c0.249,0.163,0.411,0.325,0.575,0.574
		C4.788,8.825,4.951,8.663,5.2,8.5C4.951,8.337,4.788,8.175,4.625,7.926C4.461,8.175,4.299,8.337,4.05,8.5z"/>
	<path fill="#263238" d="M6.5,6.121c-0.19,0-0.363-0.107-0.448-0.277C5.423,4.576,5.423,4.576,4.157,3.948
		C3.986,3.863,3.879,3.689,3.879,3.5s0.107-0.363,0.278-0.448c1.266-0.628,1.266-0.628,1.896-1.896c0.169-0.34,0.727-0.34,0.896,0
		c0.629,1.268,0.629,1.268,1.896,1.896C9.014,3.137,9.121,3.311,9.121,3.5S9.014,3.863,8.843,3.948
		C7.577,4.576,7.577,4.576,6.948,5.844C6.863,6.014,6.69,6.121,6.5,6.121z M5.46,3.5C5.963,3.792,6.208,4.036,6.5,4.54
		C6.792,4.036,7.037,3.792,7.54,3.5C7.037,3.208,6.792,2.964,6.5,2.46C6.208,2.964,5.963,3.208,5.46,3.5z"/>
</g>
</svg>
