<?xml version="1.0" encoding="utf-8"?>
<!-- Generator: Adobe Illustrator 16.0.0, SVG Export Plug-In . SVG Version: 6.00 Build 0)  -->
<!DOCTYPE svg PUBLIC "-//W3C//DTD SVG 1.1//EN" "http://www.w3.org/Graphics/SVG/1.1/DTD/svg11.dtd">
<svg version="1.1" xmlns="http://www.w3.org/2000/svg" xmlns:xlink="http://www.w3.org/1999/xlink" x="0px" y="0px" width="32px"
	 height="32px" viewBox="0 0 32 32" enable-background="new 0 0 32 32" xml:space="preserve">
<g id="response_time_stopwatch_website">
	<circle fill="#263238" cx="7.5" cy="4.5" r="0.5"/>
	<circle fill="#263238" cx="5.5" cy="4.5" r="0.5"/>
	<circle fill="#263238" cx="3.5" cy="4.5" r="0.5"/>
	<path fill="#263238" d="M29.5,7h-28C1.224,7,1,6.776,1,6.5S1.224,6,1.5,6h28C29.776,6,30,6.224,30,6.5S29.776,7,29.5,7z"/>
	<path fill="#263238" d="M28.5,28h-4c-0.276,0-0.5-0.224-0.5-0.5s0.224-0.5,0.5-0.5h4c0.275,0,0.5-0.225,0.5-0.5v-23
		C29,3.225,28.775,3,28.5,3h-26C2.225,3,2,3.225,2,3.5v23C2,26.775,2.225,27,2.5,27h4C6.776,27,7,27.224,7,27.5S6.776,28,6.5,28h-4
		C1.673,28,1,27.327,1,26.5v-23C1,2.673,1.673,2,2.5,2h26C29.327,2,30,2.673,30,3.5v23C30,27.327,29.327,28,28.5,28z"/>
	<g>
		<path fill="#263238" d="M15.5,29C10.262,29,6,24.738,6,19.5c0-2.104,0.674-4.097,1.947-5.765c0.168-0.221,0.482-0.262,0.701-0.094
			c0.22,0.168,0.262,0.481,0.094,0.701C7.603,15.834,7,17.617,7,19.5c0,4.687,3.813,8.5,8.5,8.5s8.5-3.813,8.5-8.5
			c0-2.626-1.186-5.063-3.252-6.688c-0.218-0.171-0.255-0.485-0.085-0.702c0.172-0.218,0.488-0.253,0.702-0.085
			C23.676,13.841,25,16.564,25,19.5C25,24.738,20.738,29,15.5,29z"/>
		<path fill="#263238" d="M9.975,12.895c-0.148,0-0.296-0.066-0.395-0.192C9.41,12.483,9.449,12.17,9.667,12
			c1.682-1.309,3.698-2,5.833-2c1.333,0,2.62,0.27,3.825,0.802c0.252,0.111,0.367,0.406,0.255,0.659
			c-0.111,0.252-0.407,0.367-0.659,0.255C17.845,11.241,16.693,11,15.5,11c-1.91,0-3.715,0.619-5.218,1.789
			C10.19,12.86,10.082,12.895,9.975,12.895z"/>
		<g>
			<g>
				<path fill="#263238" d="M21.114,12.837c-0.103,0-0.205-0.031-0.294-0.096c-0.224-0.162-0.272-0.475-0.11-0.698l0.882-1.213
					c0.163-0.224,0.476-0.271,0.698-0.11c0.224,0.162,0.272,0.475,0.11,0.698l-0.882,1.213
					C21.421,12.766,21.269,12.837,21.114,12.837z"/>
			</g>
		</g>
		<g>
			<g>
				<path fill="#263238" d="M9.886,12.837c-0.154,0-0.307-0.071-0.404-0.206L8.6,11.417c-0.162-0.224-0.113-0.536,0.11-0.698
					c0.222-0.161,0.535-0.114,0.698,0.11l0.882,1.214c0.162,0.224,0.113,0.536-0.11,0.698C10.091,12.806,9.988,12.837,9.886,12.837z
					"/>
			</g>
		</g>
		<g>
			<path fill="#263238" d="M15.5,11c-0.276,0-0.5-0.224-0.5-0.5v-2C15,8.224,15.224,8,15.5,8S16,8.224,16,8.5v2
				C16,10.776,15.776,11,15.5,11z"/>
		</g>
		<g>
			<path fill="#263238" d="M16.5,9h-2C14.224,9,14,8.776,14,8.5S14.224,8,14.5,8h2C16.776,8,17,8.224,17,8.5S16.776,9,16.5,9z"/>
		</g>
		<g>
			<g>
				<g>
					<path fill="#263238" d="M19.247,13.013c0.113,0.064,0.202,0.173,0.232,0.297c0.038,0.136,0.015,0.273-0.048,0.387
						c-0.065,0.111-0.175,0.2-0.306,0.229c-0.259,0.068-0.536-0.092-0.611-0.342c-0.037-0.139-0.015-0.276,0.051-0.388
						c0.063-0.112,0.173-0.201,0.294-0.231C19,12.926,19.136,12.947,19.247,13.013z"/>
				</g>
				<g>
					<path fill="#263238" d="M12.248,25.137c0.111,0.065,0.2,0.173,0.227,0.306c0.042,0.128,0.021,0.265-0.044,0.379
						c-0.065,0.111-0.173,0.198-0.31,0.237c-0.24,0.056-0.532-0.1-0.605-0.351c-0.038-0.137-0.017-0.275,0.049-0.387
						c0.065-0.114,0.174-0.2,0.306-0.229C12.007,25.055,12.135,25.073,12.248,25.137z"/>
				</g>
			</g>
			<g>
				<g>
					<path fill="#263238" d="M21.991,15.756c0.065,0.112,0.088,0.251,0.053,0.374c-0.035,0.136-0.124,0.244-0.235,0.311
						c-0.112,0.063-0.251,0.086-0.379,0.046c-0.259-0.07-0.419-0.348-0.358-0.602c0.037-0.139,0.125-0.247,0.237-0.311
						c0.111-0.065,0.25-0.088,0.371-0.054C21.82,15.557,21.927,15.644,21.991,15.756z"/>
				</g>
				<g>
					<path fill="#263238" d="M9.867,22.756c0.064,0.112,0.087,0.25,0.044,0.379c-0.027,0.131-0.114,0.239-0.228,0.306
						c-0.112,0.063-0.249,0.085-0.387,0.051c-0.236-0.072-0.411-0.353-0.35-0.606c0.036-0.138,0.124-0.247,0.236-0.311
						c0.113-0.066,0.25-0.087,0.379-0.046C9.699,22.564,9.802,22.645,9.867,22.756z"/>
				</g>
			</g>
			<g>
				<g>
					<path fill="#263238" d="M22.996,19.504c0,0.13-0.05,0.261-0.142,0.351c-0.099,0.1-0.229,0.149-0.359,0.15
						c-0.129-0.001-0.26-0.051-0.351-0.149c-0.189-0.19-0.189-0.511-0.01-0.7c0.102-0.102,0.231-0.151,0.361-0.15
						c0.129-0.001,0.26,0.049,0.348,0.14C22.947,19.245,22.996,19.374,22.996,19.504z"/>
				</g>
				<g>
					<path fill="#263238" d="M8.996,19.504c0,0.13-0.05,0.26-0.151,0.351c-0.089,0.1-0.219,0.149-0.35,0.15
						c-0.129-0.001-0.259-0.051-0.36-0.149c-0.169-0.181-0.18-0.511,0-0.7c0.101-0.101,0.231-0.151,0.36-0.15
						c0.131-0.001,0.26,0.05,0.351,0.149C8.946,19.254,8.995,19.375,8.996,19.504z"/>
				</g>
			</g>
			<g>
				<g>
					<path fill="#263238" d="M21.992,23.252c-0.065,0.112-0.174,0.201-0.298,0.233c-0.136,0.036-0.273,0.015-0.387-0.05
						c-0.111-0.065-0.199-0.174-0.229-0.305c-0.069-0.26,0.091-0.537,0.342-0.611c0.138-0.037,0.275-0.016,0.388,0.05
						c0.112,0.064,0.2,0.173,0.231,0.296C22.079,23.003,22.057,23.14,21.992,23.252z"/>
				</g>
				<g>
					<path fill="#263238" d="M9.867,16.252c-0.064,0.112-0.173,0.2-0.306,0.229c-0.127,0.041-0.265,0.02-0.378-0.045
						c-0.111-0.065-0.199-0.174-0.237-0.31c-0.056-0.241,0.1-0.532,0.35-0.606c0.138-0.037,0.276-0.016,0.388,0.05
						c0.113,0.064,0.2,0.173,0.229,0.305C9.949,16.011,9.932,16.14,9.867,16.252z"/>
				</g>
			</g>
			<g>
				<g>
					<path fill="#263238" d="M19.248,25.996c-0.112,0.064-0.25,0.087-0.374,0.053c-0.136-0.036-0.244-0.124-0.31-0.236
						c-0.064-0.112-0.086-0.25-0.046-0.378c0.07-0.26,0.348-0.42,0.602-0.358c0.138,0.036,0.246,0.124,0.311,0.236
						c0.065,0.112,0.087,0.25,0.053,0.373C19.448,25.823,19.36,25.931,19.248,25.996z"/>
				</g>
				<g>
					<path fill="#263238" d="M12.248,13.871c-0.112,0.065-0.25,0.087-0.379,0.045c-0.131-0.027-0.239-0.115-0.305-0.228
						c-0.064-0.112-0.086-0.25-0.051-0.387c0.072-0.237,0.353-0.411,0.606-0.351c0.138,0.037,0.246,0.125,0.311,0.237
						c0.065,0.112,0.087,0.25,0.045,0.378C12.439,13.703,12.36,13.807,12.248,13.871z"/>
				</g>
			</g>
			<g>
				<g>
					<path fill="#263238" d="M15.5,27c-0.13,0-0.26-0.05-0.351-0.141C15.05,26.76,15,26.63,15,26.5s0.05-0.26,0.149-0.351
						c0.19-0.189,0.511-0.189,0.7-0.01C15.95,26.24,16,26.37,16,26.5s-0.05,0.26-0.141,0.35C15.76,26.95,15.63,27,15.5,27z"/>
				</g>
				<g>
					<path fill="#263238" d="M15.5,13c-0.13,0-0.26-0.05-0.351-0.15C15.05,12.76,15,12.63,15,12.5s0.05-0.26,0.149-0.36
						c0.181-0.17,0.511-0.18,0.7,0C15.95,12.24,16,12.37,16,12.5s-0.05,0.26-0.15,0.35C15.75,12.95,15.63,13,15.5,13z"/>
				</g>
			</g>
		</g>
		<g>
			<path fill="#263238" d="M15.5,18.5c0.187,0,0.351,0.064,0.5,0.153V14.5c0-0.276-0.224-0.5-0.5-0.5S15,14.224,15,14.5v4.153
				C15.149,18.564,15.313,18.5,15.5,18.5z"/>
			<path fill="#263238" d="M15.5,21c-0.827,0-1.5-0.673-1.5-1.5s0.673-1.5,1.5-1.5s1.5,0.673,1.5,1.5S16.327,21,15.5,21z M15.5,19
				c-0.275,0-0.5,0.225-0.5,0.5s0.225,0.5,0.5,0.5s0.5-0.225,0.5-0.5S15.775,19,15.5,19z"/>
		</g>
	</g>
</g>
</svg>
