<?xml version="1.0" encoding="utf-8"?>
<!-- Generator: Adobe Illustrator 16.0.0, SVG Export Plug-In . SVG Version: 6.00 Build 0)  -->
<!DOCTYPE svg PUBLIC "-//W3C//DTD SVG 1.1//EN" "http://www.w3.org/Graphics/SVG/1.1/DTD/svg11.dtd">
<svg version="1.1" id="Layer_1" xmlns="http://www.w3.org/2000/svg" xmlns:xlink="http://www.w3.org/1999/xlink" x="0px" y="0px"
	 width="32px" height="32px" viewBox="0 0 32 32" enable-background="new 0 0 32 32" xml:space="preserve">
<g id="saving_plan_1_">
	<g id="Public_Relations_2_">
		<g>
			<g>
				<g>
					<path fill="#263238" d="M26.467,26H17.5c-1.378,0-2.5-1.121-2.5-2.5c0-0.276,0.224-0.5,0.5-0.5s0.5,0.224,0.5,0.5
						c0,0.827,0.673,1.5,1.5,1.5h8.967c0.276,0,0.5,0.224,0.5,0.5S26.743,26,26.467,26z"/>
				</g>
			</g>
		</g>
		<g>
			<g>
				<g>
					<path fill="#263238" d="M21.368,31c-0.017,0-0.033-0.001-0.05-0.003c-0.275-0.027-0.475-0.272-0.448-0.547l0.5-5
						C21.395,25.194,21.61,25,21.867,25h4.6c0.276,0,0.5-0.225,0.5-0.5v-5c0-0.276,0.224-0.5,0.5-0.5h2.4
						c0.078,0,0.121-0.014,0.138-0.021c-0.007-0.01-0.015-0.054-0.052-0.123l-2.642-5.85c-0.033-0.073-0.048-0.153-0.043-0.234
						l0.101-1.8C27.367,6.037,22.881,2,17.367,2c-2.571,0-4.949,0.992-6.694,2.795c-0.193,0.199-0.51,0.203-0.707,0.012
						C9.767,4.614,9.762,4.298,9.954,4.1C11.89,2.101,14.522,1,17.367,1c6.065,0,11,4.486,11,10l-0.095,1.705l2.577,5.708
						c0.195,0.36,0.206,0.768,0.015,1.086C30.673,19.817,30.31,20,29.867,20h-1.9v4.5c0,0.827-0.673,1.5-1.5,1.5H22.32l-0.455,4.55
						C21.839,30.808,21.622,31,21.368,31z"/>
				</g>
			</g>
		</g>
		<g>
			<g>
				<g>
					<path fill="#263238" d="M9.868,31c-0.036,0-0.072-0.004-0.109-0.012c-0.27-0.06-0.439-0.327-0.38-0.597
						c0.007-0.031,0.705-3.2,0.919-5.868c0.022-0.275,0.264-0.48,0.539-0.458c0.275,0.021,0.48,0.263,0.458,0.538
						c-0.22,2.738-0.911,5.873-0.94,6.005C10.304,30.842,10.097,31,9.868,31z"/>
				</g>
			</g>
		</g>
	</g>
	<g>
		<g>
			<g>
				<g>
					<g>
						<g>
							<g>
								<g>
									<path fill="#263238" d="M9.5,22.999c-4.687,0-8.5-3.813-8.5-8.499c0-2.446,1.056-4.776,2.896-6.393
										c0.208-0.181,0.523-0.161,0.706,0.046c0.183,0.208,0.162,0.523-0.045,0.706C2.932,10.285,2,12.342,2,14.5
										c0,4.135,3.364,7.499,7.5,7.499S17,18.635,17,14.5c0-4.136-3.364-7.501-7.5-7.501c-0.943,0-1.862,0.173-2.729,0.513
										C6.515,7.612,6.223,7.486,6.123,7.229C6.021,6.971,6.148,6.681,6.405,6.58C7.39,6.194,8.431,5.999,9.5,5.999
										c4.687,0,8.5,3.813,8.5,8.501C18,19.187,14.187,22.999,9.5,22.999z"/>
								</g>
							</g>
						</g>
					</g>
				</g>
			</g>
		</g>
		<g>
			<g>
				<g>
					<g>
						<g>
							<g>
								<path fill="#263238" d="M9.5,18.5c1.402,0,2.5-1.098,2.5-2.5c0-1.135-0.771-1.962-2.291-2.458l-0.113-0.037
									C9.027,13.319,8.5,13.069,8.5,12.5c0-0.589,0.412-1,1-1c0.705,0,1.174,0.378,1.178,0.382c0.213,0.178,0.527,0.15,0.705-0.06
									c0.178-0.212,0.15-0.526-0.061-0.704C11.293,11.093,10.576,10.5,9.5,10.5c-1.141,0-2,0.86-2,2
									c0,1.374,1.344,1.813,1.785,1.955l0.113,0.037C10.477,14.844,11,15.338,11,16c0,0.855-0.645,1.5-1.5,1.5
									c-0.928,0-1.459-0.612-1.6-0.8c-0.166-0.222-0.48-0.265-0.699-0.101c-0.223,0.166-0.268,0.479-0.102,0.7
									C7.311,17.582,8.109,18.5,9.5,18.5z"/>
							</g>
						</g>
					</g>
				</g>
			</g>
			<g>
				<g>
					<g>
						<g>
							<g>
								<path fill="#263238" d="M9.5,19.5c0.277,0,0.5-0.224,0.5-0.5v-0.5c0-0.276-0.223-0.5-0.5-0.5C9.225,18,9,18.224,9,18.5V19
									C9,19.276,9.225,19.5,9.5,19.5z"/>
							</g>
						</g>
					</g>
				</g>
			</g>
			<g>
				<g>
					<g>
						<g>
							<g>
								<path fill="#263238" d="M9.5,11c0.277,0,0.5-0.224,0.5-0.5V10c0-0.276-0.223-0.5-0.5-0.5C9.225,9.5,9,9.724,9,10v0.5
									C9,10.776,9.225,11,9.5,11z"/>
							</g>
						</g>
					</g>
				</g>
			</g>
		</g>
	</g>
</g>
</svg>
