<?xml version="1.0" encoding="utf-8"?>
<!-- Generator: Adobe Illustrator 16.0.0, SVG Export Plug-In . SVG Version: 6.00 Build 0)  -->
<!DOCTYPE svg PUBLIC "-//W3C//DTD SVG 1.1//EN" "http://www.w3.org/Graphics/SVG/1.1/DTD/svg11.dtd">
<svg version="1.1" xmlns="http://www.w3.org/2000/svg" xmlns:xlink="http://www.w3.org/1999/xlink" x="0px" y="0px" width="32px"
	 height="32px" viewBox="0 0 32 32" enable-background="new 0 0 32 32" xml:space="preserve">
<g id="search_analysis_seo">
	<g>
		<g id="monitoring_1_">
			<path fill="#263238" d="M30.5,7h-29C1.224,7,1,6.776,1,6.5v-3C1,2.673,1.673,2,2.5,2h27C30.327,2,31,2.673,31,3.5v3
				C31,6.776,30.776,7,30.5,7z M2,6h28V3.5C30,3.225,29.775,3,29.5,3h-27C2.225,3,2,3.225,2,3.5V6z"/>
			<circle fill="#263238" cx="7.5" cy="4.5" r="0.5"/>
			<circle fill="#263238" cx="5.5" cy="4.5" r="0.5"/>
			<circle fill="#263238" cx="3.5" cy="4.5" r="0.5"/>
			<g>
				<path fill="#263238" d="M6.5,12h-3C3.224,12,3,11.776,3,11.5S3.224,11,3.5,11h3C6.776,11,7,11.224,7,11.5S6.776,12,6.5,12z"/>
			</g>
			<g>
				<path fill="#263238" d="M9.5,10h-6C3.224,10,3,9.776,3,9.5S3.224,9,3.5,9h6C9.776,9,10,9.224,10,9.5S9.776,10,9.5,10z"/>
			</g>
			<path fill="#263238" d="M18.5,28h-16C1.673,28,1,27.327,1,26.5v-23C1,2.673,1.673,2,2.5,2h27C30.327,2,31,2.673,31,3.5V24
				c0,0.276-0.224,0.5-0.5,0.5S30,24.276,30,24V3.5C30,3.224,29.775,3,29.5,3h-27C2.225,3,2,3.224,2,3.5v23
				C2,26.776,2.225,27,2.5,27h16c0.276,0,0.5,0.224,0.5,0.5S18.776,28,18.5,28z"/>
		</g>
	</g>
	<g>
		<g>
			<g>
				<g>
					<path fill="#263238" d="M17,25c-4.411,0-8-3.589-8-8s3.589-8,8-8s8,3.589,8,8S21.411,25,17,25z M17,10c-3.859,0-7,3.141-7,7
						s3.141,7,7,7s7-3.141,7-7S20.859,10,17,10z"/>
				</g>
			</g>
			<g>
				<path fill="#263238" d="M23.939,23.939c0.097-0.097,0.208-0.173,0.324-0.239c-0.017-0.101-0.055-0.198-0.132-0.276l-1.414-1.415
					c-0.195-0.195-0.512-0.195-0.707,0c-0.195,0.196-0.195,0.512,0,0.708l1.414,1.414c0.077,0.078,0.175,0.115,0.275,0.131
					C23.767,24.147,23.843,24.036,23.939,23.939z"/>
				<path fill="#263238" d="M25,24c0.256,0,0.512,0.098,0.707,0.293l4,4c0.391,0.391,0.391,1.023,0,1.414
					C29.512,29.902,29.256,30,29,30s-0.512-0.098-0.707-0.293l-4-4c-0.391-0.391-0.391-1.023,0-1.414C24.488,24.098,24.744,24,25,24
					L25,24z M25,23c-0.534,0-1.036,0.208-1.414,0.586S23,24.466,23,25s0.208,1.036,0.586,1.414l4,4C27.964,30.792,28.466,31,29,31
					s1.036-0.208,1.414-0.586S31,29.534,31,29s-0.208-1.036-0.586-1.414l-4-4C26.036,23.208,25.534,23,25,23L25,23z"/>
			</g>
		</g>
		<g>
			<g>
				<g>
					<path fill="#263238" d="M22.316,18.496c-0.257-0.099-0.547,0.031-0.646,0.289C20.936,20.708,19.059,22,17,22
						c-0.276,0-0.5,0.224-0.5,0.5S16.724,23,17,23c2.471,0,4.724-1.551,5.604-3.859C22.703,18.883,22.574,18.594,22.316,18.496z"/>
					<path fill="#263238" d="M22.5,16.523c-0.276,0-0.5,0.247-0.5,0.523s0.224,0.5,0.5,0.5s0.5-0.224,0.5-0.5V17
						C23,16.724,22.776,16.523,22.5,16.523z"/>
				</g>
			</g>
		</g>
	</g>
</g>
</svg>
