<?xml version="1.0" encoding="utf-8"?>
<!-- Generator: Adobe Illustrator 16.0.0, SVG Export Plug-In . SVG Version: 6.00 Build 0)  -->
<!DOCTYPE svg PUBLIC "-//W3C//DTD SVG 1.1//EN" "http://www.w3.org/Graphics/SVG/1.1/DTD/svg11.dtd">
<svg version="1.1" xmlns="http://www.w3.org/2000/svg" xmlns:xlink="http://www.w3.org/1999/xlink" x="0px" y="0px" width="32px"
	 height="32px" viewBox="0 0 32 32" enable-background="new 0 0 32 32" xml:space="preserve">
<g id="search_magnifier_magnifying_glass_loupe">
	<g>
		<g>
			<path fill="#263238" d="M23.614,24.086c-0.128,0-0.256-0.049-0.354-0.146l-2.4-2.4c-0.195-0.195-0.195-0.512,0-0.707
				s0.512-0.195,0.707,0l2.4,2.4c0.195,0.195,0.195,0.512,0,0.707C23.87,24.037,23.742,24.086,23.614,24.086z"/>
		</g>
		<g>
			<path fill="#263238" d="M28.5,31c-0.667,0-1.295-0.26-1.768-0.732l-3.5-3.5C22.76,26.295,22.5,25.668,22.5,25
				s0.26-1.295,0.732-1.768c0.906-0.906,2.629-0.906,3.535,0l3.5,3.5C30.74,27.205,31,27.832,31,28.5s-0.26,1.295-0.732,1.768
				S29.167,31,28.5,31z M25,23.52c-0.407,0-0.793,0.152-1.061,0.42C23.656,24.223,23.5,24.6,23.5,25s0.156,0.777,0.439,1.061
				l3.5,3.5c0.567,0.566,1.554,0.566,2.121,0C29.844,29.277,30,28.9,30,28.5s-0.156-0.777-0.439-1.061l-3.5-3.5
				C25.793,23.672,25.407,23.52,25,23.52z"/>
		</g>
		<g>
			<path fill="#263238" d="M13,25C6.383,25,1,19.617,1,13S6.383,1,13,1s12,5.383,12,12S19.617,25,13,25z M13,2C6.935,2,2,6.935,2,13
				s4.935,11,11,11s11-4.935,11-11S19.065,2,13,2z"/>
		</g>
		<g id="XMLID_1093_">
			<g>
				<g>
					<path fill="#263238" d="M22,14c-0.13,0-0.26-0.05-0.35-0.15c-0.1-0.1-0.15-0.22-0.15-0.35s0.05-0.25,0.14-0.351
						c0.21-0.199,0.52-0.189,0.71-0.01c0.1,0.101,0.15,0.23,0.15,0.36s-0.05,0.26-0.15,0.35C22.26,13.95,22.13,14,22,14z"/>
				</g>
			</g>
		</g>
		<g>
			<path fill="#263238" d="M13,22.45c-0.276,0-0.5-0.224-0.5-0.5s0.224-0.5,0.5-0.5c3.767,0,7.035-2.404,8.133-5.981
				c0.081-0.263,0.361-0.414,0.625-0.331c0.264,0.081,0.413,0.36,0.332,0.624C20.861,19.763,17.209,22.45,13,22.45z"/>
		</g>
	</g>
</g>
</svg>
