<?xml version="1.0" encoding="utf-8"?>
<!-- Generator: Adobe Illustrator 16.0.0, SVG Export Plug-In . SVG Version: 6.00 Build 0)  -->
<!DOCTYPE svg PUBLIC "-//W3C//DTD SVG 1.1//EN" "http://www.w3.org/Graphics/SVG/1.1/DTD/svg11.dtd">
<svg version="1.1" xmlns="http://www.w3.org/2000/svg" xmlns:xlink="http://www.w3.org/1999/xlink" x="0px" y="0px" width="32px"
	 height="32px" viewBox="0 0 32 32" enable-background="new 0 0 32 32" xml:space="preserve">
<g id="search_of_knowledge">
	<g>
		<g>
			<path fill="#263238" d="M23.5,27h-6c-0.276,0-0.5-0.224-0.5-0.5s0.224-0.5,0.5-0.5h6c0.276,0,0.5,0.224,0.5,0.5
				S23.776,27,23.5,27z"/>
			<g>
				<path fill="#263238" d="M13.5,26h-11C2.224,26,2,25.776,2,25.5v-20C2,5.224,2.224,5,2.5,5h1V4h-1C1.673,4,1,4.673,1,5.5v20
					C1,26.327,1.673,27,2.5,27h11c0.276,0,0.5-0.224,0.5-0.5S13.776,26,13.5,26z"/>
				<path fill="#263238" d="M14.81,4c0.298,0.261,0.517,0.605,0.62,1h0.142c0.102-0.395,0.321-0.739,0.619-1H14.81z"/>
				<path fill="#263238" d="M28.5,4h-1v1h1C28.776,5,29,5.224,29,5.5v17c0,0.276,0.224,0.5,0.5,0.5s0.5-0.224,0.5-0.5v-17
					C30,4.673,29.327,4,28.5,4z"/>
			</g>
			<path fill="#263238" d="M15.5,27c-0.276,0-0.5-0.224-0.5-0.5c0-0.827-0.673-1.5-1.5-1.5h-10C3.224,25,3,24.776,3,24.5v-21
				C3,3.224,3.224,3,3.5,3h10C14.878,3,16,4.122,16,5.5C16,5.776,15.776,6,15.5,6S15,5.776,15,5.5C15,4.673,14.327,4,13.5,4H4v20
				h9.5c1.378,0,2.5,1.122,2.5,2.5C16,26.776,15.776,27,15.5,27z"/>
		</g>
		<path fill="#263238" d="M22.5,7h3C25.776,7,26,7.224,26,7.5S25.776,8,25.5,8h-3C22.224,8,22,7.776,22,7.5S22.224,7,22.5,7L22.5,7z
			"/>
		<path fill="#263238" d="M25,9h0.5C25.776,9,26,9.224,26,9.5S25.776,10,25.5,10H25c-0.276,0-0.5-0.224-0.5-0.5S24.724,9,25,9L25,9z
			"/>
		<path fill="#263238" d="M8.5,18h-3C5.224,18,5,17.776,5,17.5S5.224,17,5.5,17h3C8.776,17,9,17.224,9,17.5S8.776,18,8.5,18L8.5,18z
			"/>
		<path fill="#263238" d="M8.5,14h-3C5.224,14,5,13.776,5,13.5S5.224,13,5.5,13h3C8.776,13,9,13.224,9,13.5S8.776,14,8.5,14L8.5,14z
			"/>
		<path fill="#263238" d="M9.5,22h-4C5.224,22,5,21.776,5,21.5S5.224,21,5.5,21h4c0.276,0,0.5,0.224,0.5,0.5S9.776,22,9.5,22L9.5,22
			z"/>
		<path fill="#263238" d="M9.5,12h-4C5.224,12,5,11.776,5,11.5S5.224,11,5.5,11h4c0.276,0,0.5,0.224,0.5,0.5S9.776,12,9.5,12L9.5,12
			z"/>
		<path fill="#263238" d="M9,20H5.5C5.224,20,5,19.776,5,19.5S5.224,19,5.5,19H9c0.276,0,0.5,0.224,0.5,0.5S9.276,20,9,20L9,20z"/>
		<path fill="#263238" d="M8,16H5.5C5.224,16,5,15.776,5,15.5S5.224,15,5.5,15H8c0.276,0,0.5,0.224,0.5,0.5S8.276,16,8,16L8,16z"/>
		<path fill="#263238" d="M13.5,8h-2C11.224,8,11,7.776,11,7.5S11.224,7,11.5,7h2C13.776,7,14,7.224,14,7.5S13.776,8,13.5,8L13.5,8z
			"/>
		<path fill="#263238" d="M11,10H5.5C5.224,10,5,9.776,5,9.5S5.224,9,5.5,9H11c0.276,0,0.5,0.224,0.5,0.5S11.276,10,11,10L11,10z"/>
		<path fill="#263238" d="M9.5,8h-3C6.224,8,6,7.776,6,7.5S6.224,7,6.5,7h3C9.776,7,10,7.224,10,7.5S9.776,8,9.5,8L9.5,8z"/>
		<path fill="#263238" d="M27.5,21c-0.276,0-0.5-0.224-0.5-0.5V4h-9.5C16.673,4,16,4.673,16,5.5v1C16,6.776,15.776,7,15.5,7
			S15,6.776,15,6.5v-1C15,4.122,16.122,3,17.5,3h10C27.776,3,28,3.224,28,3.5v17C28,20.776,27.776,21,27.5,21z"/>
	</g>
	<g>
		<g>
			<g>
				<g>
					<path fill="#263238" d="M18,24c-4.411,0-8-3.589-8-8s3.589-8,8-8s8,3.589,8,8S22.411,24,18,24z M18,9c-3.859,0-7,3.141-7,7
						s3.141,7,7,7s7-3.141,7-7S21.859,9,18,9z"/>
				</g>
			</g>
			<g>
				<path fill="#263238" d="M24.939,22.939c0.123-0.123,0.266-0.217,0.418-0.289l-1.64-1.641c-0.195-0.195-0.512-0.195-0.707,0
					c-0.195,0.196-0.195,0.512,0,0.708l1.64,1.64C24.723,23.205,24.817,23.062,24.939,22.939z"/>
				<path fill="#263238" d="M26,23c0.256,0,0.512,0.098,0.707,0.293l3,3c0.391,0.391,0.391,1.023,0,1.414
					C29.512,27.902,29.256,28,29,28s-0.512-0.098-0.707-0.293l-3-3c-0.391-0.391-0.391-1.023,0-1.414C25.488,23.098,25.744,23,26,23
					L26,23z M26,22c-0.534,0-1.036,0.208-1.414,0.586S24,23.466,24,24s0.208,1.036,0.586,1.414l3,3C27.964,28.792,28.466,29,29,29
					s1.036-0.208,1.414-0.586S31,27.534,31,27s-0.208-1.036-0.586-1.414l-3-3C27.036,22.208,26.534,22,26,22L26,22z"/>
			</g>
		</g>
		<g>
			<g>
				<g>
					<path fill="#263238" d="M23.316,17.496c-0.257-0.099-0.547,0.031-0.646,0.289C21.936,19.708,20.059,21,18,21
						c-0.276,0-0.5,0.224-0.5,0.5S17.724,22,18,22c2.471,0,4.724-1.551,5.604-3.859C23.703,17.883,23.574,17.594,23.316,17.496z"/>
					<path fill="#263238" d="M23.5,15.523c-0.276,0-0.5,0.247-0.5,0.523s0.224,0.5,0.5,0.5s0.5-0.224,0.5-0.5V16
						C24,15.724,23.776,15.523,23.5,15.523z"/>
				</g>
			</g>
		</g>
	</g>
</g>
</svg>
