<?xml version="1.0" encoding="utf-8"?>
<!-- Generator: Adobe Illustrator 16.0.0, SVG Export Plug-In . SVG Version: 6.00 Build 0)  -->
<!DOCTYPE svg PUBLIC "-//W3C//DTD SVG 1.1//EN" "http://www.w3.org/Graphics/SVG/1.1/DTD/svg11.dtd">
<svg version="1.1" xmlns="http://www.w3.org/2000/svg" xmlns:xlink="http://www.w3.org/1999/xlink" x="0px" y="0px" width="32px"
	 height="32px" viewBox="0 0 32 32" enable-background="new 0 0 32 32" xml:space="preserve">
<g id="SEO_performance_speedometer">
	<g>
		<path fill="#263238" d="M25.289,28H5.711c-0.131,0-0.256-0.051-0.35-0.143C2.549,25.104,1,21.425,1,17.5
			c0-3.309,1.144-6.545,3.22-9.112C4.394,8.174,4.709,8.14,4.923,8.314c0.215,0.174,0.248,0.488,0.074,0.703
			C3.064,11.406,2,14.419,2,17.5c0,3.587,1.389,6.952,3.917,9.5h19.166C27.611,24.452,29,21.087,29,17.5C29,10.056,22.944,4,15.5,4
			c-3.104,0-6.022,1.024-8.438,2.961C6.847,7.135,6.532,7.1,6.359,6.884c-0.173-0.216-0.138-0.53,0.077-0.703
			C8.995,4.13,12.214,3,15.5,3C23.495,3,30,9.505,30,17.5c0,3.925-1.549,7.604-4.361,10.357C25.545,27.949,25.42,28,25.289,28z"/>
		<path fill="#263238" d="M5.705,24.002c-0.167,0-0.332-0.084-0.426-0.237C4.115,21.879,3.5,19.708,3.5,17.485
			c0-6.617,5.383-12,12-12s12,5.383,12,12c0,2.194-0.6,4.34-1.736,6.208c-0.144,0.236-0.451,0.311-0.687,0.167
			c-0.236-0.144-0.311-0.451-0.167-0.687c1.041-1.711,1.59-3.679,1.59-5.689c0-6.065-4.935-11-11-11s-11,4.935-11,11
			c0,2.037,0.563,4.026,1.63,5.754c0.145,0.235,0.072,0.543-0.163,0.688C5.885,23.978,5.794,24.002,5.705,24.002z"/>
		<g>
			<g>
				<g>
					<path fill="#263238" d="M20.75,8.407c0.239,0.138,0.321,0.444,0.183,0.683l-0.5,0.866c-0.138,0.24-0.444,0.321-0.683,0.183
						s-0.321-0.443-0.183-0.683l0.5-0.866C20.205,8.351,20.511,8.269,20.75,8.407z"/>
				</g>
			</g>
			<g>
				<g>
					<path fill="#263238" d="M24.593,12.25c0.138,0.239,0.056,0.545-0.183,0.683l-0.866,0.5c-0.24,0.138-0.545,0.056-0.683-0.183
						s-0.057-0.545,0.183-0.683l0.866-0.5C24.149,11.929,24.455,12.011,24.593,12.25z"/>
				</g>
				<g>
					<path fill="#263238" d="M8.139,21.75c0.138,0.239,0.057,0.545-0.183,0.683l-0.866,0.5c-0.239,0.138-0.545,0.056-0.683-0.183
						s-0.056-0.545,0.183-0.683l0.866-0.5C7.695,21.429,8,21.511,8.139,21.75z"/>
				</g>
			</g>
			<g>
				<g>
					<path fill="#263238" d="M26,17.5c0,0.276-0.224,0.5-0.5,0.5h-1c-0.276,0-0.5-0.224-0.5-0.5s0.224-0.5,0.5-0.5h1
						C25.776,17,26,17.224,26,17.5z"/>
				</g>
				<g>
					<path fill="#263238" d="M7,17.5C7,17.776,6.776,18,6.5,18h-1C5.224,18,5,17.776,5,17.5S5.224,17,5.5,17h1
						C6.776,17,7,17.224,7,17.5z"/>
				</g>
			</g>
			<g>
				<g>
					<path fill="#263238" d="M24.593,22.75c-0.138,0.239-0.444,0.321-0.683,0.183l-0.866-0.5c-0.24-0.138-0.321-0.444-0.183-0.683
						s0.443-0.321,0.683-0.183l0.866,0.5C24.649,22.205,24.731,22.511,24.593,22.75z"/>
				</g>
				<g>
					<path fill="#263238" d="M8.139,13.25C8,13.489,7.695,13.571,7.456,13.433l-0.866-0.5c-0.239-0.138-0.321-0.444-0.183-0.683
						s0.444-0.321,0.683-0.183l0.866,0.5C8.195,12.705,8.277,13.011,8.139,13.25z"/>
				</g>
			</g>
			<g>
				<g>
					<path fill="#263238" d="M11.25,10.139c-0.239,0.138-0.545,0.057-0.683-0.183l-0.5-0.866c-0.138-0.239-0.056-0.545,0.183-0.683
						s0.545-0.056,0.683,0.183l0.5,0.866C11.571,9.695,11.489,10,11.25,10.139z"/>
				</g>
			</g>
			<g>
				<g>
					<path fill="#263238" d="M15.5,9C15.224,9,15,8.776,15,8.5v-1C15,7.224,15.224,7,15.5,7S16,7.224,16,7.5v1
						C16,8.776,15.776,9,15.5,9z"/>
				</g>
			</g>
		</g>
		<g>
			<g>
				<g>
					<path fill="#263238" d="M20.085,12.899c-0.196-0.195-0.512-0.195-0.708,0l-3.243,3.243c0.152,0.071,0.3,0.157,0.425,0.282
						s0.21,0.273,0.282,0.425l3.243-3.243C20.281,13.411,20.281,13.095,20.085,12.899z"/>
					<path fill="#263238" d="M15.5,19.485c-0.535,0-1.037-0.208-1.415-0.586c-0.377-0.376-0.585-0.879-0.585-1.414
						s0.208-1.037,0.585-1.414c0.754-0.756,2.074-0.756,2.829,0c0.78,0.78,0.78,2.048,0,2.828
						C16.537,19.277,16.034,19.485,15.5,19.485z M15.5,16.485c-0.267,0-0.518,0.104-0.707,0.292
						c-0.189,0.189-0.293,0.44-0.293,0.708s0.104,0.519,0.292,0.707c0.378,0.377,1.037,0.377,1.415,0c0.39-0.39,0.39-1.024,0-1.414
						C16.018,16.589,15.767,16.485,15.5,16.485z"/>
				</g>
			</g>
		</g>
	</g>
	<path fill="#263238" d="M12,24.5c0,0.275-0.225,0.5-0.5,0.5l0,0c-0.275,0-0.5-0.225-0.5-0.5v-1c0-0.275,0.225-0.5,0.5-0.5l0,0
		c0.275,0,0.5,0.225,0.5,0.5V24.5z"/>
	<path fill="#263238" d="M14,24.5c0,0.275-0.225,0.5-0.5,0.5l0,0c-0.275,0-0.5-0.225-0.5-0.5v-1c0-0.275,0.225-0.5,0.5-0.5l0,0
		c0.275,0,0.5,0.225,0.5,0.5V24.5z"/>
	<path fill="#263238" d="M20,24.5c0,0.275-0.225,0.5-0.5,0.5l0,0c-0.275,0-0.5-0.225-0.5-0.5v-1c0-0.275,0.225-0.5,0.5-0.5l0,0
		c0.275,0,0.5,0.225,0.5,0.5V24.5z"/>
	<path fill="#263238" d="M18,24.5c0,0.275-0.225,0.5-0.5,0.5l0,0c-0.275,0-0.5-0.225-0.5-0.5v-1c0-0.275,0.225-0.5,0.5-0.5l0,0
		c0.275,0,0.5,0.225,0.5,0.5V24.5z"/>
	<path fill="#263238" d="M16,24.5c0,0.275-0.225,0.5-0.5,0.5l0,0c-0.275,0-0.5-0.225-0.5-0.5v-1c0-0.275,0.225-0.5,0.5-0.5l0,0
		c0.275,0,0.5,0.225,0.5,0.5V24.5z"/>
	<g>
		<path fill="#263238" d="M23.5,30h-16C7.224,30,7,29.776,7,29.5S7.224,29,7.5,29h16c0.276,0,0.5,0.224,0.5,0.5S23.776,30,23.5,30z"
			/>
	</g>
</g>
</svg>
