<?xml version="1.0" encoding="utf-8"?>
<!-- Generator: Adobe Illustrator 16.0.0, SVG Export Plug-In . SVG Version: 6.00 Build 0)  -->
<!DOCTYPE svg PUBLIC "-//W3C//DTD SVG 1.1//EN" "http://www.w3.org/Graphics/SVG/1.1/DTD/svg11.dtd">
<svg version="1.1" xmlns="http://www.w3.org/2000/svg" xmlns:xlink="http://www.w3.org/1999/xlink" x="0px" y="0px" width="32px"
	 height="32px" viewBox="0 0 32 32" enable-background="new 0 0 32 32" xml:space="preserve">
<g id="site_map_website">
	<g>
		<g id="monitoring_2_">
			<path fill="#263238" d="M29.5,7h-28C1.224,7,1,6.776,1,6.5v-3C1,2.673,1.673,2,2.5,2h26C29.327,2,30,2.673,30,3.5v3
				C30,6.776,29.776,7,29.5,7z M2,6h27V3.5C29,3.225,28.775,3,28.5,3h-26C2.225,3,2,3.225,2,3.5V6z"/>
			<circle fill="#263238" cx="7.5" cy="4.5" r="0.5"/>
			<circle fill="#263238" cx="5.5" cy="4.5" r="0.5"/>
			<circle fill="#263238" cx="3.5" cy="4.5" r="0.5"/>
			<path fill="#263238" d="M29.5,23c-0.276,0-0.5-0.224-0.5-0.5v-19C29,3.224,28.775,3,28.5,3h-26C2.225,3,2,3.224,2,3.5v19
				C2,22.776,1.776,23,1.5,23S1,22.776,1,22.5v-19C1,2.673,1.673,2,2.5,2h26C29.327,2,30,2.673,30,3.5v19
				C30,22.776,29.776,23,29.5,23z"/>
		</g>
	</g>
	<g>
		<g>
			<path fill="#263238" d="M29.5,30h-6c-0.276,0-0.5-0.224-0.5-0.5v-4c0-0.276,0.224-0.5,0.5-0.5h6c0.276,0,0.5,0.224,0.5,0.5v4
				C30,29.776,29.776,30,29.5,30z M24,29h5v-3h-5V29z"/>
		</g>
		<g>
			<path fill="#263238" d="M18.5,30h-6c-0.276,0-0.5-0.224-0.5-0.5v-4c0-0.276,0.224-0.5,0.5-0.5h6c0.276,0,0.5,0.224,0.5,0.5v4
				C19,29.776,18.776,30,18.5,30z M13,29h5v-3h-5V29z"/>
		</g>
		<g>
			<path fill="#263238" d="M7.5,30h-6C1.224,30,1,29.776,1,29.5v-4C1,25.224,1.224,25,1.5,25h6C7.776,25,8,25.224,8,25.5v4
				C8,29.776,7.776,30,7.5,30z M2,29h5v-3H2V29z"/>
		</g>
		<g>
			<path fill="#263238" d="M24.5,17h-18C6.224,17,6,16.776,6,16.5v-6C6,10.224,6.224,10,6.5,10h18c0.276,0,0.5,0.224,0.5,0.5v6
				C25,16.776,24.776,17,24.5,17z M7,16h17v-5H7V16z"/>
		</g>
		<path fill="#263238" d="M15.5,19c-0.276,0-0.5-0.224-0.5-0.5v-2c0-0.276,0.224-0.5,0.5-0.5s0.5,0.224,0.5,0.5v2
			C16,18.776,15.776,19,15.5,19z"/>
		<path fill="#263238" d="M15.5,24c-0.276,0-0.5-0.224-0.5-0.5v-3c0-0.276,0.224-0.5,0.5-0.5s0.5,0.224,0.5,0.5v3
			C16,23.776,15.776,24,15.5,24z"/>
		<path fill="#263238" d="M26.5,24c-0.276,0-0.5-0.224-0.5-0.5V21H5v2.5C5,23.776,4.776,24,4.5,24S4,23.776,4,23.5v-3
			C4,20.224,4.224,20,4.5,20h22c0.276,0,0.5,0.224,0.5,0.5v3C27,23.776,26.776,24,26.5,24z"/>
	</g>
</g>
</svg>
