<?xml version="1.0" encoding="utf-8"?>
<!-- Generator: Adobe Illustrator 16.0.0, SVG Export Plug-In . SVG Version: 6.00 Build 0)  -->
<!DOCTYPE svg PUBLIC "-//W3C//DTD SVG 1.1//EN" "http://www.w3.org/Graphics/SVG/1.1/DTD/svg11.dtd">
<svg version="1.1" xmlns="http://www.w3.org/2000/svg" xmlns:xlink="http://www.w3.org/1999/xlink" x="0px" y="0px" width="32px"
	 height="32px" viewBox="0 0 32 32" enable-background="new 0 0 32 32" xml:space="preserve">
<g id="social_engagement_chat_forum">
	<g id="Public_Relations">
		<path fill="#263238" d="M9.5,26c-0.13,0-0.258-0.051-0.354-0.146L5.293,22H2.5C1.673,22,1,21.327,1,20.5v-15
			C1,4.673,1.673,4,2.5,4h17C20.327,4,21,4.673,21,5.5v1C21,6.776,20.776,7,20.5,7S20,6.776,20,6.5v-1C20,5.224,19.776,5,19.5,5h-17
			C2.224,5,2,5.224,2,5.5v15C2,20.776,2.224,21,2.5,21h3c0.133,0,0.26,0.053,0.354,0.146L9,24.293V21.5C9,21.224,9.224,21,9.5,21h10
			c0.276,0,0.5-0.224,0.5-0.5v-10c0-0.276,0.224-0.5,0.5-0.5s0.5,0.224,0.5,0.5v10c0,0.827-0.673,1.5-1.5,1.5H10v3.5
			c0,0.202-0.122,0.385-0.309,0.462C9.629,25.988,9.564,26,9.5,26z"/>
		<path fill="#263238" d="M23.5,30c-0.064,0-0.129-0.012-0.191-0.038C23.122,29.885,23,29.702,23,29.5V26h-9.5
			c-0.827,0-1.5-0.673-1.5-1.5v-1c0-0.276,0.224-0.5,0.5-0.5s0.5,0.224,0.5,0.5v1c0,0.276,0.224,0.5,0.5,0.5h10
			c0.276,0,0.5,0.224,0.5,0.5v2.793l3.146-3.146C27.24,25.053,27.367,25,27.5,25h2c0.276,0,0.5-0.224,0.5-0.5v-15
			C30,9.224,29.776,9,29.5,9h-16C13.224,9,13,9.224,13,9.5v10c0,0.276-0.224,0.5-0.5,0.5S12,19.776,12,19.5v-10
			C12,8.673,12.673,8,13.5,8h16C30.327,8,31,8.673,31,9.5v15c0,0.827-0.673,1.5-1.5,1.5h-1.793l-3.854,3.854
			C23.758,29.949,23.63,30,23.5,30z"/>
	</g>
	<g>
		<circle fill="#263238" cx="8.5" cy="18.5" r="0.5"/>
		<circle fill="#263238" cx="6.5" cy="18.5" r="0.5"/>
		<circle fill="#263238" cx="4.5" cy="18.5" r="0.5"/>
	</g>
	<g>
		<circle fill="#263238" cx="27.5" cy="22.5" r="0.5"/>
		<circle fill="#263238" cx="25.5" cy="22.5" r="0.5"/>
		<circle fill="#263238" cx="23.5" cy="22.5" r="0.5"/>
	</g>
</g>
</svg>
