<?xml version="1.0" encoding="utf-8"?>
<!-- Generator: Adobe Illustrator 16.0.0, SVG Export Plug-In . SVG Version: 6.00 Build 0)  -->
<!DOCTYPE svg PUBLIC "-//W3C//DTD SVG 1.1//EN" "http://www.w3.org/Graphics/SVG/1.1/DTD/svg11.dtd">
<svg version="1.1" id="Layer_1" xmlns="http://www.w3.org/2000/svg" xmlns:xlink="http://www.w3.org/1999/xlink" x="0px" y="0px"
	 width="32px" height="32px" viewBox="0 0 32 32" enable-background="new 0 0 32 32" xml:space="preserve">
<g id="statistics_x2C__chart_x2C__dynamics_1_">
	<g>
		<g>
			<path fill="#263238" d="M18.198,14.299c-0.139,0-0.272-0.058-0.368-0.162c-0.112-0.124-0.157-0.296-0.116-0.458l3.012-12.135
				c0.066-0.267,0.335-0.429,0.605-0.364c5.095,1.26,8.907,5.423,9.713,10.606c0.042,0.273-0.144,0.528-0.417,0.571l-12.351,1.937
				C18.251,14.298,18.224,14.299,18.198,14.299z M21.572,2.28l-2.707,10.909l11.104-1.741C29.101,7.056,25.872,3.533,21.572,2.28z"
				/>
		</g>
	</g>
	<g>
		<g>
			<g>
				<path fill="#263238" d="M15,30c-0.565,0-1.135-0.037-1.693-0.11c-0.274-0.035-0.467-0.286-0.431-0.56
					c0.035-0.274,0.288-0.47,0.56-0.432C13.951,28.965,14.478,29,15,29c6.617,0,12-5.383,12-12c0-0.424-0.03-0.873-0.09-1.362
					l-11.834,1.855c-0.165,0.026-0.333-0.033-0.445-0.156c-0.112-0.124-0.157-0.296-0.117-0.458l2.885-11.626
					C16.588,5.085,15.781,5,15,5C8.382,5,3,10.383,3,17c0,0.578,0.04,1.157,0.122,1.72c0.038,0.274-0.15,0.527-0.425,0.566
					c-0.271,0.037-0.527-0.15-0.566-0.423C2.043,18.252,2,17.625,2,17C2,9.831,7.831,4,15,4c1.019,0,2.072,0.132,3.127,0.394
					c0.129,0.032,0.24,0.114,0.309,0.228c0.069,0.113,0.09,0.25,0.058,0.378l-2.826,11.389l11.59-1.818
					c0.132-0.02,0.266,0.012,0.373,0.09c0.106,0.078,0.178,0.196,0.198,0.327C27.943,15.726,28,16.384,28,17
					C28,24.168,22.168,30,15,30z"/>
			</g>
		</g>
	</g>
	<g>
		<g>
			<g>
				<g>
					<g>
						<g>
							<path fill="#263238" d="M7,31c-3.31,0-6-2.691-6-6c0-3.309,2.69-6,6-6c3.308,0,6,2.691,6,6C13,28.309,10.308,31,7,31z M7,20
								c-2.757,0-5,2.243-5,5c0,2.756,2.243,5,5,5c2.756,0,5-2.244,5-5C12,22.243,9.756,20,7,20z"/>
						</g>
					</g>
				</g>
			</g>
		</g>
	</g>
	<g>
		<g>
			<g>
				<g>
					<g>
						<g>
							<g>
								<path fill="#263238" d="M7,28.954c0.276,0,0.5-0.224,0.5-0.5v-0.5c0-0.277-0.224-0.5-0.5-0.5c-0.277,0-0.5,0.223-0.5,0.5
									v0.5C6.5,28.73,6.723,28.954,7,28.954z"/>
							</g>
						</g>
					</g>
				</g>
			</g>
			<g>
				<g>
					<g>
						<g>
							<g>
								<path fill="#263238" d="M7,22.546c0.276,0,0.5-0.224,0.5-0.5v-0.5c0-0.277-0.224-0.5-0.5-0.5c-0.277,0-0.5,0.223-0.5,0.5
									v0.5C6.5,22.322,6.723,22.546,7,22.546z"/>
							</g>
						</g>
					</g>
				</g>
			</g>
		</g>
		<g>
			<g>
				<g>
					<path fill="#263238" d="M6.972,28.052c-0.637,0-1.269-0.316-1.774-0.912c-0.179-0.209-0.154-0.526,0.056-0.705
						c0.21-0.179,0.527-0.154,0.706,0.057c0.409,0.481,0.896,0.663,1.339,0.501c0.379-0.139,0.624-0.5,0.624-0.918
						c0-0.44-0.291-0.599-1.002-0.878c-0.627-0.246-1.487-0.584-1.487-1.575c0-0.642,0.311-1.153,0.853-1.4
						c0.651-0.297,1.559-0.165,2.108,0.31c0.208,0.181,0.231,0.498,0.051,0.707c-0.181,0.209-0.497,0.229-0.705,0.051
						c-0.257-0.221-0.742-0.293-1.038-0.159c-0.115,0.053-0.269,0.161-0.269,0.491c0,0.267,0.202,0.388,0.853,0.645
						c0.651,0.256,1.637,0.643,1.637,1.809c0,0.842-0.503,1.571-1.278,1.856C7.423,28.014,7.196,28.052,6.972,28.052z"/>
				</g>
			</g>
		</g>
	</g>
</g>
</svg>
