<?xml version="1.0" encoding="utf-8"?>
<!-- Generator: Adobe Illustrator 16.0.0, SVG Export Plug-In . SVG Version: 6.00 Build 0)  -->
<!DOCTYPE svg PUBLIC "-//W3C//DTD SVG 1.1//EN" "http://www.w3.org/Graphics/SVG/1.1/DTD/svg11.dtd">
<svg version="1.1" id="Layer_1" xmlns="http://www.w3.org/2000/svg" xmlns:xlink="http://www.w3.org/1999/xlink" x="0px" y="0px"
	 width="32px" height="32px" viewBox="0 0 32 32" enable-background="new 0 0 32 32" xml:space="preserve">
<g id="stock_exchange_x2C__stock-market_x2C__growth_x2C__arrow_up_1_">
	<g>
		<g>
			<g>
				<g>
					<g>
						<path fill="#263238" d="M28.5,31h-7c-0.276,0-0.5-0.224-0.5-0.5v-2c0-0.276,0.224-0.5,0.5-0.5h7c0.276,0,0.5,0.224,0.5,0.5v2
							C29,30.776,28.776,31,28.5,31z M22,30h6v-1h-6V30z"/>
					</g>
				</g>
			</g>
		</g>
		<g>
			<g>
				<g>
					<g>
						<path fill="#263238" d="M29.5,29h-7c-0.276,0-0.5-0.224-0.5-0.5v-2c0-0.276,0.224-0.5,0.5-0.5h7c0.276,0,0.5,0.224,0.5,0.5v2
							C30,28.776,29.776,29,29.5,29z M23,28h6v-1h-6V28z"/>
					</g>
				</g>
			</g>
		</g>
		<g>
			<g>
				<g>
					<g>
						<path fill="#263238" d="M28.5,27h-7c-0.276,0-0.5-0.224-0.5-0.5v-2c0-0.276,0.224-0.5,0.5-0.5h7c0.276,0,0.5,0.224,0.5,0.5v2
							C29,26.776,28.776,27,28.5,27z M22,26h6v-1h-6V26z"/>
					</g>
				</g>
			</g>
		</g>
		<g>
			<g>
				<g>
					<g>
						<path fill="#263238" d="M29.5,25h-7c-0.276,0-0.5-0.224-0.5-0.5v-2c0-0.276,0.224-0.5,0.5-0.5h7c0.276,0,0.5,0.224,0.5,0.5v2
							C30,24.776,29.776,25,29.5,25z M23,24h6v-1h-6V24z"/>
					</g>
				</g>
			</g>
		</g>
		<g>
			<g>
				<g>
					<g>
						<path fill="#263238" d="M28.5,23h-7c-0.276,0-0.5-0.224-0.5-0.5v-2c0-0.276,0.224-0.5,0.5-0.5h7c0.276,0,0.5,0.224,0.5,0.5v2
							C29,22.776,28.776,23,28.5,23z M22,22h6v-1h-6V22z"/>
					</g>
				</g>
			</g>
		</g>
		<g>
			<g>
				<g>
					<g>
						<path fill="#263238" d="M29.5,21h-7c-0.276,0-0.5-0.224-0.5-0.5s0.224-0.5,0.5-0.5H29v-1h-6.5c-0.276,0-0.5-0.224-0.5-0.5
							s0.224-0.5,0.5-0.5h7c0.276,0,0.5,0.224,0.5,0.5v2C30,20.776,29.776,21,29.5,21z"/>
					</g>
				</g>
			</g>
		</g>
	</g>
	<g>
		<g>
			<g>
				<g>
					<g>
						<path fill="#263238" d="M18.5,31h-7c-0.276,0-0.5-0.224-0.5-0.5v-2c0-0.276,0.224-0.5,0.5-0.5h7c0.276,0,0.5,0.224,0.5,0.5v2
							C19,30.776,18.776,31,18.5,31z M12,30h6v-1h-6V30z"/>
					</g>
				</g>
			</g>
		</g>
		<g>
			<g>
				<g>
					<g>
						<path fill="#263238" d="M19.5,29h-7c-0.276,0-0.5-0.224-0.5-0.5v-2c0-0.276,0.224-0.5,0.5-0.5h7c0.276,0,0.5,0.224,0.5,0.5v2
							C20,28.776,19.776,29,19.5,29z M13,28h6v-1h-6V28z"/>
					</g>
				</g>
			</g>
		</g>
		<g>
			<g>
				<g>
					<g>
						<path fill="#263238" d="M18.5,27h-7c-0.276,0-0.5-0.224-0.5-0.5v-2c0-0.276,0.224-0.5,0.5-0.5h7c0.276,0,0.5,0.224,0.5,0.5v2
							C19,26.776,18.776,27,18.5,27z M12,26h6v-1h-6V26z"/>
					</g>
				</g>
			</g>
		</g>
		<g>
			<g>
				<g>
					<g>
						<path fill="#263238" d="M19.5,25h-7c-0.276,0-0.5-0.224-0.5-0.5s0.224-0.5,0.5-0.5H19v-1h-6.5c-0.276,0-0.5-0.224-0.5-0.5
							s0.224-0.5,0.5-0.5h7c0.276,0,0.5,0.224,0.5,0.5v2C20,24.776,19.776,25,19.5,25z"/>
					</g>
				</g>
			</g>
		</g>
	</g>
	<g>
		<g>
			<g>
				<g>
					<g>
						<path fill="#263238" d="M8.5,31h-7C1.224,31,1,30.776,1,30.5v-2C1,28.224,1.224,28,1.5,28h7C8.776,28,9,28.224,9,28.5v2
							C9,30.776,8.776,31,8.5,31z M2,30h6v-1H2V30z"/>
					</g>
				</g>
			</g>
		</g>
		<g>
			<g>
				<g>
					<g>
						<path fill="#263238" d="M9.5,29h-7C2.224,29,2,28.776,2,28.5S2.224,28,2.5,28H9v-1H2.5C2.224,27,2,26.776,2,26.5
							S2.224,26,2.5,26h7c0.276,0,0.5,0.224,0.5,0.5v2C10,28.776,9.776,29,9.5,29z"/>
					</g>
				</g>
			</g>
		</g>
	</g>
	<g>
		<g>
			<g>
				<g>
					<g>
						<g>
							<g>
								<path fill="#263238" d="M26,18c-2.205,0-4-1.794-4-4s1.795-4,4-4c2.206,0,4,1.794,4,4S28.206,18,26,18z M26,11
									c-1.654,0-3,1.346-3,3s1.346,3,3,3s3-1.346,3-3S27.654,11,26,11z"/>
							</g>
						</g>
					</g>
				</g>
			</g>
		</g>
	</g>
	<g>
		<g>
			<g>
				<g>
					<g>
						<g>
							<g>
								<path fill="#263238" d="M16,22c-2.205,0-4-1.794-4-4s1.795-4,4-4c2.206,0,4,1.794,4,4S18.206,22,16,22z M16,15
									c-1.654,0-3,1.346-3,3s1.346,3,3,3s3-1.346,3-3S17.654,15,16,15z"/>
							</g>
						</g>
					</g>
				</g>
			</g>
		</g>
	</g>
	<g>
		<g>
			<g>
				<g>
					<g>
						<g>
							<g>
								<path fill="#263238" d="M6,26c-2.205,0-4-1.794-4-4s1.795-4,4-4c2.206,0,4,1.794,4,4S8.206,26,6,26z M6,19
									c-1.654,0-3,1.346-3,3s1.346,3,3,3s3-1.346,3-3S7.654,19,6,19z"/>
							</g>
						</g>
					</g>
				</g>
			</g>
		</g>
	</g>
	<g>
		<g>
			<g>
				<path fill="#263238" d="M7.002,13.91c-2.99,0-5.133-0.767-5.596-0.948c-0.258-0.101-0.385-0.39-0.284-0.647
					c0.101-0.258,0.391-0.386,0.647-0.284c0.959,0.375,9.597,3.427,17.568-4.546l2.789-2.789L20.91,3.477
					c-0.128-0.127-0.177-0.313-0.129-0.487c0.049-0.173,0.186-0.308,0.361-0.351l6.285-1.571c0.171-0.043,0.351,0.008,0.475,0.131
					c0.125,0.124,0.175,0.304,0.132,0.475l-1.571,6.286c-0.043,0.175-0.178,0.313-0.352,0.361c-0.174,0.047-0.361-0.001-0.486-0.128
					l-1.219-1.218l-2.789,2.79c-0.195,0.195-0.512,0.195-0.707,0s-0.195-0.512,0-0.707l3.143-3.144
					c0.094-0.094,0.221-0.146,0.354-0.146l0,0c0.133,0,0.26,0.053,0.354,0.146l0.947,0.947l1.155-4.621L22.24,3.394l0.947,0.948
					c0.195,0.195,0.195,0.512,0,0.707l-3.143,3.143C15.443,12.794,10.607,13.909,7.002,13.91z"/>
			</g>
		</g>
	</g>
	<g>
		<g>
			<circle fill="#263238" cx="19.5" cy="11" r="0.5"/>
		</g>
	</g>
</g>
</svg>
