<?xml version="1.0" encoding="utf-8"?>
<!-- Generator: Adobe Illustrator 16.0.0, SVG Export Plug-In . SVG Version: 6.00 Build 0)  -->
<!DOCTYPE svg PUBLIC "-//W3C//DTD SVG 1.1//EN" "http://www.w3.org/Graphics/SVG/1.1/DTD/svg11.dtd">
<svg version="1.1" xmlns="http://www.w3.org/2000/svg" xmlns:xlink="http://www.w3.org/1999/xlink" x="0px" y="0px" width="32px"
	 height="32px" viewBox="0 0 32 32" enable-background="new 0 0 32 32" xml:space="preserve">
<g id="study_programme">
	<path fill="#263238" d="M5.5,14C5.224,14,5,13.776,5,13.5v-6C5,7.224,5.224,7,5.5,7S6,7.224,6,7.5v6C6,13.776,5.776,14,5.5,14z"/>
	<path fill="#263238" d="M15.5,10h1c0.276,0,0.5-0.225,0.5-0.5S16.776,9,16.5,9h-1C15.224,9,15,9.225,15,9.5S15.224,10,15.5,10
		L15.5,10z"/>
	<path fill="#263238" d="M21.5,6h4C25.776,6,26,5.775,26,5.5S25.776,5,25.5,5h-4C21.224,5,21,5.225,21,5.5S21.224,6,21.5,6L21.5,6z"
		/>
	<path fill="#263238" d="M8.5,10h2c0.276,0,0.5-0.225,0.5-0.5S10.776,9,10.5,9h-2C8.224,9,8,9.225,8,9.5S8.224,10,8.5,10L8.5,10z"/>
	<path fill="#263238" d="M13.5,6h2C15.776,6,16,5.775,16,5.5S15.776,5,15.5,5h-2C13.224,5,13,5.225,13,5.5S13.224,6,13.5,6L13.5,6z"
		/>
	<path fill="#263238" d="M23.5,12h2c0.276,0,0.5-0.225,0.5-0.5S25.776,11,25.5,11h-2c-0.276,0-0.5,0.225-0.5,0.5S23.224,12,23.5,12
		L23.5,12z"/>
	<path fill="#263238" d="M23.5,10h2c0.276,0,0.5-0.225,0.5-0.5S25.776,9,25.5,9h-2C23.224,9,23,9.225,23,9.5S23.224,10,23.5,10
		L23.5,10z"/>
	<path fill="#263238" d="M23.5,8h2C25.776,8,26,7.775,26,7.5S25.776,7,25.5,7h-2C23.224,7,23,7.225,23,7.5S23.224,8,23.5,8L23.5,8z"
		/>
	<path fill="#263238" d="M13.5,8h3C16.776,8,17,7.775,17,7.5S16.776,7,16.5,7h-3C13.224,7,13,7.225,13,7.5S13.224,8,13.5,8L13.5,8z"
		/>
	<path fill="#263238" d="M17.5,6h1C18.776,6,19,5.775,19,5.5S18.776,5,18.5,5h-1C17.224,5,17,5.225,17,5.5S17.224,6,17.5,6L17.5,6z"
		/>
	<path fill="#263238" d="M8.5,12h8c0.276,0,0.5-0.225,0.5-0.5S16.776,11,16.5,11h-8C8.224,11,8,11.225,8,11.5S8.224,12,8.5,12
		L8.5,12z"/>
	<path fill="#263238" d="M12.5,10h1c0.276,0,0.5-0.225,0.5-0.5S13.776,9,13.5,9h-1C12.224,9,12,9.225,12,9.5S12.224,10,12.5,10
		L12.5,10z"/>
	<path fill="#263238" d="M8.5,14h4c0.276,0,0.5-0.225,0.5-0.5S12.776,13,12.5,13h-4C8.224,13,8,13.225,8,13.5S8.224,14,8.5,14
		L8.5,14z"/>
	<g>
		<path fill="#263238" d="M28,15.101C28.157,15.042,28.322,15,28.5,15c0.176,0,0.343,0.036,0.5,0.092V1.5C29,1.224,28.776,1,28.5,1
			h-17C11.224,1,11,1.224,11,1.5S11.224,2,11.5,2H28V15.101z"/>
	</g>
	<path fill="#263238" d="M29.5,26.908c-0.205,0-0.398-0.127-0.471-0.332c-0.093-0.26,0.043-0.546,0.303-0.639
		C29.731,25.795,30,25.418,30,25v-8.5c0-0.551-0.448-1-1-1s-1,0.449-1,1c0,0.276-0.224,0.5-0.5,0.5S27,16.776,27,16.5v-1
		c0-0.551-0.448-1-1-1s-1,0.449-1,1c0,0.276-0.224,0.5-0.5,0.5S24,15.776,24,15.5V15c0-0.551-0.448-1-1-1s-1,0.449-1,1
		c0,0.276-0.224,0.5-0.5,0.5S21,15.276,21,15V8c0-0.551-0.448-1-1-1s-1,0.449-1,1v11.5c0,0.233-0.162,0.436-0.39,0.488
		c-0.23,0.053-0.46-0.062-0.562-0.272l-1.742-3.643c-0.167-0.359-0.461-0.813-0.93-0.958c-0.308-0.095-0.658-0.056-1.051,0.117
		l1.457,5.644c0.447,1.033,1.897,4.03,2.923,4.629c0.238,0.139,0.319,0.445,0.18,0.684c-0.14,0.239-0.447,0.318-0.684,0.18
		c-1.494-0.873-3.176-4.733-3.363-5.171l-1.581-6.101c-0.056-0.216,0.038-0.443,0.23-0.556c0.974-0.574,1.729-0.522,2.186-0.38
		c0.647,0.202,1.18,0.716,1.537,1.487L18,17.296V8c0-1.103,0.897-2,2-2s2,0.897,2,2v5.269C22.294,13.098,22.636,13,23,13
		c0.727,0,1.363,0.389,1.714,0.97c0.348-0.293,0.797-0.47,1.286-0.47c0.871,0,1.614,0.56,1.888,1.338
		C28.206,14.625,28.589,14.5,29,14.5c1.103,0,2,0.897,2,2V25c0,0.84-0.535,1.595-1.332,1.879
		C29.612,26.899,29.556,26.908,29.5,26.908z"/>
	<path fill="#263238" d="M30.5,31c-0.276,0-0.5-0.224-0.5-0.5V28H19v2.5c0,0.276-0.224,0.5-0.5,0.5S18,30.776,18,30.5v-3
		c0-0.276,0.224-0.5,0.5-0.5h12c0.276,0,0.5,0.224,0.5,0.5v3C31,30.776,30.776,31,30.5,31z"/>
	<path fill="#263238" d="M11.5,15H6.508c-0.153,0-0.298,0.07-0.393,0.19l-2.954,3.752c-0.195,0.314-0.376,0.825-0.419,1.188
		L2,26.309V27.5h0.997l-0.001-1.131l0.738-6.118c0.026-0.218,0.158-0.59,0.244-0.734L6.75,16H11v0.037
		c0,0.811-0.661,1.484-1.473,1.5l-1.037,0.02c-0.166,0.003-0.319,0.088-0.41,0.228l-1.453,2.24
		c-0.122,0.189-0.102,0.439,0.049,0.607C6.689,20.647,8,22.145,8,25c0,1.147-0.068,1.91-0.237,2.5h1.031C8.938,26.862,9,26.079,9,25
		c0-2.508-0.896-4.095-1.341-4.728l1.116-1.72l0.771-0.015C10.899,18.51,12,17.389,12,16.037V15.5C12,15.224,11.776,15,11.5,15z"/>
	<path fill="#263238" d="M10.5,31c-0.276,0-0.5-0.224-0.5-0.5V28H2v2.5C2,30.776,1.776,31,1.5,31S1,30.776,1,30.5v-3
		C1,27.224,1.224,27,1.5,27h9c0.276,0,0.5,0.224,0.5,0.5v3C11,30.776,10.776,31,10.5,31z"/>
	<g>
		<path fill="#263238" d="M11.5,8H5.521C5.319,8,5.138,7.878,5.06,7.692C4.982,7.505,5.024,7.29,5.167,7.147l5.979-6
			c0.195-0.196,0.512-0.196,0.707-0.001c0.196,0.195,0.196,0.511,0.002,0.707L6.726,7H11V4c0-0.276,0.224-0.5,0.5-0.5S12,3.724,12,4
			v3.5C12,7.776,11.776,8,11.5,8z"/>
	</g>
</g>
</svg>
