<?xml version="1.0" encoding="utf-8"?>
<!-- Generator: Adobe Illustrator 16.0.0, SVG Export Plug-In . SVG Version: 6.00 Build 0)  -->
<!DOCTYPE svg PUBLIC "-//W3C//DTD SVG 1.1//EN" "http://www.w3.org/Graphics/SVG/1.1/DTD/svg11.dtd">
<svg version="1.1" xmlns="http://www.w3.org/2000/svg" xmlns:xlink="http://www.w3.org/1999/xlink" x="0px" y="0px" width="32px"
	 height="32px" viewBox="0 0 32 32" enable-background="new 0 0 32 32" xml:space="preserve">
<g id="support">
	<g>
		<g id="XMLID_4170_">
			<g id="XMLID_4171_">
				<path fill="#263238" d="M21.432,5.012c-0.083,0-0.166-0.021-0.243-0.063c-1.166-0.649-2.448-0.992-3.623-0.944h-3.018
					c-1.338-0.053-2.583,0.269-3.739,0.925c-0.24,0.138-0.545,0.053-0.682-0.188c-0.136-0.24-0.052-0.546,0.188-0.682
					c1.319-0.749,2.746-1.108,4.249-1.056h2.984c1.335-0.052,2.804,0.333,4.128,1.071c0.241,0.134,0.328,0.438,0.193,0.68
					C21.778,4.919,21.607,5.012,21.432,5.012z"/>
			</g>
		</g>
		<g id="XMLID_4172_">
			<path fill="#263238" d="M27.5,13c-0.276,0-0.5-0.224-0.5-0.5v-1C27,6.262,22.738,2,17.5,2h-3C9.262,2,5,6.262,5,11.5v1
				C5,12.776,4.776,13,4.5,13S4,12.776,4,12.5v-1C4,5.71,8.71,1,14.5,1h3C23.29,1,28,5.71,28,11.5v1C28,12.776,27.776,13,27.5,13z"
				/>
		</g>
		<g id="XMLID_973_">
			<g id="XMLID_974_">
				<g id="XMLID_977_">
					<g id="XMLID_983_">
						<g id="XMLID_984_">
							<g id="XMLID_985_">
								<g id="XMLID_986_">
									<g id="XMLID_987_">
										<path fill="#263238" d="M27.5,22h-1v-1h1c0.827,0,1.5-0.673,1.5-1.5v-5c0-0.827-0.673-1.5-1.5-1.5h-1v-1h1
											c1.378,0,2.5,1.121,2.5,2.5v5C30,20.879,28.878,22,27.5,22z"/>
									</g>
								</g>
							</g>
						</g>
					</g>
				</g>
			</g>
		</g>
		<g id="XMLID_950_">
			<g id="XMLID_954_">
				<g id="XMLID_955_">
					<g id="XMLID_956_">
						<g id="XMLID_958_">
							<g id="XMLID_959_">
								<g id="XMLID_965_">
									<path fill="#263238" d="M25.5,23h-1c-0.827,0-1.5-0.673-1.5-1.5v-9c0-0.827,0.673-1.5,1.5-1.5h1c0.827,0,1.5,0.673,1.5,1.5
										V14c0,0.276-0.224,0.5-0.5,0.5S26,14.276,26,14v-1.5c0-0.275-0.224-0.5-0.5-0.5h-1c-0.276,0-0.5,0.225-0.5,0.5v9
										c0,0.275,0.224,0.5,0.5,0.5h1c0.276,0,0.5-0.225,0.5-0.5v-4c0-0.276,0.224-0.5,0.5-0.5s0.5,0.224,0.5,0.5v4
										C27,22.327,26.327,23,25.5,23z"/>
								</g>
							</g>
						</g>
					</g>
				</g>
			</g>
		</g>
		<g id="XMLID_4174_">
			<g id="XMLID_4175_">
				<g id="XMLID_4176_">
					<g id="XMLID_4177_">
						<g id="XMLID_4178_">
							<g id="XMLID_4179_">
								<g id="XMLID_4180_">
									<g id="XMLID_929_">
										<path fill="#263238" d="M5.5,22h-1C3.122,22,2,20.879,2,19.5v-5C2,13.121,3.122,12,4.5,12h1v1h-1
											C3.673,13,3,13.673,3,14.5v5C3,20.327,3.673,21,4.5,21h1V22z"/>
									</g>
								</g>
							</g>
						</g>
					</g>
				</g>
			</g>
		</g>
		<g id="XMLID_4191_">
			<g id="XMLID_4192_">
				<g id="XMLID_4193_">
					<g id="XMLID_4194_">
						<g id="XMLID_4195_">
							<g id="XMLID_4196_">
								<g id="XMLID_948_">
									<path fill="#263238" d="M7.5,23h-1C5.673,23,5,22.327,5,21.5v-4C5,17.224,5.224,17,5.5,17S6,17.224,6,17.5v4
										C6,21.775,6.224,22,6.5,22h1C7.776,22,8,21.775,8,21.5v-9C8,12.225,7.776,12,7.5,12h-1C6.224,12,6,12.225,6,12.5V14
										c0,0.276-0.224,0.5-0.5,0.5S5,14.276,5,14v-1.5C5,11.673,5.673,11,6.5,11h1C8.327,11,9,11.673,9,12.5v9
										C9,22.327,8.327,23,7.5,23z"/>
								</g>
							</g>
						</g>
					</g>
				</g>
			</g>
		</g>
		<g id="XMLID_4237_">
			<g id="XMLID_4238_">
				<g id="XMLID_4239_">
					<g id="XMLID_4240_">
						<g id="XMLID_4241_">
							<g id="XMLID_4242_">
								<g id="XMLID_4243_">
									<g id="XMLID_4244_">
										<path fill="#263238" d="M18.5,31h-3c-0.827,0-1.5-0.673-1.5-1.5s0.673-1.5,1.5-1.5h3c0.827,0,1.5,0.673,1.5,1.5
											S19.327,31,18.5,31z M15.5,29c-0.276,0-0.5,0.225-0.5,0.5s0.224,0.5,0.5,0.5h3c0.276,0,0.5-0.225,0.5-0.5
											S18.776,29,18.5,29H15.5z"/>
									</g>
								</g>
							</g>
						</g>
					</g>
				</g>
			</g>
		</g>
		<g>
			<path fill="#263238" d="M21.5,30h-2c-0.276,0-0.5-0.224-0.5-0.5s0.224-0.5,0.5-0.5h2c3.033,0,5.5-2.468,5.5-5.5
				c0-0.276,0.224-0.5,0.5-0.5s0.5,0.224,0.5,0.5C28,27.084,25.084,30,21.5,30z"/>
		</g>
		<g id="XMLID_1082_">
			<g>
				<g>
					<path fill="#263238" d="M9,6C8.87,6,8.74,5.95,8.65,5.85C8.55,5.76,8.5,5.63,8.5,5.5s0.05-0.26,0.15-0.351
						c0.18-0.189,0.52-0.189,0.7,0C9.45,5.24,9.5,5.37,9.5,5.5S9.45,5.76,9.35,5.85C9.26,5.95,9.13,6,9,6z"/>
				</g>
			</g>
		</g>
		<g id="XMLID_1081_">
			<g>
				<g>
					<path fill="#263238" d="M23,6c-0.13,0-0.26-0.05-0.35-0.141C22.55,5.76,22.5,5.63,22.5,5.5s0.05-0.26,0.15-0.351
						c0.19-0.189,0.52-0.189,0.7-0.01c0.1,0.101,0.15,0.23,0.15,0.36s-0.05,0.26-0.15,0.35C23.26,5.95,23.13,6,23,6z"/>
				</g>
			</g>
		</g>
	</g>
</g>
</svg>
