<?xml version="1.0" encoding="utf-8"?>
<!-- Generator: Adobe Illustrator 16.0.0, SVG Export Plug-In . SVG Version: 6.00 Build 0)  -->
<!DOCTYPE svg PUBLIC "-//W3C//DTD SVG 1.1//EN" "http://www.w3.org/Graphics/SVG/1.1/DTD/svg11.dtd">
<svg version="1.1" id="Layer_1" xmlns="http://www.w3.org/2000/svg" xmlns:xlink="http://www.w3.org/1999/xlink" x="0px" y="0px"
	 width="32px" height="32px" viewBox="0 0 32 32" enable-background="new 0 0 32 32" xml:space="preserve">
<g id="target_targeting">
	<g>
		<g>
			<path fill="#263238" d="M16,19c-1.654,0-3-1.346-3-3s1.346-3,3-3c0.276,0,0.5,0.224,0.5,0.5S16.276,14,16,14
				c-1.103,0-2,0.897-2,2s0.897,2,2,2s2-0.897,2-2c0-0.544-0.214-1.053-0.604-1.432c-0.198-0.193,0.5-0.909,0.697-0.717
				C18.678,14.42,19,15.184,19,16C19,17.654,17.654,19,16,19z"/>
		</g>
		<g>
			<path fill="#263238" d="M16,25c-4.962,0-9-4.038-9-9s4.038-9,9-9c1.75,0,3.445,0.502,4.905,1.452
				c0.231,0.15,0.297,0.46,0.146,0.692C20.9,9.375,20.59,9.44,20.359,9.29C19.063,8.446,17.555,8,16,8c-4.411,0-8,3.589-8,8
				s3.589,8,8,8s8-3.589,8-8c0-2.136-0.831-4.144-2.34-5.654c-0.195-0.195-0.195-0.512,0-0.707c0.195-0.195,0.512-0.195,0.707,0
				C24.065,11.338,25,13.598,25,16C25,20.962,20.962,25,16,25z"/>
		</g>
		<g>
			<path fill="#263238" d="M16,22c-3.309,0-6-2.691-6-6s2.691-6,6-6c0.886,0,1.739,0.188,2.535,0.561
				c0.25,0.117,0.358,0.415,0.242,0.665c-0.117,0.25-0.413,0.359-0.665,0.242C17.449,11.157,16.739,11,16,11c-2.757,0-5,2.243-5,5
				s2.243,5,5,5s5-2.243,5-5c0-1.318-0.508-2.562-1.43-3.501c-0.193-0.197-0.19-0.514,0.007-0.707
				c0.196-0.194,0.514-0.191,0.707,0.007C21.391,12.926,22,14.418,22,16C22,19.309,19.309,22,16,22z"/>
		</g>
	</g>
	<g>
		<g>
			<path fill="#263238" d="M16,16.5c-0.128,0-0.256-0.049-0.354-0.146c-0.195-0.195-0.195-0.512,0-0.707l11.5-11.5
				c0.195-0.195,0.512-0.195,0.707,0s0.195,0.512,0,0.707l-11.5,11.5C16.256,16.452,16.128,16.5,16,16.5z"/>
		</g>
		<g>
			<path fill="#263238" d="M22.5,10c-0.064,0-0.129-0.013-0.191-0.038C22.122,9.885,22,9.703,22,9.5V6
				c0-0.133,0.053-0.26,0.146-0.354l4-4c0.143-0.144,0.358-0.187,0.545-0.108C26.878,1.616,27,1.798,27,2v3.5
				c0,0.132-0.053,0.26-0.146,0.354l-4,4C22.758,9.95,22.63,10,22.5,10z M23,6.208v2.086l3-3V3.208L23,6.208z"/>
		</g>
		<g>
			<path fill="#263238" d="M28.202,7.298l-0.714,0.714C29.115,10.341,30,13.1,30,16c0,7.72-6.28,14-14,14S2,23.72,2,16S8.28,2,16,2
				c2.258,0,4.413,0.521,6.406,1.549c0.246,0.127,0.547,0.031,0.673-0.215c0.126-0.245,0.03-0.547-0.215-0.673
				C20.759,1.574,18.385,1,16,1C7.729,1,1,7.729,1,16s6.729,15,15,15s15-6.729,15-15C31,12.832,30.011,9.823,28.202,7.298z"/>
			<path fill="#263238" d="M24.865,9.5C26.245,11.374,27,13.623,27,16c0,6.065-4.935,11-11,11S5,22.065,5,16S9.935,5,16,5
				c1.573,0,3.092,0.324,4.514,0.964c0.252,0.114,0.548,0,0.661-0.251c0.113-0.252,0.001-0.548-0.251-0.661
				C19.372,4.354,17.715,4,16,4C9.383,4,4,9.383,4,16s5.383,12,12,12s12-5.383,12-12c0-2.368-0.686-4.621-1.949-6.551L26,9.5H24.865
				z"/>
		</g>
		<g>
			<path fill="#263238" d="M26,10h-3.5c-0.202,0-0.384-0.122-0.462-0.309c-0.077-0.187-0.035-0.402,0.108-0.545l4-4
				C26.24,5.053,26.368,5,26.5,5H30c0.202,0,0.385,0.122,0.462,0.309c0.078,0.187,0.035,0.402-0.108,0.545l-4,4
				C26.26,9.948,26.133,10,26,10z M23.707,9h2.086l3-3h-2.086L23.707,9z"/>
		</g>
	</g>
</g>
</svg>
