<?xml version="1.0" encoding="utf-8"?>
<!-- Generator: Adobe Illustrator 16.0.0, SVG Export Plug-In . SVG Version: 6.00 Build 0)  -->
<!DOCTYPE svg PUBLIC "-//W3C//DTD SVG 1.1//EN" "http://www.w3.org/Graphics/SVG/1.1/DTD/svg11.dtd">
<svg version="1.1" xmlns="http://www.w3.org/2000/svg" xmlns:xlink="http://www.w3.org/1999/xlink" x="0px" y="0px" width="32px"
	 height="32px" viewBox="0 0 32 32" enable-background="new 0 0 32 32" xml:space="preserve">
<g id="teaching">
	<path fill="#263238" d="M30.5,23h-19c-0.276,0-0.5-0.224-0.5-0.5s0.224-0.5,0.5-0.5h19c0.276,0,0.5,0.224,0.5,0.5
		S30.776,23,30.5,23z"/>
	<path fill="#263238" d="M29.5,21c-0.276,0-0.5-0.224-0.5-0.5v-18C29,2.224,28.776,2,28.5,2h-18C10.224,2,10,1.776,10,1.5
		S10.224,1,10.5,1h18C29.327,1,30,1.673,30,2.5v18C30,20.776,29.776,21,29.5,21z"/>
	<path fill="#263238" d="M6.5,7c-1.654,0-3-1.346-3-3c0-1.654,1.346-3,3-3s3,1.346,3,3C9.5,5.654,8.154,7,6.5,7L6.5,7z M6.5,2
		c-1.104,0-2,0.896-2,2s0.896,2,2,2s2-0.896,2-2S7.604,2,6.5,2L6.5,2z"/>
	<path fill="#263238" d="M18.5,8H4c-1.689,0-3,1.881-3,3.5v7C1,19.327,1.673,20,2.5,20c0.176,0,0.343-0.036,0.5-0.092V30.5
		C3,30.776,3.224,31,3.5,31S4,30.776,4,30.5v-18C4,12.224,3.776,12,3.5,12S3,12.224,3,12.5v6C3,18.775,2.775,19,2.5,19
		S2,18.775,2,18.5v-7C2,10.375,2.923,9,4,9h14.5C18.775,9,19,9.225,19,9.5S18.775,10,18.5,10h-9C9.224,10,9,10.224,9,10.5v20
		C9,30.776,9.224,31,9.5,31s0.5-0.224,0.5-0.5V11h8.5c0.827,0,1.5-0.673,1.5-1.5S19.327,8,18.5,8L18.5,8z"/>
	<path fill="#263238" d="M6.5,31C6.224,31,6,30.776,6,30.5v-10C6,20.224,6.224,20,6.5,20S7,20.224,7,20.5v10
		C7,30.776,6.776,31,6.5,31L6.5,31z"/>
	<path fill="#263238" d="M26.5,16h-8c-0.276,0-0.5-0.224-0.5-0.5s0.224-0.5,0.5-0.5h8c0.276,0,0.5,0.224,0.5,0.5S26.776,16,26.5,16z
		"/>
	<path fill="#263238" d="M16.5,16h-4c-0.276,0-0.5-0.224-0.5-0.5s0.224-0.5,0.5-0.5h4c0.276,0,0.5,0.224,0.5,0.5S16.776,16,16.5,16z
		"/>
	<path fill="#263238" d="M26.5,14h-3c-0.276,0-0.5-0.224-0.5-0.5s0.224-0.5,0.5-0.5h3c0.276,0,0.5,0.224,0.5,0.5S26.776,14,26.5,14z
		"/>
	<path fill="#263238" d="M18.5,18h-6c-0.276,0-0.5-0.224-0.5-0.5s0.224-0.5,0.5-0.5h6c0.276,0,0.5,0.224,0.5,0.5S18.776,18,18.5,18z
		"/>
	<path fill="#263238" d="M21.5,14h-9c-0.276,0-0.5-0.224-0.5-0.5s0.224-0.5,0.5-0.5h9c0.276,0,0.5,0.224,0.5,0.5S21.776,14,21.5,14z
		"/>
	<path fill="#263238" d="M20.5,18c-0.276,0-0.5-0.224-0.5-0.5s0.224-0.5,0.5-0.5s0.5,0.224,0.5,0.5S20.776,18,20.5,18L20.5,18z"/>
	<path fill="#263238" d="M22.5,5h-8C14.224,5,14,4.776,14,4.5S14.224,4,14.5,4h8C22.776,4,23,4.224,23,4.5S22.776,5,22.5,5z"/>
</g>
</svg>
