<?xml version="1.0" encoding="utf-8"?>
<!-- Generator: Adobe Illustrator 16.0.0, SVG Export Plug-In . SVG Version: 6.00 Build 0)  -->
<!DOCTYPE svg PUBLIC "-//W3C//DTD SVG 1.1//EN" "http://www.w3.org/Graphics/SVG/1.1/DTD/svg11.dtd">
<svg version="1.1" id="Layer_1" xmlns="http://www.w3.org/2000/svg" xmlns:xlink="http://www.w3.org/1999/xlink" x="0px" y="0px"
	 width="32px" height="32px" viewBox="0 0 32 32" enable-background="new 0 0 32 32" xml:space="preserve">
<g id="time_management">
	<g>
		<path fill="#263238" d="M22.274,2.368c0.19-0.222,0.467-0.35,0.76-0.35c0.238,0,0.468,0.085,0.649,0.241
			c0.203,0.173,0.326,0.416,0.347,0.681c0.021,0.266-0.063,0.524-0.237,0.728l-1.859,2.174c0.279,0.186,0.542,0.392,0.793,0.61
			l1.825-2.134c0.348-0.406,0.516-0.923,0.475-1.456C24.985,2.33,24.739,1.846,24.333,1.5c-0.806-0.691-2.132-0.587-2.82,0.22
			L19.01,4.647c0.367,0.07,0.723,0.168,1.07,0.287L22.274,2.368z"/>
	</g>
	<g>
		<g>
			<g>
				<g>
					<g>
						<g>
							<g>
								<path fill="#263238" d="M13.5,6.072c-0.173,0-0.341-0.09-0.434-0.25l-0.5-0.866c-0.138-0.239-0.056-0.545,0.183-0.683
									c0.237-0.139,0.544-0.056,0.683,0.183l0.5,0.866c0.138,0.239,0.056,0.545-0.183,0.683C13.671,6.051,13.585,6.072,13.5,6.072
									z"/>
							</g>
						</g>
					</g>
				</g>
				<g>
					<g>
						<g>
							<g>
								<path fill="#263238" d="M17.5,5C17.224,5,17,4.776,17,4.5v-1C17,3.224,17.224,3,17.5,3S18,3.224,18,3.5v1
									C18,4.776,17.776,5,17.5,5z"/>
							</g>
						</g>
					</g>
				</g>
			</g>
			<g>
				<path fill="#263238" d="M18.5,3C18.224,3,18,2.776,18,2.5V2h-1v0.5C17,2.776,16.776,3,16.5,3S16,2.776,16,2.5v-1
					C16,1.224,16.224,1,16.5,1h2C18.776,1,19,1.224,19,1.5v1C19,2.776,18.776,3,18.5,3z"/>
			</g>
		</g>
		<g>
			<g>
				<g>
					<g>
						<path fill="#263238" d="M20.749,6.876c0.113,0.065,0.191,0.168,0.233,0.296c0.037,0.137,0.015,0.274-0.05,0.387
							c-0.065,0.113-0.173,0.2-0.31,0.237c-0.254,0.061-0.531-0.099-0.606-0.35C19.979,7.31,20,7.172,20.065,7.06
							s0.173-0.201,0.305-0.228C20.507,6.795,20.636,6.812,20.749,6.876z"/>
					</g>
				</g>
				<g>
					<g>
						<path fill="#263238" d="M14.749,17.269c0.113,0.065,0.2,0.174,0.228,0.305c0.042,0.128,0.02,0.266-0.045,0.378
							c-0.065,0.113-0.173,0.201-0.305,0.228c-0.26,0.07-0.537-0.09-0.611-0.34c-0.037-0.137-0.015-0.274,0.05-0.387
							c0.065-0.112,0.173-0.2,0.296-0.233C14.499,17.182,14.636,17.204,14.749,17.269z"/>
					</g>
				</g>
			</g>
			<g>
				<g>
					<g>
						<path fill="#263238" d="M23.126,9.254c0.065,0.113,0.082,0.242,0.054,0.373c-0.037,0.137-0.124,0.245-0.237,0.31
							s-0.25,0.087-0.387,0.05c-0.25-0.075-0.411-0.352-0.35-0.606c0.037-0.137,0.124-0.245,0.237-0.31
							c0.113-0.065,0.25-0.087,0.378-0.045C22.958,9.063,23.061,9.142,23.126,9.254z"/>
					</g>
				</g>
				<g>
					<g>
						<path fill="#263238" d="M12.734,15.254c0.065,0.113,0.086,0.25,0.045,0.378c-0.028,0.131-0.116,0.24-0.228,0.305
							c-0.113,0.065-0.25,0.087-0.377,0.045c-0.26-0.069-0.42-0.346-0.359-0.601c0.037-0.137,0.124-0.245,0.237-0.311
							c0.112-0.065,0.25-0.086,0.373-0.053C12.561,15.055,12.669,15.142,12.734,15.254z"/>
					</g>
				</g>
			</g>
			<g>
				<g>
					<g>
						<path fill="#263238" d="M23.997,12.503c0,0.13-0.05,0.25-0.14,0.35c-0.1,0.1-0.23,0.15-0.36,0.15c-0.13,0-0.26-0.05-0.36-0.15
							c-0.18-0.19-0.18-0.51,0-0.7c0.1-0.1,0.23-0.15,0.36-0.15c0.13,0,0.26,0.05,0.35,0.15
							C23.947,12.253,23.997,12.373,23.997,12.503z"/>
					</g>
				</g>
				<g>
					<g>
						<path fill="#263238" d="M11.997,12.503c0,0.13-0.05,0.26-0.15,0.35c-0.09,0.1-0.22,0.15-0.35,0.15
							c-0.13,0-0.26-0.05-0.35-0.15c-0.19-0.19-0.19-0.51-0.011-0.7c0.1-0.1,0.23-0.15,0.36-0.15c0.13,0,0.26,0.05,0.35,0.14
							C11.947,12.243,11.997,12.373,11.997,12.503z"/>
					</g>
				</g>
			</g>
			<g>
				<g>
					<g>
						<path fill="#263238" d="M23.126,15.751c-0.065,0.113-0.168,0.191-0.296,0.233c-0.137,0.037-0.274,0.015-0.387-0.05
							c-0.113-0.065-0.2-0.173-0.237-0.31c-0.061-0.254,0.099-0.531,0.35-0.606c0.137-0.037,0.274-0.015,0.387,0.05
							s0.2,0.173,0.228,0.305C23.208,15.51,23.191,15.639,23.126,15.751z"/>
					</g>
				</g>
				<g>
					<g>
						<path fill="#263238" d="M12.734,9.751c-0.065,0.113-0.174,0.2-0.305,0.228c-0.128,0.042-0.266,0.02-0.378-0.045
							c-0.113-0.065-0.201-0.173-0.228-0.305c-0.07-0.26,0.09-0.537,0.341-0.611c0.137-0.037,0.274-0.015,0.387,0.05
							c0.112,0.065,0.2,0.173,0.233,0.296C12.821,9.501,12.799,9.639,12.734,9.751z"/>
					</g>
				</g>
			</g>
			<g>
				<g>
					<g>
						<path fill="#263238" d="M20.749,18.129c-0.113,0.065-0.242,0.082-0.373,0.054c-0.137-0.037-0.245-0.124-0.31-0.237
							s-0.087-0.25-0.05-0.387c0.075-0.25,0.352-0.411,0.606-0.35c0.137,0.037,0.245,0.124,0.311,0.237
							c0.065,0.113,0.086,0.25,0.044,0.378C20.94,17.961,20.861,18.064,20.749,18.129z"/>
					</g>
				</g>
				<g>
					<g>
						<path fill="#263238" d="M14.749,7.737c-0.113,0.065-0.25,0.086-0.378,0.045c-0.131-0.028-0.24-0.116-0.305-0.228
							C14,7.441,13.979,7.304,14.021,7.176c0.069-0.26,0.346-0.419,0.601-0.359c0.137,0.037,0.245,0.124,0.311,0.237
							c0.065,0.112,0.086,0.25,0.053,0.373C14.948,7.564,14.861,7.672,14.749,7.737z"/>
					</g>
				</g>
			</g>
			<g>
				<g>
					<g>
						<path fill="#263238" d="M17.5,19c-0.13,0-0.25-0.05-0.35-0.14c-0.1-0.1-0.15-0.23-0.15-0.36c0-0.13,0.05-0.26,0.15-0.36
							c0.19-0.18,0.51-0.18,0.7,0c0.1,0.1,0.15,0.23,0.15,0.36c0,0.13-0.05,0.26-0.15,0.35C17.75,18.95,17.63,19,17.5,19z"/>
					</g>
				</g>
				<g>
					<g>
						<path fill="#263238" d="M17.5,7c-0.13,0-0.26-0.05-0.35-0.15C17.05,6.76,17,6.63,17,6.5c0-0.13,0.05-0.26,0.15-0.35
							c0.19-0.19,0.51-0.19,0.7-0.01C17.95,6.24,18,6.37,18,6.5c0,0.13-0.05,0.26-0.14,0.35C17.76,6.95,17.63,7,17.5,7z"/>
					</g>
				</g>
			</g>
		</g>
		<g>
			<g>
				<path fill="#263238" d="M17.5,14c-0.827,0-1.5-0.673-1.5-1.5s0.673-1.5,1.5-1.5s1.5,0.673,1.5,1.5S18.327,14,17.5,14z M17.5,12
					c-0.276,0-0.5,0.224-0.5,0.5s0.224,0.5,0.5,0.5s0.5-0.224,0.5-0.5S17.776,12,17.5,12z"/>
			</g>
		</g>
	</g>
	<g>
		<g>
			<path fill="#263238" d="M13.48,21.275c-0.005,0-0.011,0-0.016,0c-0.276-0.009-0.493-0.24-0.484-0.516
				c0.174-5.555-3.61-6.975-3.648-6.988C9.133,13.7,9,13.512,9,13.301v-2.893c0-0.127,0.049-0.25,0.136-0.343l0.652-0.691
				c0.669-0.745,0.987-1.425,0.936-2.012c-0.048-0.549-0.417-0.949-0.726-1.214L7.021,9.461l-1.201,5.595l1.888,5.027
				c0.098,0.258-0.031,0.547-0.289,0.646c-0.259,0.097-0.547-0.031-0.646-0.289l-1.94-5.166c-0.034-0.09-0.042-0.188-0.021-0.283
				l1.26-5.869C6.09,9.036,6.13,8.958,6.188,8.893l3.384-3.768c0.184-0.206,0.499-0.223,0.705-0.04l0.108,0.087
				c0.37,0.291,1.237,0.971,1.335,2.102c0.076,0.874-0.327,1.808-1.196,2.776L10,10.607v2.367c1.045,0.511,4.146,2.48,3.979,7.817
				C13.971,21.062,13.749,21.275,13.48,21.275z"/>
		</g>
	</g>
	<g>
		<path fill="#263238" d="M24.813,10.12c-0.477,0-0.938-0.171-1.299-0.481c-0.405-0.346-0.652-0.831-0.694-1.363
			c-0.042-0.532,0.127-1.049,0.475-1.456l0.159-0.203c0.712-0.834,2.027-0.927,2.833-0.235c0.405,0.346,0.652,0.831,0.694,1.363
			c0.042,0.532-0.127,1.049-0.475,1.456l-0.159,0.203C25.953,9.865,25.399,10.12,24.813,10.12z M24.986,6.901
			c-0.293,0-0.57,0.127-0.76,0.35l-0.159,0.204c-0.187,0.219-0.271,0.478-0.25,0.744c0.021,0.266,0.144,0.508,0.347,0.681
			c0.405,0.349,1.065,0.294,1.409-0.109l0.159-0.203c0.187-0.219,0.271-0.478,0.25-0.744c-0.021-0.266-0.144-0.508-0.347-0.681
			C25.454,6.986,25.224,6.901,24.986,6.901z"/>
	</g>
	<g>
		<path fill="#263238" d="M25.569,13.641c-0.477,0-0.938-0.171-1.299-0.481c-0.405-0.346-0.652-0.831-0.694-1.363
			c-0.042-0.532,0.127-1.049,0.475-1.456l0.76-0.877c0.684-0.802,2.012-0.908,2.818-0.217c0.405,0.346,0.652,0.831,0.694,1.363
			c0.042,0.532-0.127,1.049-0.475,1.456l-0.76,0.877C26.71,13.385,26.156,13.641,25.569,13.641z M26.329,9.766
			c-0.293,0-0.57,0.127-0.76,0.35l-0.76,0.878c-0.172,0.201-0.256,0.459-0.235,0.726c0.021,0.266,0.144,0.508,0.347,0.681
			c0.405,0.348,1.066,0.294,1.409-0.109l0.76-0.877c0.172-0.201,0.256-0.459,0.235-0.726c-0.021-0.266-0.144-0.508-0.347-0.681
			C26.797,9.851,26.567,9.766,26.329,9.766z"/>
	</g>
	<g>
		<g>
			<path fill="#263238" d="M23.846,6.927c0.009-0.011,0.021-0.019,0.03-0.029C22.317,5.125,20.04,4,17.5,4
				c-1.807,0-3.531,0.56-4.986,1.618c-0.224,0.162-0.273,0.475-0.11,0.698c0.162,0.223,0.474,0.272,0.698,0.11
				C14.385,5.493,15.906,5,17.5,5c2.366,0,4.475,1.104,5.851,2.819c0.05-0.241,0.152-0.474,0.323-0.674L23.846,6.927z"/>
			<path fill="#263238" d="M24.07,16.111C22.792,18.427,20.327,20,17.5,20c-0.63,0-1.26-0.079-1.872-0.234
				c-0.266-0.071-0.54,0.093-0.607,0.361c-0.068,0.268,0.094,0.54,0.361,0.607C16.075,20.911,16.787,21,17.5,21
				c3.039,0,5.702-1.608,7.205-4.012c-0.051-0.034-0.108-0.05-0.156-0.091C24.3,16.684,24.142,16.407,24.07,16.111z"/>
		</g>
		<g>
			<path fill="#263238" d="M25.522,17.757c-0.477,0-0.938-0.171-1.299-0.481c-0.405-0.346-0.652-0.831-0.694-1.363
				c-0.042-0.532,0.127-1.049,0.475-1.456l0.76-0.877c0.684-0.802,2.012-0.909,2.818-0.217c0.405,0.346,0.652,0.831,0.694,1.363
				c0.042,0.532-0.127,1.049-0.475,1.456l-0.76,0.877C26.663,17.501,26.109,17.757,25.522,17.757z M26.282,13.882
				c-0.293,0-0.57,0.127-0.76,0.35l-0.76,0.878c-0.172,0.201-0.256,0.459-0.235,0.726c0.021,0.266,0.144,0.508,0.347,0.681
				c0.405,0.349,1.066,0.294,1.409-0.109l0.76-0.877c0.172-0.201,0.256-0.459,0.235-0.726c-0.021-0.266-0.144-0.508-0.347-0.681
				C26.75,13.967,26.52,13.882,26.282,13.882z"/>
		</g>
	</g>
	<g>
		<path fill="#263238" d="M15.768,27.815c0.072-0.111,0.097-0.247,0.07-0.376c-0.028-0.13-0.106-0.243-0.217-0.315l-8.275-5.371
			c-0.111-0.072-0.248-0.097-0.376-0.07c-0.13,0.028-0.243,0.106-0.315,0.217L5.3,23.986l0.839,0.544l1.082-1.667l7.436,4.826
			l-0.955,1.471c-0.047,0.073-0.066,0.153-0.072,0.234l0.732,0.475c0.07-0.038,0.133-0.092,0.179-0.164L15.768,27.815z"/>
	</g>
	<g>
		<path fill="#263238" d="M25.047,18.601c-0.229-0.155-0.539-0.098-0.695,0.131c-3.523,5.169-6.406,7.453-8.813,6.979
			c-0.201-0.042-0.403,0.046-0.514,0.216l-0.647,0.985l0.839,0.544l0.468-0.712c3.673,0.422,7.159-4.024,9.494-7.45
			C25.334,19.067,25.275,18.756,25.047,18.601z"/>
	</g>
	<g>
		<path fill="#263238" d="M14.887,31.042c-0.081,0-0.164-0.02-0.24-0.062c-0.223-0.122-0.315-0.389-0.226-0.619l-9.17-5.956
			l-3.29,5.121c-0.149,0.231-0.458,0.301-0.691,0.15c-0.232-0.149-0.299-0.458-0.15-0.691l3.562-5.543
			c0.072-0.112,0.185-0.19,0.315-0.218c0.129-0.027,0.266-0.003,0.377,0.069l9.977,6.479c0.219,0.143,0.292,0.43,0.166,0.66
			l-0.191,0.35C15.235,30.948,15.064,31.042,14.887,31.042z"/>
	</g>
	<g>
		<path fill="#263238" d="M17.5,12c-0.276,0-0.5-0.224-0.5-0.5V8c0-0.276,0.224-0.5,0.5-0.5S18,7.724,18,8v3.5
			C18,11.776,17.776,12,17.5,12z"/>
	</g>
</g>
</svg>
