<?xml version="1.0" encoding="utf-8"?>
<!-- Generator: Adobe Illustrator 16.0.0, SVG Export Plug-In . SVG Version: 6.00 Build 0)  -->
<!DOCTYPE svg PUBLIC "-//W3C//DTD SVG 1.1//EN" "http://www.w3.org/Graphics/SVG/1.1/DTD/svg11.dtd">
<svg version="1.1" xmlns="http://www.w3.org/2000/svg" xmlns:xlink="http://www.w3.org/1999/xlink" x="0px" y="0px" width="32px"
	 height="32px" viewBox="0 0 32 32" enable-background="new 0 0 32 32" xml:space="preserve">
<g id="video_lesson">
	<g id="globe_internet_web_hosting">
		<g>
			<path fill="#263238" d="M2.5,22C2.224,22,2,21.776,2,21.5v-15C2,5.673,2.673,5,3.5,5h1C4.776,5,5,5.224,5,5.5S4.776,6,4.5,6h-1
				C3.225,6,3,6.225,3,6.5v15C3,21.776,2.776,22,2.5,22z"/>
			<path fill="#263238" d="M29.5,24c-0.276,0-0.5-0.224-0.5-0.5v-17C29,6.225,28.775,6,28.5,6h-1C27.224,6,27,5.776,27,5.5
				S27.224,5,27.5,5h1C29.327,5,30,5.673,30,6.5v17C30,23.776,29.776,24,29.5,24z"/>
		</g>
		<path fill="#263238" d="M21.5,31h-11c-0.276,0-0.5-0.224-0.5-0.5s0.224-0.5,0.5-0.5h1c0.827,0,1.5-0.673,1.5-1.5
			c0-0.276,0.224-0.5,0.5-0.5s0.5,0.224,0.5,0.5c0,0.563-0.187,1.082-0.501,1.5h5.002C18.187,29.582,18,29.063,18,28.5v-2
			c0-0.276,0.224-0.5,0.5-0.5s0.5,0.224,0.5,0.5v2c0,0.827,0.673,1.5,1.5,1.5h1c0.276,0,0.5,0.224,0.5,0.5S21.776,31,21.5,31z"/>
		<g>
			<path fill="#263238" d="M28.5,27h-25C2.673,27,2,26.327,2,25.5v-2C2,23.224,2.224,23,2.5,23h27c0.276,0,0.5,0.224,0.5,0.5v2
				C30,26.327,29.327,27,28.5,27z M3,24v1.5C3,25.775,3.225,26,3.5,26h25c0.275,0,0.5-0.225,0.5-0.5V24H3z"/>
		</g>
	</g>
	<g id="live_stream_x2C__monitor_1_">
		<g id="file_2_">
			<g>
				<path fill="#263238" d="M6.5,22C6.224,22,6,21.776,6,21.5v-15C6,6.224,6.224,6,6.5,6S7,6.224,7,6.5v15C7,21.776,6.776,22,6.5,22
					z"/>
				<path fill="#263238" d="M25.5,22c-0.276,0-0.5-0.224-0.5-0.5V2H11.5C11.224,2,11,1.776,11,1.5S11.224,1,11.5,1h14
					C25.776,1,26,1.224,26,1.5v20C26,21.776,25.776,22,25.5,22z"/>
			</g>
		</g>
		<g>
			<path fill="#263238" d="M16,19c-3.309,0-6-2.691-6-6s2.691-6,6-6s6,2.691,6,6S19.309,19,16,19z M16,8c-2.757,0-5,2.243-5,5
				s2.243,5,5,5s5-2.243,5-5S18.757,8,16,8z"/>
		</g>
		<g>
			<path fill="#263238" d="M14.5,15.5c-0.096,0-0.19-0.027-0.272-0.081C14.086,15.327,14,15.169,14,15v-4
				c0-0.169,0.086-0.327,0.228-0.419s0.319-0.105,0.476-0.038l4.5,2c0.181,0.08,0.297,0.26,0.297,0.457s-0.116,0.377-0.297,0.457
				l-4.5,2C14.638,15.485,14.569,15.5,14.5,15.5z M15,11.77v2.461L17.769,13L15,11.77z"/>
		</g>
	</g>
	<g>
		<g>
			<path fill="#263238" d="M11.5,7H6.521C6.319,7,6.138,6.878,6.06,6.691C5.982,6.505,6.024,6.29,6.167,6.147l4.979-5
				c0.195-0.197,0.512-0.195,0.707-0.002c0.196,0.195,0.196,0.512,0.002,0.707L7.725,6H11V4c0-0.276,0.224-0.5,0.5-0.5
				S12,3.724,12,4v2.5C12,6.776,11.776,7,11.5,7z"/>
		</g>
	</g>
</g>
</svg>
