<?xml version="1.0" encoding="utf-8"?>
<!-- Generator: Adobe Illustrator 16.0.0, SVG Export Plug-In . SVG Version: 6.00 Build 0)  -->
<!DOCTYPE svg PUBLIC "-//W3C//DTD SVG 1.1//EN" "http://www.w3.org/Graphics/SVG/1.1/DTD/svg11.dtd">
<svg version="1.1" id="Layer_1" xmlns="http://www.w3.org/2000/svg" xmlns:xlink="http://www.w3.org/1999/xlink" x="0px" y="0px"
	 width="32px" height="32px" viewBox="0 0 32 32" enable-background="new 0 0 32 32" xml:space="preserve">
<g id="video_marketing">
	<path fill="#263238" d="M29.5,24c-0.097,0-0.194-0.028-0.277-0.084L24.849,21H23.5c-0.276,0-0.5-0.224-0.5-0.5v-3
		c0-0.276,0.224-0.5,0.5-0.5h1.349l4.374-2.916c0.154-0.103,0.352-0.112,0.513-0.024C29.898,14.146,30,14.315,30,14.5v9
		c0,0.185-0.102,0.354-0.264,0.44C29.662,23.98,29.581,24,29.5,24z M24,20h1c0.099,0,0.195,0.029,0.277,0.084L29,22.565v-7.131
		l-3.723,2.481C25.195,17.971,25.099,18,25,18h-1V20z"/>
	<path fill="#263238" d="M12.5,7.5C12.224,7.5,12,7.276,12,7c0-2.757-2.243-5-5-5C6.002,2,5.04,2.293,4.217,2.847
		C3.988,3,3.678,2.94,3.523,2.711C3.369,2.481,3.43,2.171,3.659,2.017C4.647,1.352,5.803,1,7,1c2.456,0,4.572,1.483,5.5,3.601
		c0.146-0.336,0.325-0.659,0.534-0.966c0.155-0.229,0.466-0.287,0.695-0.132c0.228,0.155,0.288,0.466,0.132,0.694
		C13.297,5.024,13,5.994,13,7C13,7.276,12.776,7.5,12.5,7.5z"/>
	<path fill="#263238" d="M18,13H7c-3.309,0-6-2.691-6-6c0-1.202,0.354-2.362,1.026-3.354C2.18,3.417,2.49,3.354,2.72,3.512
		c0.229,0.154,0.289,0.466,0.134,0.694C2.295,5.032,2,5.998,2,7c0,2.757,2.243,5,5,5h11c2.757,0,5-2.243,5-5s-2.243-5-5-5
		c-0.999,0-1.962,0.293-2.785,0.848c-0.228,0.154-0.54,0.094-0.694-0.136c-0.154-0.229-0.094-0.54,0.135-0.694
		C15.645,1.352,16.801,1,18,1c3.309,0,6,2.691,6,6S21.309,13,18,13z"/>
	<g>
		<path fill="#263238" d="M18,9c-1.103,0-2-0.897-2-2s0.897-2,2-2s2,0.897,2,2S19.103,9,18,9z M18,6c-0.551,0-1,0.448-1,1
			s0.449,1,1,1s1-0.448,1-1S18.551,6,18,6z"/>
	</g>
	<g>
		<path fill="#263238" d="M7,9C5.897,9,5,8.103,5,7s0.897-2,2-2s2,0.897,2,2S8.103,9,7,9z M7,6C6.449,6,6,6.448,6,7s0.449,1,1,1
			s1-0.448,1-1S7.551,6,7,6z"/>
	</g>
	<g>
		<path fill="#263238" d="M11.5,31c-0.166,0-0.325-0.083-0.419-0.228L7.979,26H4.5C3.673,26,3,25.327,3,24.5v-11
			C3,12.673,3.673,12,4.5,12h18c0.827,0,1.5,0.673,1.5,1.5v11c0,0.827-0.673,1.5-1.5,1.5H12v4.5c0,0.222-0.146,0.416-0.358,0.479
			C11.595,30.993,11.547,31,11.5,31z M4.5,13C4.224,13,4,13.225,4,13.5v11C4,24.775,4.224,25,4.5,25h3.75
			c0.169,0,0.327,0.086,0.419,0.228L11,28.813V25.5c0-0.276,0.224-0.5,0.5-0.5h11c0.276,0,0.5-0.225,0.5-0.5v-11
			c0-0.275-0.224-0.5-0.5-0.5H4.5z"/>
	</g>
	<g>
		<path fill="#263238" d="M10.5,22c-0.102,0-0.203-0.031-0.288-0.091C10.079,21.815,10,21.663,10,21.5v-5
			c0-0.163,0.079-0.315,0.212-0.409c0.134-0.093,0.304-0.115,0.456-0.062l7,2.5C17.867,18.601,18,18.789,18,19
			s-0.133,0.399-0.332,0.471l-7,2.5C10.613,21.99,10.557,22,10.5,22z M11,17.21v3.58L16.013,19L11,17.21z"/>
	</g>
</g>
</svg>
