<?xml version="1.0" encoding="utf-8"?>
<!-- Generator: Adobe Illustrator 16.0.0, SVG Export Plug-In . SVG Version: 6.00 Build 0)  -->
<!DOCTYPE svg PUBLIC "-//W3C//DTD SVG 1.1//EN" "http://www.w3.org/Graphics/SVG/1.1/DTD/svg11.dtd">
<svg version="1.1" xmlns="http://www.w3.org/2000/svg" xmlns:xlink="http://www.w3.org/1999/xlink" x="0px" y="0px" width="32px"
	 height="32px" viewBox="0 0 32 32" enable-background="new 0 0 32 32" xml:space="preserve">
<g id="Video_instruction_webinar">
	<g id="financial_report_x2C__flip_chart_x2C__chart">
		<g id="training_1_">
			<g>
				<path fill="#263238" d="M29.5,4h-27C1.673,4,1,3.327,1,2.5S1.673,1,2.5,1h27C30.327,1,31,1.673,31,2.5S30.327,4,29.5,4z M2.5,2
					C2.225,2,2,2.225,2,2.5S2.225,3,2.5,3h27C29.775,3,30,2.775,30,2.5S29.775,2,29.5,2H2.5z"/>
			</g>
			<path fill="#263238" d="M29.5,27h-27C2.224,27,2,26.776,2,26.5v-21C2,5.224,2.224,5,2.5,5S3,5.224,3,5.5V26h26V5.5
				C29,5.224,29.224,5,29.5,5S30,5.224,30,5.5v21C30,26.776,29.776,27,29.5,27z"/>
		</g>
	</g>
	<g id="video_marketing">
		<g>
			<g>
				<path fill="#263238" d="M23.5,22h-15C7.673,22,7,21.327,7,20.5v-11C7,8.673,7.673,8,8.5,8h15C24.327,8,25,8.673,25,9.5v11
					C25,21.327,24.327,22,23.5,22z M8.5,9C8.225,9,8,9.225,8,9.5v11C8,20.775,8.225,21,8.5,21h15c0.275,0,0.5-0.225,0.5-0.5v-11
					C24,9.225,23.775,9,23.5,9H8.5z"/>
			</g>
		</g>
		<g>
			<path fill="#263238" d="M13.5,18c-0.098,0-0.194-0.028-0.277-0.084C13.084,17.823,13,17.667,13,17.5v-5
				c0-0.167,0.084-0.323,0.223-0.416s0.316-0.109,0.47-0.046l6,2.5C19.879,14.616,20,14.798,20,15s-0.121,0.384-0.308,0.462l-6,2.5
				C13.631,17.987,13.565,18,13.5,18z M14,13.25v3.5L18.2,15L14,13.25z"/>
		</g>
	</g>
	<g>
		<g>
			<path fill="#263238" d="M20.5,30.5v-2V30.5z"/>
			<path fill="#263238" d="M20.5,31c-0.276,0-0.5-0.224-0.5-0.5v-2c0-0.276,0.224-0.5,0.5-0.5s0.5,0.224,0.5,0.5v2
				C21,30.776,20.776,31,20.5,31z"/>
		</g>
		<g>
			<path fill="#263238" d="M11.5,30.5v-2V30.5z"/>
			<path fill="#263238" d="M11.5,31c-0.276,0-0.5-0.224-0.5-0.5v-2c0-0.276,0.224-0.5,0.5-0.5s0.5,0.224,0.5,0.5v2
				C12,30.776,11.776,31,11.5,31z"/>
		</g>
	</g>
</g>
</svg>
