<?xml version="1.0" encoding="utf-8"?>
<!-- Generator: Adobe Illustrator 16.0.0, SVG Export Plug-In . SVG Version: 6.00 Build 0)  -->
<!DOCTYPE svg PUBLIC "-//W3C//DTD SVG 1.1//EN" "http://www.w3.org/Graphics/SVG/1.1/DTD/svg11.dtd">
<svg version="1.1" id="Layer_1" xmlns="http://www.w3.org/2000/svg" xmlns:xlink="http://www.w3.org/1999/xlink" x="0px" y="0px"
	 width="32px" height="32px" viewBox="0 0 32 32" enable-background="new 0 0 32 32" xml:space="preserve">
<g id="vlog_video_communication">
	<g>
		<g>
			<g id="web_navigation_laptop_2_">
				<g>
					<g id="laptop_2_">
						<g>
							<g>
								<g>
									<g>
										<path fill="#263238" d="M3.5,26C3.224,26,3,25.776,3,25.5v-16C3,8.673,3.673,8,4.5,8h10.001c0.276,0,0.5,0.224,0.5,0.5
											S14.777,9,14.501,9H4.5C4.224,9,4,9.225,4,9.5v16C4,25.776,3.776,26,3.5,26z"/>
										<path fill="#263238" d="M28.5,26c-0.276,0-0.5-0.224-0.5-0.5v-12c0-0.276,0.224-0.5,0.5-0.5s0.5,0.224,0.5,0.5v12
											C29,25.776,28.776,26,28.5,26z"/>
									</g>
								</g>
							</g>
							<g>
								<g>
									<path fill="#263238" d="M28.5,30h-25C2.121,30,1,28.879,1,27.5C1,27.224,1.224,27,1.5,27h11c0.276,0,0.5,0.224,0.5,0.5
										S12.776,28,12.5,28H2.086c0.206,0.582,0.762,1,1.414,1h25c0.652,0,1.208-0.418,1.414-1H19.5c-0.276,0-0.5-0.224-0.5-0.5
										s0.224-0.5,0.5-0.5h11c0.276,0,0.5,0.224,0.5,0.5C31,28.879,29.879,30,28.5,30z"/>
								</g>
							</g>
						</g>
					</g>
				</g>
			</g>
		</g>
		<g>
			<path fill="#263238" d="M6.52,21.951c-0.025,0-0.051-0.002-0.077-0.006c-0.273-0.042-0.46-0.298-0.418-0.57
				c0.134-0.871,0.802-1.67,1.587-1.901l2.676-1.253c0.25-0.118,0.548-0.009,0.664,0.242c0.117,0.25,0.008,0.548-0.242,0.664
				l-2.746,1.279c-0.488,0.149-0.875,0.631-0.951,1.121C6.976,21.774,6.763,21.951,6.52,21.951z"/>
			<g>
				<g>
					<path fill="#263238" d="M17.5,25.006c-0.276,0-0.5-0.224-0.5-0.5v-2.809c0-0.533-0.418-1.124-0.895-1.265l-2.577-1.104
						l-0.322,0.178c-0.755,0.416-1.656,0.415-2.411,0.001l-0.321-0.177L8.012,20.39C7.43,20.568,7,21.146,7,21.697v2.809
						c0,0.276-0.224,0.5-0.5,0.5S6,24.782,6,24.506v-2.809c0-0.994,0.718-1.959,1.67-2.245l2.632-1.136
						c0.142-0.062,0.303-0.054,0.438,0.021l0.536,0.294c0.453,0.25,0.994,0.25,1.446,0l0.536-0.295
						c0.136-0.075,0.297-0.083,0.439-0.021l2.746,1.18C17.292,19.739,18,20.717,18,21.697v2.809
						C18,24.782,17.776,25.006,17.5,25.006z"/>
				</g>
			</g>
			<path fill="#263238" d="M17.5,25.006c-0.276,0-0.5-0.224-0.5-0.5v-2.809c0-0.533-0.418-1.124-0.895-1.265l-2.816-1.306
				C13.113,19.045,13,18.868,13,18.674v-1.186c0-0.157,0.074-0.305,0.199-0.398C13.708,16.704,14,16.125,14,15.5v-1
				c0-1.55-0.097-2.5-2-2.5s-2,0.95-2,2.5v1c0,0.625,0.292,1.204,0.801,1.59C10.926,17.184,11,17.331,11,17.488v1.188
				c0,0.276-0.224,0.5-0.5,0.5s-0.5-0.224-0.5-0.5v-0.952c-0.639-0.57-1-1.367-1-2.224v-1c0-1.309,0-3.5,3-3.5s3,2.191,3,3.5v1
				c0,0.856-0.361,1.653-1,2.224v0.632l2.457,1.145C17.292,19.739,18,20.717,18,21.697v2.809C18,24.782,17.776,25.006,17.5,25.006z"
				/>
		</g>
		<g>
			<path fill="#263238" d="M19.5,16c-0.053,0-0.106-0.009-0.158-0.025C19.138,15.906,19,15.715,19,15.5V12h-1.5
				c-0.827,0-1.5-0.673-1.5-1.5v-8C16,1.673,16.673,1,17.5,1h12C30.327,1,31,1.673,31,2.5v8c0,0.827-0.673,1.5-1.5,1.5h-6.75
				l-2.85,3.8C19.804,15.929,19.654,16,19.5,16z M17.5,2C17.224,2,17,2.225,17,2.5v8c0,0.275,0.224,0.5,0.5,0.5h2
				c0.276,0,0.5,0.224,0.5,0.5V14l2.1-2.8c0.094-0.126,0.243-0.2,0.4-0.2h7c0.276,0,0.5-0.225,0.5-0.5v-8C30,2.225,29.776,2,29.5,2
				H17.5z"/>
		</g>
	</g>
	<g>
		<circle fill="#263238" cx="25.5" cy="7.5" r="0.5"/>
		<circle fill="#263238" cx="23.5" cy="7.5" r="0.5"/>
		<circle fill="#263238" cx="21.5" cy="7.5" r="0.5"/>
	</g>
</g>
</svg>
