<?xml version="1.0" encoding="utf-8"?>
<!-- Generator: Adobe Illustrator 16.0.0, SVG Export Plug-In . SVG Version: 6.00 Build 0)  -->
<!DOCTYPE svg PUBLIC "-//W3C//DTD SVG 1.1//EN" "http://www.w3.org/Graphics/SVG/1.1/DTD/svg11.dtd">
<svg version="1.1" xmlns="http://www.w3.org/2000/svg" xmlns:xlink="http://www.w3.org/1999/xlink" x="0px" y="0px" width="32px"
	 height="32px" viewBox="0 0 32 32" enable-background="new 0 0 32 32" xml:space="preserve">
<g id="Voice_assistant">
	<path fill="#263238" d="M13.5,4h5C18.776,4,19,3.776,19,3.5S18.776,3,18.5,3h-5C13.224,3,13,3.224,13,3.5S13.224,4,13.5,4z"/>
	<path fill="#263238" d="M15.5,29h1c0.276,0,0.5-0.224,0.5-0.5S16.776,28,16.5,28h-1c-0.276,0-0.5,0.224-0.5,0.5S15.224,29,15.5,29z
		"/>
	<path fill="#263238" d="M2.5,17C2.224,17,2,16.776,2,16.5v-1C2,15.224,2.224,15,2.5,15S3,15.224,3,15.5v1C3,16.776,2.776,17,2.5,17
		z"/>
	<path fill="#263238" d="M4.5,18C4.224,18,4,17.776,4,17.5v-3C4,14.224,4.224,14,4.5,14S5,14.224,5,14.5v3C5,17.776,4.776,18,4.5,18
		z"/>
	<path fill="#263238" d="M6.5,20C6.224,20,6,19.776,6,19.5v-7C6,12.224,6.224,12,6.5,12S7,12.224,7,12.5v7C7,19.776,6.776,20,6.5,20
		z"/>
	<path fill="#263238" d="M8.5,22C8.224,22,8,21.776,8,21.5v-11C8,10.224,8.224,10,8.5,10S9,10.224,9,10.5v11
		C9,21.776,8.776,22,8.5,22z"/>
	<path fill="#263238" d="M29.5,17c-0.276,0-0.5-0.224-0.5-0.5v-1c0-0.276,0.224-0.5,0.5-0.5s0.5,0.224,0.5,0.5v1
		C30,16.776,29.776,17,29.5,17z"/>
	<path fill="#263238" d="M27.5,18c-0.276,0-0.5-0.224-0.5-0.5v-3c0-0.276,0.224-0.5,0.5-0.5s0.5,0.224,0.5,0.5v3
		C28,17.776,27.776,18,27.5,18z"/>
	<path fill="#263238" d="M25.5,20c-0.276,0-0.5-0.224-0.5-0.5v-7c0-0.276,0.224-0.5,0.5-0.5s0.5,0.224,0.5,0.5v7
		C26,19.776,25.776,20,25.5,20z"/>
	<path fill="#263238" d="M23.5,22c-0.276,0-0.5-0.224-0.5-0.5v-11c0-0.276,0.224-0.5,0.5-0.5s0.5,0.224,0.5,0.5v11
		C24,21.776,23.776,22,23.5,22z"/>
	<path fill="#263238" d="M21.5,31h-11C9.121,31,8,29.878,8,28.5v-5C8,23.223,8.224,23,8.5,23S9,23.223,9,23.5v5
		c0,0.827,0.673,1.5,1.5,1.5h11c0.827,0,1.5-0.673,1.5-1.5v-5c0-0.276,0.224-0.5,0.5-0.5s0.5,0.224,0.5,0.5v5
		C24,29.878,22.879,31,21.5,31z"/>
	<path fill="#263238" d="M23.5,9C23.224,9,23,8.776,23,8.5v-5C23,2.673,22.327,2,21.5,2h-11C9.673,2,9,2.673,9,3.5v5
		C9,8.776,8.776,9,8.5,9S8,8.776,8,8.5v-5C8,2.122,9.121,1,10.5,1h11C22.879,1,24,2.122,24,3.5v5C24,8.776,23.776,9,23.5,9z"/>
	<path fill="#263238" d="M16,20c-2.757,0-5-2.243-5-5c0-0.276,0.224-0.5,0.5-0.5S12,14.724,12,15c0,2.206,1.794,4,4,4s4-1.794,4-4
		c0-0.276,0.224-0.5,0.5-0.5S21,14.724,21,15C21,17.757,18.757,20,16,20z"/>
	<path fill="#263238" d="M16,18c-1.654,0-3-1.346-3-3v-4c0-1.654,1.346-3,3-3s3,1.346,3,3v4C19,16.654,17.654,18,16,18z M16,9
		c-1.103,0-2,0.897-2,2v4c0,1.103,0.897,2,2,2s2-0.897,2-2v-4C18,9.897,17.103,9,16,9z"/>
	<path fill="#263238" d="M19.5,24h-7c-0.276,0-0.5-0.224-0.5-0.5s0.224-0.5,0.5-0.5H14c0.827,0,1.5-0.673,1.5-1.5v-2
		c0-0.276,0.224-0.5,0.5-0.5s0.5,0.224,0.5,0.5v2c0,0.827,0.673,1.5,1.5,1.5h1.5c0.276,0,0.5,0.224,0.5,0.5S19.776,24,19.5,24z"/>
</g>
</svg>
