<?xml version="1.0" encoding="utf-8"?>
<!-- Generator: Adobe Illustrator 16.0.0, SVG Export Plug-In . SVG Version: 6.00 Build 0)  -->
<!DOCTYPE svg PUBLIC "-//W3C//DTD SVG 1.1//EN" "http://www.w3.org/Graphics/SVG/1.1/DTD/svg11.dtd">
<svg version="1.1" xmlns="http://www.w3.org/2000/svg" xmlns:xlink="http://www.w3.org/1999/xlink" x="0px" y="0px" width="32px"
	 height="32px" viewBox="0 0 32 32" enable-background="new 0 0 32 32" xml:space="preserve">
<g id="web_design_edit_pencil">
	<g>
		<g>
			<g>
				<path fill="#263238" d="M28.5,31h-26C2.224,31,2,30.776,2,30.5S2.224,30,2.5,30h26c0.276,0,0.5,0.224,0.5,0.5S28.776,31,28.5,31
					z"/>
			</g>
			<circle fill="#263238" cx="30.5" cy="30.5" r="0.5"/>
		</g>
	</g>
	<g>
		<g>
			<path fill="#263238" d="M28.667,10.818l-0.707-0.707c1.364-1.365,1.364-3.586,0-4.95L25.839,3.04
				c-1.363-1.363-3.585-1.363-4.95,0l-0.707-0.707c1.756-1.754,4.61-1.754,6.364,0l2.121,2.121
				C30.421,6.208,30.421,9.063,28.667,10.818z"/>
			<path fill="#263238" d="M11.646,27.632c-0.128,0-0.256-0.049-0.354-0.146c-0.195-0.195-0.195-0.512,0-0.707l16.313-16.313
				L20.182,3.04c-0.195-0.195-0.195-0.512,0-0.707s0.512-0.195,0.707,0l7.778,7.778c0.195,0.195,0.195,0.512,0,0.707L12,27.485
				C11.902,27.583,11.774,27.632,11.646,27.632z"/>
			<path fill="#263238" d="M1.747,29.753c-0.131,0-0.259-0.052-0.354-0.146c-0.12-0.12-0.171-0.292-0.136-0.458l2.121-9.899
				c0.059-0.271,0.328-0.435,0.594-0.385c0.271,0.059,0.442,0.324,0.385,0.594l-1.96,9.145l8.662-1.856l-0.539-2.693l-2.818-0.313
				c-0.232-0.026-0.415-0.209-0.441-0.441l-0.313-2.818l-0.799-0.16c-0.271-0.054-0.446-0.317-0.393-0.588
				c0.055-0.272,0.323-0.448,0.588-0.393l1.158,0.231c0.214,0.043,0.375,0.219,0.399,0.435l0.31,2.784l2.784,0.31
				c0.216,0.024,0.392,0.186,0.435,0.399l0.707,3.536c0.054,0.268-0.118,0.529-0.386,0.587l-9.899,2.121
				C1.817,29.749,1.782,29.753,1.747,29.753z"/>
			<g>
				<path fill="#263238" d="M10.939,24.096c-0.128,0-0.256-0.049-0.354-0.146c-0.195-0.195-0.195-0.512,0-0.707L24.425,9.404
					c0.195-0.195,0.512-0.195,0.707,0s0.195,0.512,0,0.707L11.293,23.949C11.195,24.047,11.067,24.096,10.939,24.096z"/>
			</g>
			<g>
				<path fill="#263238" d="M7.404,20.561c-0.128,0-0.256-0.049-0.354-0.146c-0.195-0.195-0.195-0.512,0-0.707L19.475,7.282
					c0.195-0.195,0.512-0.195,0.707,0s0.195,0.512,0,0.707L7.758,20.414C7.66,20.512,7.532,20.561,7.404,20.561z"/>
			</g>
			<path fill="#263238" d="M3.868,19.854c-0.128,0-0.256-0.049-0.354-0.146c-0.195-0.195-0.195-0.512,0-0.707L18.768,3.747
				c0.195-0.195,0.512-0.195,0.707,0s0.195,0.512,0,0.707L4.222,19.707C4.124,19.805,3.996,19.854,3.868,19.854z"/>
			<circle fill="#263238" cx="21.242" cy="6.222" r="0.5"/>
			<g>
				<path fill="#263238" d="M6.344,28.692c-0.128,0-0.256-0.049-0.354-0.146l-1.889-1.891c-0.195-0.195-0.195-0.512,0-0.707
					s0.512-0.195,0.707,0l1.889,1.891c0.195,0.195,0.195,0.512,0,0.707C6.6,28.644,6.472,28.692,6.344,28.692z"/>
			</g>
		</g>
	</g>
</g>
</svg>
