<?xml version="1.0" encoding="utf-8"?>
<!-- Generator: Adobe Illustrator 16.0.0, SVG Export Plug-In . SVG Version: 6.00 Build 0)  -->
<!DOCTYPE svg PUBLIC "-//W3C//DTD SVG 1.1//EN" "http://www.w3.org/Graphics/SVG/1.1/DTD/svg11.dtd">
<svg version="1.1" xmlns="http://www.w3.org/2000/svg" xmlns:xlink="http://www.w3.org/1999/xlink" x="0px" y="0px" width="32px"
	 height="32px" viewBox="0 0 32 32" enable-background="new 0 0 32 32" xml:space="preserve">
<g id="website_search_engine_optimization_magnifier_magnifying_glass_loupe">
	<g>
		<g>
			<g id="monitoring_7_">
				<circle fill="#263238" cx="7.5" cy="4.5" r="0.5"/>
				<circle fill="#263238" cx="5.5" cy="4.5" r="0.5"/>
				<circle fill="#263238" cx="3.5" cy="4.5" r="0.5"/>
				<g>
					<path fill="#263238" d="M6.5,12h-3C3.224,12,3,11.776,3,11.5S3.224,11,3.5,11h3C6.776,11,7,11.224,7,11.5S6.776,12,6.5,12z"/>
				</g>
				<g>
					<path fill="#263238" d="M9.5,10h-6C3.224,10,3,9.776,3,9.5S3.224,9,3.5,9h6C9.776,9,10,9.224,10,9.5S9.776,10,9.5,10z"/>
				</g>
				<path fill="#263238" d="M30,7H2C1.724,7,1.5,6.776,1.5,6.5S1.724,6,2,6h28c0.276,0,0.5,0.224,0.5,0.5S30.276,7,30,7z"/>
				<path fill="#263238" d="M18.5,28h-16C1.673,28,1,27.327,1,26.5v-23C1,2.673,1.673,2,2.5,2h27C30.327,2,31,2.673,31,3.5V24
					c0,0.276-0.224,0.5-0.5,0.5S30,24.276,30,24V3.5C30,3.225,29.776,3,29.5,3h-27C2.224,3,2,3.225,2,3.5v23
					C2,26.775,2.224,27,2.5,27h16c0.276,0,0.5,0.224,0.5,0.5S18.776,28,18.5,28z"/>
			</g>
		</g>
		<g>
			<g>
				<g>
					<g>
						<path fill="#263238" d="M17,25c-4.411,0-8-3.589-8-8s3.589-8,8-8c1.66,0,3.252,0.504,4.605,1.458
							c0.226,0.158,0.28,0.471,0.121,0.696c-0.159,0.226-0.472,0.281-0.697,0.12C19.846,10.44,18.453,10,17,10c-3.86,0-7,3.141-7,7
							s3.14,7,7,7s7-3.141,7-7c0-0.719-0.108-1.427-0.322-2.105c-0.083-0.264,0.063-0.545,0.327-0.627
							c0.264-0.08,0.544,0.063,0.627,0.326C24.876,15.37,25,16.18,25,17C25,21.411,21.411,25,17,25z"/>
					</g>
				</g>
				<g>
					<path fill="#263238" d="M23.939,23.939c0.097-0.097,0.208-0.173,0.324-0.239c-0.016-0.101-0.054-0.198-0.131-0.275
						l-1.414-1.415c-0.195-0.195-0.512-0.195-0.707,0c-0.195,0.196-0.195,0.512,0,0.708l1.414,1.414
						c0.078,0.077,0.175,0.115,0.276,0.132C23.767,24.147,23.843,24.036,23.939,23.939z"/>
					<path fill="#263238" d="M25,24c0.256,0,0.512,0.098,0.707,0.293l4,4c0.391,0.391,0.391,1.023,0,1.414
						C29.512,29.902,29.256,30,29,30s-0.512-0.098-0.707-0.293l-4-4c-0.391-0.391-0.391-1.023,0-1.414
						C24.488,24.098,24.744,24,25,24L25,24z M25,23c-0.534,0-1.036,0.208-1.414,0.586S23,24.466,23,25s0.208,1.036,0.586,1.414l4,4
						C27.964,30.792,28.466,31,29,31s1.036-0.208,1.414-0.586S31,29.534,31,29s-0.208-1.036-0.586-1.414l-4-4
						C26.036,23.208,25.534,23,25,23L25,23z"/>
				</g>
			</g>
		</g>
	</g>
	<g>
		<g>
			<g>
				<g>
					<path fill="#263238" d="M16.5,20c-0.004,0-0.008,0-0.012,0c-0.145-0.004-0.28-0.069-0.373-0.18l-2.5-3
						c-0.176-0.213-0.147-0.528,0.064-0.705c0.213-0.176,0.527-0.147,0.705,0.064l2.133,2.561l7.114-7.578
						c0.188-0.204,0.504-0.216,0.706-0.031c0.203,0.187,0.217,0.503,0.03,0.707l-7.499,8C16.773,19.941,16.641,20,16.5,20z"/>
				</g>
			</g>
		</g>
	</g>
</g>
</svg>
